%
M48
M72
T01C0.01969
T02C0.03600
T03C0.03937
T04C0.04000
T05C0.06500
T06C0.11024
%
T01
X274725Y22669
X279713Y26280
X285176Y30033
X289973Y34989
X274751Y45564
X279576Y49824
X285111Y54225
X289936Y60757
T02
X68124Y38573
X42524Y38573
T03
X141047Y105609
X141047Y115609
X141047Y125609
X141047Y135609
X141047Y145609
X141047Y155609
X141047Y165609
X141047Y175609
X141047Y185609
X141047Y195609
X141047Y205609
X141047Y215609
X141047Y225609
X141047Y235609
X141047Y245609
X81047Y245609
X81047Y235609
X81047Y225609
X81047Y215609
X81047Y205609
X81047Y195609
X81047Y185609
X81047Y175609
X81047Y165609
X81047Y155609
X81047Y145609
X81047Y135609
X81047Y125609
X81047Y115609
X81047Y105609
T04
X338037Y20526
X338037Y30526
X338037Y40526
X338037Y50526
X338037Y60526
X400681Y55507
X400681Y45507
X400681Y35507
X400681Y25507
X158738Y105580
X158738Y115580
X158738Y125580
X158738Y135580
X158738Y145580
X158738Y155580
X158738Y165580
X158738Y175580
X158738Y185580
X158738Y195580
X158738Y205580
X158738Y215580
X158738Y225580
X158738Y235580
X158738Y245580
X63335Y245580
X63335Y235580
X63335Y225580
X63335Y215580
X63335Y205580
X63335Y195580
X63335Y185580
X63335Y175580
X63335Y165580
X63335Y155580
X63335Y145580
X63335Y135580
X63335Y125580
X63335Y115580
X63335Y105580
X296431Y299382
X306431Y299382
X316431Y299382
X326431Y299382
X371177Y299382
X381177Y299382
X391177Y299382
X401177Y299382
X448626Y299382
X458626Y299382
X468626Y299382
X478626Y299382
T05
X141047Y95609
X81047Y95609
X81047Y255609
X141047Y255609
T06
X20769Y20886
X20886Y309064
X553027Y309064
X553027Y20886
M30
