G75*
%MOIN*%
%OFA0B0*%
%FSLAX25Y25*%
%IPPOS*%
%LPD*%
%AMOC8*
5,1,8,0,0,1.08239X$1,22.5*
%
%ADD10C,0.00600*%
%ADD11OC8,0.08500*%
%ADD12R,0.05937X0.05937*%
%ADD13C,0.05937*%
%ADD14C,0.00000*%
%ADD15C,0.06000*%
%ADD16R,0.08268X0.05512*%
%ADD17R,0.06299X0.05118*%
%ADD18R,0.05512X0.04016*%
%ADD19R,0.04016X0.05512*%
%ADD20C,0.03200*%
%ADD21C,0.05000*%
%ADD22C,0.04000*%
%ADD23C,0.02000*%
%ADD24C,0.03569*%
%ADD25C,0.17717*%
D10*
X0021119Y0007483D02*
X0279165Y0007512D01*
X0555044Y0007512D01*
X0555371Y0007516D01*
X0555697Y0007528D01*
X0556023Y0007548D01*
X0556349Y0007575D01*
X0556674Y0007611D01*
X0556997Y0007654D01*
X0557320Y0007705D01*
X0557642Y0007764D01*
X0557961Y0007831D01*
X0558280Y0007905D01*
X0558596Y0007987D01*
X0558910Y0008077D01*
X0559222Y0008174D01*
X0559531Y0008278D01*
X0559838Y0008391D01*
X0560142Y0008510D01*
X0560443Y0008637D01*
X0560741Y0008771D01*
X0561036Y0008912D01*
X0561327Y0009061D01*
X0561614Y0009216D01*
X0561898Y0009378D01*
X0562178Y0009547D01*
X0562453Y0009723D01*
X0562724Y0009905D01*
X0562991Y0010094D01*
X0563253Y0010289D01*
X0563510Y0010491D01*
X0563762Y0010698D01*
X0564009Y0010912D01*
X0564251Y0011132D01*
X0564488Y0011357D01*
X0564719Y0011588D01*
X0564944Y0011825D01*
X0565164Y0012067D01*
X0565378Y0012314D01*
X0565585Y0012566D01*
X0565787Y0012823D01*
X0565982Y0013085D01*
X0566171Y0013352D01*
X0566353Y0013623D01*
X0566529Y0013898D01*
X0566698Y0014178D01*
X0566860Y0014462D01*
X0567015Y0014749D01*
X0567164Y0015040D01*
X0567305Y0015335D01*
X0567439Y0015633D01*
X0567566Y0015934D01*
X0567685Y0016238D01*
X0567798Y0016545D01*
X0567902Y0016854D01*
X0567999Y0017166D01*
X0568089Y0017480D01*
X0568171Y0017796D01*
X0568245Y0018115D01*
X0568312Y0018434D01*
X0568371Y0018756D01*
X0568422Y0019079D01*
X0568465Y0019402D01*
X0568501Y0019727D01*
X0568528Y0020053D01*
X0568548Y0020379D01*
X0568560Y0020705D01*
X0568564Y0021032D01*
X0568564Y0309091D01*
X0568565Y0309091D02*
X0568561Y0309415D01*
X0568549Y0309739D01*
X0568530Y0310063D01*
X0568502Y0310386D01*
X0568467Y0310708D01*
X0568424Y0311029D01*
X0568374Y0311349D01*
X0568315Y0311668D01*
X0568249Y0311986D01*
X0568175Y0312301D01*
X0568094Y0312615D01*
X0568005Y0312927D01*
X0567908Y0313236D01*
X0567805Y0313543D01*
X0567693Y0313848D01*
X0567575Y0314149D01*
X0567449Y0314448D01*
X0567316Y0314744D01*
X0567176Y0315036D01*
X0567029Y0315325D01*
X0566874Y0315610D01*
X0566713Y0315891D01*
X0566546Y0316169D01*
X0566371Y0316442D01*
X0566191Y0316711D01*
X0566003Y0316976D01*
X0565809Y0317235D01*
X0565610Y0317491D01*
X0565404Y0317741D01*
X0565192Y0317986D01*
X0564974Y0318226D01*
X0564750Y0318461D01*
X0564521Y0318690D01*
X0564286Y0318914D01*
X0564046Y0319132D01*
X0563801Y0319344D01*
X0563551Y0319550D01*
X0563295Y0319749D01*
X0563036Y0319943D01*
X0562771Y0320131D01*
X0562502Y0320311D01*
X0562229Y0320486D01*
X0561951Y0320653D01*
X0561670Y0320814D01*
X0561385Y0320969D01*
X0561096Y0321116D01*
X0560804Y0321256D01*
X0560508Y0321389D01*
X0560209Y0321515D01*
X0559908Y0321633D01*
X0559603Y0321745D01*
X0559296Y0321848D01*
X0558987Y0321945D01*
X0558675Y0322034D01*
X0558361Y0322115D01*
X0558046Y0322189D01*
X0557728Y0322255D01*
X0557409Y0322314D01*
X0557089Y0322364D01*
X0556768Y0322407D01*
X0556446Y0322442D01*
X0556123Y0322470D01*
X0555799Y0322489D01*
X0555475Y0322501D01*
X0555151Y0322505D01*
X0021123Y0322505D01*
X0020794Y0322501D01*
X0020465Y0322489D01*
X0020137Y0322469D01*
X0019809Y0322441D01*
X0019482Y0322406D01*
X0019156Y0322362D01*
X0018831Y0322311D01*
X0018508Y0322251D01*
X0018186Y0322184D01*
X0017865Y0322109D01*
X0017547Y0322027D01*
X0017231Y0321937D01*
X0016917Y0321839D01*
X0016605Y0321733D01*
X0016296Y0321620D01*
X0015990Y0321500D01*
X0015687Y0321372D01*
X0015387Y0321237D01*
X0015090Y0321095D01*
X0014797Y0320946D01*
X0014508Y0320789D01*
X0014222Y0320626D01*
X0013941Y0320456D01*
X0013663Y0320279D01*
X0013391Y0320095D01*
X0013122Y0319905D01*
X0012858Y0319709D01*
X0012599Y0319506D01*
X0012345Y0319297D01*
X0012097Y0319082D01*
X0011853Y0318861D01*
X0011615Y0318634D01*
X0011382Y0318401D01*
X0011155Y0318163D01*
X0010934Y0317919D01*
X0010719Y0317671D01*
X0010510Y0317417D01*
X0010307Y0317158D01*
X0010111Y0316894D01*
X0009921Y0316625D01*
X0009737Y0316353D01*
X0009560Y0316075D01*
X0009390Y0315794D01*
X0009227Y0315508D01*
X0009070Y0315219D01*
X0008921Y0314926D01*
X0008779Y0314629D01*
X0008644Y0314329D01*
X0008516Y0314026D01*
X0008396Y0313720D01*
X0008283Y0313411D01*
X0008177Y0313099D01*
X0008079Y0312785D01*
X0007989Y0312469D01*
X0007907Y0312151D01*
X0007832Y0311830D01*
X0007765Y0311508D01*
X0007705Y0311185D01*
X0007654Y0310860D01*
X0007610Y0310534D01*
X0007575Y0310207D01*
X0007547Y0309879D01*
X0007527Y0309551D01*
X0007515Y0309222D01*
X0007511Y0308893D01*
X0007512Y0308893D02*
X0007512Y0021090D01*
X0007516Y0020761D01*
X0007528Y0020433D01*
X0007548Y0020104D01*
X0007576Y0019777D01*
X0007611Y0019450D01*
X0007655Y0019124D01*
X0007706Y0018799D01*
X0007765Y0018476D01*
X0007833Y0018154D01*
X0007907Y0017834D01*
X0007990Y0017515D01*
X0008080Y0017199D01*
X0008178Y0016885D01*
X0008283Y0016574D01*
X0008396Y0016265D01*
X0008517Y0015959D01*
X0008644Y0015656D01*
X0008779Y0015356D01*
X0008921Y0015059D01*
X0009071Y0014767D01*
X0009227Y0014477D01*
X0009390Y0014192D01*
X0009560Y0013910D01*
X0009737Y0013633D01*
X0009921Y0013360D01*
X0010111Y0013092D01*
X0010307Y0012828D01*
X0010510Y0012569D01*
X0010719Y0012316D01*
X0010934Y0012067D01*
X0011155Y0011823D01*
X0011382Y0011585D01*
X0011614Y0011353D01*
X0011852Y0011126D01*
X0012096Y0010905D01*
X0012345Y0010690D01*
X0012598Y0010481D01*
X0012857Y0010278D01*
X0013121Y0010082D01*
X0013389Y0009892D01*
X0013662Y0009708D01*
X0013939Y0009531D01*
X0014221Y0009361D01*
X0014506Y0009198D01*
X0014796Y0009042D01*
X0015088Y0008892D01*
X0015385Y0008750D01*
X0015685Y0008615D01*
X0015988Y0008488D01*
X0016294Y0008367D01*
X0016603Y0008254D01*
X0016914Y0008149D01*
X0017228Y0008051D01*
X0017544Y0007961D01*
X0017863Y0007878D01*
X0018183Y0007804D01*
X0018505Y0007736D01*
X0018828Y0007677D01*
X0019153Y0007626D01*
X0019479Y0007582D01*
X0019806Y0007547D01*
X0020133Y0007519D01*
X0020462Y0007499D01*
X0020790Y0007487D01*
X0021119Y0007483D01*
D11*
X0042524Y0038573D03*
X0068124Y0038573D03*
D12*
X0081047Y0245609D03*
D13*
X0081047Y0235609D03*
X0081047Y0225609D03*
X0081047Y0215609D03*
X0081047Y0205609D03*
X0081047Y0195609D03*
X0081047Y0185609D03*
X0081047Y0175609D03*
X0081047Y0165609D03*
X0081047Y0155609D03*
X0081047Y0145609D03*
X0081047Y0135609D03*
X0081047Y0125609D03*
X0081047Y0115609D03*
X0081047Y0105609D03*
X0141047Y0105609D03*
X0141047Y0115609D03*
X0141047Y0125609D03*
X0141047Y0135609D03*
X0141047Y0145609D03*
X0141047Y0155609D03*
X0141047Y0165609D03*
X0141047Y0175609D03*
X0141047Y0185609D03*
X0141047Y0195609D03*
X0141047Y0205609D03*
X0141047Y0215609D03*
X0141047Y0225609D03*
X0141047Y0235609D03*
X0141047Y0245609D03*
D14*
X0137797Y0255609D02*
X0137799Y0255722D01*
X0137805Y0255836D01*
X0137815Y0255949D01*
X0137829Y0256061D01*
X0137846Y0256173D01*
X0137868Y0256285D01*
X0137894Y0256395D01*
X0137923Y0256505D01*
X0137956Y0256613D01*
X0137993Y0256721D01*
X0138034Y0256826D01*
X0138078Y0256931D01*
X0138126Y0257034D01*
X0138177Y0257135D01*
X0138232Y0257234D01*
X0138291Y0257331D01*
X0138353Y0257426D01*
X0138418Y0257519D01*
X0138486Y0257610D01*
X0138557Y0257698D01*
X0138632Y0257784D01*
X0138709Y0257867D01*
X0138789Y0257947D01*
X0138872Y0258024D01*
X0138958Y0258099D01*
X0139046Y0258170D01*
X0139137Y0258238D01*
X0139230Y0258303D01*
X0139325Y0258365D01*
X0139422Y0258424D01*
X0139521Y0258479D01*
X0139622Y0258530D01*
X0139725Y0258578D01*
X0139830Y0258622D01*
X0139935Y0258663D01*
X0140043Y0258700D01*
X0140151Y0258733D01*
X0140261Y0258762D01*
X0140371Y0258788D01*
X0140483Y0258810D01*
X0140595Y0258827D01*
X0140707Y0258841D01*
X0140820Y0258851D01*
X0140934Y0258857D01*
X0141047Y0258859D01*
X0141160Y0258857D01*
X0141274Y0258851D01*
X0141387Y0258841D01*
X0141499Y0258827D01*
X0141611Y0258810D01*
X0141723Y0258788D01*
X0141833Y0258762D01*
X0141943Y0258733D01*
X0142051Y0258700D01*
X0142159Y0258663D01*
X0142264Y0258622D01*
X0142369Y0258578D01*
X0142472Y0258530D01*
X0142573Y0258479D01*
X0142672Y0258424D01*
X0142769Y0258365D01*
X0142864Y0258303D01*
X0142957Y0258238D01*
X0143048Y0258170D01*
X0143136Y0258099D01*
X0143222Y0258024D01*
X0143305Y0257947D01*
X0143385Y0257867D01*
X0143462Y0257784D01*
X0143537Y0257698D01*
X0143608Y0257610D01*
X0143676Y0257519D01*
X0143741Y0257426D01*
X0143803Y0257331D01*
X0143862Y0257234D01*
X0143917Y0257135D01*
X0143968Y0257034D01*
X0144016Y0256931D01*
X0144060Y0256826D01*
X0144101Y0256721D01*
X0144138Y0256613D01*
X0144171Y0256505D01*
X0144200Y0256395D01*
X0144226Y0256285D01*
X0144248Y0256173D01*
X0144265Y0256061D01*
X0144279Y0255949D01*
X0144289Y0255836D01*
X0144295Y0255722D01*
X0144297Y0255609D01*
X0144295Y0255496D01*
X0144289Y0255382D01*
X0144279Y0255269D01*
X0144265Y0255157D01*
X0144248Y0255045D01*
X0144226Y0254933D01*
X0144200Y0254823D01*
X0144171Y0254713D01*
X0144138Y0254605D01*
X0144101Y0254497D01*
X0144060Y0254392D01*
X0144016Y0254287D01*
X0143968Y0254184D01*
X0143917Y0254083D01*
X0143862Y0253984D01*
X0143803Y0253887D01*
X0143741Y0253792D01*
X0143676Y0253699D01*
X0143608Y0253608D01*
X0143537Y0253520D01*
X0143462Y0253434D01*
X0143385Y0253351D01*
X0143305Y0253271D01*
X0143222Y0253194D01*
X0143136Y0253119D01*
X0143048Y0253048D01*
X0142957Y0252980D01*
X0142864Y0252915D01*
X0142769Y0252853D01*
X0142672Y0252794D01*
X0142573Y0252739D01*
X0142472Y0252688D01*
X0142369Y0252640D01*
X0142264Y0252596D01*
X0142159Y0252555D01*
X0142051Y0252518D01*
X0141943Y0252485D01*
X0141833Y0252456D01*
X0141723Y0252430D01*
X0141611Y0252408D01*
X0141499Y0252391D01*
X0141387Y0252377D01*
X0141274Y0252367D01*
X0141160Y0252361D01*
X0141047Y0252359D01*
X0140934Y0252361D01*
X0140820Y0252367D01*
X0140707Y0252377D01*
X0140595Y0252391D01*
X0140483Y0252408D01*
X0140371Y0252430D01*
X0140261Y0252456D01*
X0140151Y0252485D01*
X0140043Y0252518D01*
X0139935Y0252555D01*
X0139830Y0252596D01*
X0139725Y0252640D01*
X0139622Y0252688D01*
X0139521Y0252739D01*
X0139422Y0252794D01*
X0139325Y0252853D01*
X0139230Y0252915D01*
X0139137Y0252980D01*
X0139046Y0253048D01*
X0138958Y0253119D01*
X0138872Y0253194D01*
X0138789Y0253271D01*
X0138709Y0253351D01*
X0138632Y0253434D01*
X0138557Y0253520D01*
X0138486Y0253608D01*
X0138418Y0253699D01*
X0138353Y0253792D01*
X0138291Y0253887D01*
X0138232Y0253984D01*
X0138177Y0254083D01*
X0138126Y0254184D01*
X0138078Y0254287D01*
X0138034Y0254392D01*
X0137993Y0254497D01*
X0137956Y0254605D01*
X0137923Y0254713D01*
X0137894Y0254823D01*
X0137868Y0254933D01*
X0137846Y0255045D01*
X0137829Y0255157D01*
X0137815Y0255269D01*
X0137805Y0255382D01*
X0137799Y0255496D01*
X0137797Y0255609D01*
X0077797Y0255609D02*
X0077799Y0255722D01*
X0077805Y0255836D01*
X0077815Y0255949D01*
X0077829Y0256061D01*
X0077846Y0256173D01*
X0077868Y0256285D01*
X0077894Y0256395D01*
X0077923Y0256505D01*
X0077956Y0256613D01*
X0077993Y0256721D01*
X0078034Y0256826D01*
X0078078Y0256931D01*
X0078126Y0257034D01*
X0078177Y0257135D01*
X0078232Y0257234D01*
X0078291Y0257331D01*
X0078353Y0257426D01*
X0078418Y0257519D01*
X0078486Y0257610D01*
X0078557Y0257698D01*
X0078632Y0257784D01*
X0078709Y0257867D01*
X0078789Y0257947D01*
X0078872Y0258024D01*
X0078958Y0258099D01*
X0079046Y0258170D01*
X0079137Y0258238D01*
X0079230Y0258303D01*
X0079325Y0258365D01*
X0079422Y0258424D01*
X0079521Y0258479D01*
X0079622Y0258530D01*
X0079725Y0258578D01*
X0079830Y0258622D01*
X0079935Y0258663D01*
X0080043Y0258700D01*
X0080151Y0258733D01*
X0080261Y0258762D01*
X0080371Y0258788D01*
X0080483Y0258810D01*
X0080595Y0258827D01*
X0080707Y0258841D01*
X0080820Y0258851D01*
X0080934Y0258857D01*
X0081047Y0258859D01*
X0081160Y0258857D01*
X0081274Y0258851D01*
X0081387Y0258841D01*
X0081499Y0258827D01*
X0081611Y0258810D01*
X0081723Y0258788D01*
X0081833Y0258762D01*
X0081943Y0258733D01*
X0082051Y0258700D01*
X0082159Y0258663D01*
X0082264Y0258622D01*
X0082369Y0258578D01*
X0082472Y0258530D01*
X0082573Y0258479D01*
X0082672Y0258424D01*
X0082769Y0258365D01*
X0082864Y0258303D01*
X0082957Y0258238D01*
X0083048Y0258170D01*
X0083136Y0258099D01*
X0083222Y0258024D01*
X0083305Y0257947D01*
X0083385Y0257867D01*
X0083462Y0257784D01*
X0083537Y0257698D01*
X0083608Y0257610D01*
X0083676Y0257519D01*
X0083741Y0257426D01*
X0083803Y0257331D01*
X0083862Y0257234D01*
X0083917Y0257135D01*
X0083968Y0257034D01*
X0084016Y0256931D01*
X0084060Y0256826D01*
X0084101Y0256721D01*
X0084138Y0256613D01*
X0084171Y0256505D01*
X0084200Y0256395D01*
X0084226Y0256285D01*
X0084248Y0256173D01*
X0084265Y0256061D01*
X0084279Y0255949D01*
X0084289Y0255836D01*
X0084295Y0255722D01*
X0084297Y0255609D01*
X0084295Y0255496D01*
X0084289Y0255382D01*
X0084279Y0255269D01*
X0084265Y0255157D01*
X0084248Y0255045D01*
X0084226Y0254933D01*
X0084200Y0254823D01*
X0084171Y0254713D01*
X0084138Y0254605D01*
X0084101Y0254497D01*
X0084060Y0254392D01*
X0084016Y0254287D01*
X0083968Y0254184D01*
X0083917Y0254083D01*
X0083862Y0253984D01*
X0083803Y0253887D01*
X0083741Y0253792D01*
X0083676Y0253699D01*
X0083608Y0253608D01*
X0083537Y0253520D01*
X0083462Y0253434D01*
X0083385Y0253351D01*
X0083305Y0253271D01*
X0083222Y0253194D01*
X0083136Y0253119D01*
X0083048Y0253048D01*
X0082957Y0252980D01*
X0082864Y0252915D01*
X0082769Y0252853D01*
X0082672Y0252794D01*
X0082573Y0252739D01*
X0082472Y0252688D01*
X0082369Y0252640D01*
X0082264Y0252596D01*
X0082159Y0252555D01*
X0082051Y0252518D01*
X0081943Y0252485D01*
X0081833Y0252456D01*
X0081723Y0252430D01*
X0081611Y0252408D01*
X0081499Y0252391D01*
X0081387Y0252377D01*
X0081274Y0252367D01*
X0081160Y0252361D01*
X0081047Y0252359D01*
X0080934Y0252361D01*
X0080820Y0252367D01*
X0080707Y0252377D01*
X0080595Y0252391D01*
X0080483Y0252408D01*
X0080371Y0252430D01*
X0080261Y0252456D01*
X0080151Y0252485D01*
X0080043Y0252518D01*
X0079935Y0252555D01*
X0079830Y0252596D01*
X0079725Y0252640D01*
X0079622Y0252688D01*
X0079521Y0252739D01*
X0079422Y0252794D01*
X0079325Y0252853D01*
X0079230Y0252915D01*
X0079137Y0252980D01*
X0079046Y0253048D01*
X0078958Y0253119D01*
X0078872Y0253194D01*
X0078789Y0253271D01*
X0078709Y0253351D01*
X0078632Y0253434D01*
X0078557Y0253520D01*
X0078486Y0253608D01*
X0078418Y0253699D01*
X0078353Y0253792D01*
X0078291Y0253887D01*
X0078232Y0253984D01*
X0078177Y0254083D01*
X0078126Y0254184D01*
X0078078Y0254287D01*
X0078034Y0254392D01*
X0077993Y0254497D01*
X0077956Y0254605D01*
X0077923Y0254713D01*
X0077894Y0254823D01*
X0077868Y0254933D01*
X0077846Y0255045D01*
X0077829Y0255157D01*
X0077815Y0255269D01*
X0077805Y0255382D01*
X0077799Y0255496D01*
X0077797Y0255609D01*
X0077797Y0095609D02*
X0077799Y0095722D01*
X0077805Y0095836D01*
X0077815Y0095949D01*
X0077829Y0096061D01*
X0077846Y0096173D01*
X0077868Y0096285D01*
X0077894Y0096395D01*
X0077923Y0096505D01*
X0077956Y0096613D01*
X0077993Y0096721D01*
X0078034Y0096826D01*
X0078078Y0096931D01*
X0078126Y0097034D01*
X0078177Y0097135D01*
X0078232Y0097234D01*
X0078291Y0097331D01*
X0078353Y0097426D01*
X0078418Y0097519D01*
X0078486Y0097610D01*
X0078557Y0097698D01*
X0078632Y0097784D01*
X0078709Y0097867D01*
X0078789Y0097947D01*
X0078872Y0098024D01*
X0078958Y0098099D01*
X0079046Y0098170D01*
X0079137Y0098238D01*
X0079230Y0098303D01*
X0079325Y0098365D01*
X0079422Y0098424D01*
X0079521Y0098479D01*
X0079622Y0098530D01*
X0079725Y0098578D01*
X0079830Y0098622D01*
X0079935Y0098663D01*
X0080043Y0098700D01*
X0080151Y0098733D01*
X0080261Y0098762D01*
X0080371Y0098788D01*
X0080483Y0098810D01*
X0080595Y0098827D01*
X0080707Y0098841D01*
X0080820Y0098851D01*
X0080934Y0098857D01*
X0081047Y0098859D01*
X0081160Y0098857D01*
X0081274Y0098851D01*
X0081387Y0098841D01*
X0081499Y0098827D01*
X0081611Y0098810D01*
X0081723Y0098788D01*
X0081833Y0098762D01*
X0081943Y0098733D01*
X0082051Y0098700D01*
X0082159Y0098663D01*
X0082264Y0098622D01*
X0082369Y0098578D01*
X0082472Y0098530D01*
X0082573Y0098479D01*
X0082672Y0098424D01*
X0082769Y0098365D01*
X0082864Y0098303D01*
X0082957Y0098238D01*
X0083048Y0098170D01*
X0083136Y0098099D01*
X0083222Y0098024D01*
X0083305Y0097947D01*
X0083385Y0097867D01*
X0083462Y0097784D01*
X0083537Y0097698D01*
X0083608Y0097610D01*
X0083676Y0097519D01*
X0083741Y0097426D01*
X0083803Y0097331D01*
X0083862Y0097234D01*
X0083917Y0097135D01*
X0083968Y0097034D01*
X0084016Y0096931D01*
X0084060Y0096826D01*
X0084101Y0096721D01*
X0084138Y0096613D01*
X0084171Y0096505D01*
X0084200Y0096395D01*
X0084226Y0096285D01*
X0084248Y0096173D01*
X0084265Y0096061D01*
X0084279Y0095949D01*
X0084289Y0095836D01*
X0084295Y0095722D01*
X0084297Y0095609D01*
X0084295Y0095496D01*
X0084289Y0095382D01*
X0084279Y0095269D01*
X0084265Y0095157D01*
X0084248Y0095045D01*
X0084226Y0094933D01*
X0084200Y0094823D01*
X0084171Y0094713D01*
X0084138Y0094605D01*
X0084101Y0094497D01*
X0084060Y0094392D01*
X0084016Y0094287D01*
X0083968Y0094184D01*
X0083917Y0094083D01*
X0083862Y0093984D01*
X0083803Y0093887D01*
X0083741Y0093792D01*
X0083676Y0093699D01*
X0083608Y0093608D01*
X0083537Y0093520D01*
X0083462Y0093434D01*
X0083385Y0093351D01*
X0083305Y0093271D01*
X0083222Y0093194D01*
X0083136Y0093119D01*
X0083048Y0093048D01*
X0082957Y0092980D01*
X0082864Y0092915D01*
X0082769Y0092853D01*
X0082672Y0092794D01*
X0082573Y0092739D01*
X0082472Y0092688D01*
X0082369Y0092640D01*
X0082264Y0092596D01*
X0082159Y0092555D01*
X0082051Y0092518D01*
X0081943Y0092485D01*
X0081833Y0092456D01*
X0081723Y0092430D01*
X0081611Y0092408D01*
X0081499Y0092391D01*
X0081387Y0092377D01*
X0081274Y0092367D01*
X0081160Y0092361D01*
X0081047Y0092359D01*
X0080934Y0092361D01*
X0080820Y0092367D01*
X0080707Y0092377D01*
X0080595Y0092391D01*
X0080483Y0092408D01*
X0080371Y0092430D01*
X0080261Y0092456D01*
X0080151Y0092485D01*
X0080043Y0092518D01*
X0079935Y0092555D01*
X0079830Y0092596D01*
X0079725Y0092640D01*
X0079622Y0092688D01*
X0079521Y0092739D01*
X0079422Y0092794D01*
X0079325Y0092853D01*
X0079230Y0092915D01*
X0079137Y0092980D01*
X0079046Y0093048D01*
X0078958Y0093119D01*
X0078872Y0093194D01*
X0078789Y0093271D01*
X0078709Y0093351D01*
X0078632Y0093434D01*
X0078557Y0093520D01*
X0078486Y0093608D01*
X0078418Y0093699D01*
X0078353Y0093792D01*
X0078291Y0093887D01*
X0078232Y0093984D01*
X0078177Y0094083D01*
X0078126Y0094184D01*
X0078078Y0094287D01*
X0078034Y0094392D01*
X0077993Y0094497D01*
X0077956Y0094605D01*
X0077923Y0094713D01*
X0077894Y0094823D01*
X0077868Y0094933D01*
X0077846Y0095045D01*
X0077829Y0095157D01*
X0077815Y0095269D01*
X0077805Y0095382D01*
X0077799Y0095496D01*
X0077797Y0095609D01*
X0137797Y0095609D02*
X0137799Y0095722D01*
X0137805Y0095836D01*
X0137815Y0095949D01*
X0137829Y0096061D01*
X0137846Y0096173D01*
X0137868Y0096285D01*
X0137894Y0096395D01*
X0137923Y0096505D01*
X0137956Y0096613D01*
X0137993Y0096721D01*
X0138034Y0096826D01*
X0138078Y0096931D01*
X0138126Y0097034D01*
X0138177Y0097135D01*
X0138232Y0097234D01*
X0138291Y0097331D01*
X0138353Y0097426D01*
X0138418Y0097519D01*
X0138486Y0097610D01*
X0138557Y0097698D01*
X0138632Y0097784D01*
X0138709Y0097867D01*
X0138789Y0097947D01*
X0138872Y0098024D01*
X0138958Y0098099D01*
X0139046Y0098170D01*
X0139137Y0098238D01*
X0139230Y0098303D01*
X0139325Y0098365D01*
X0139422Y0098424D01*
X0139521Y0098479D01*
X0139622Y0098530D01*
X0139725Y0098578D01*
X0139830Y0098622D01*
X0139935Y0098663D01*
X0140043Y0098700D01*
X0140151Y0098733D01*
X0140261Y0098762D01*
X0140371Y0098788D01*
X0140483Y0098810D01*
X0140595Y0098827D01*
X0140707Y0098841D01*
X0140820Y0098851D01*
X0140934Y0098857D01*
X0141047Y0098859D01*
X0141160Y0098857D01*
X0141274Y0098851D01*
X0141387Y0098841D01*
X0141499Y0098827D01*
X0141611Y0098810D01*
X0141723Y0098788D01*
X0141833Y0098762D01*
X0141943Y0098733D01*
X0142051Y0098700D01*
X0142159Y0098663D01*
X0142264Y0098622D01*
X0142369Y0098578D01*
X0142472Y0098530D01*
X0142573Y0098479D01*
X0142672Y0098424D01*
X0142769Y0098365D01*
X0142864Y0098303D01*
X0142957Y0098238D01*
X0143048Y0098170D01*
X0143136Y0098099D01*
X0143222Y0098024D01*
X0143305Y0097947D01*
X0143385Y0097867D01*
X0143462Y0097784D01*
X0143537Y0097698D01*
X0143608Y0097610D01*
X0143676Y0097519D01*
X0143741Y0097426D01*
X0143803Y0097331D01*
X0143862Y0097234D01*
X0143917Y0097135D01*
X0143968Y0097034D01*
X0144016Y0096931D01*
X0144060Y0096826D01*
X0144101Y0096721D01*
X0144138Y0096613D01*
X0144171Y0096505D01*
X0144200Y0096395D01*
X0144226Y0096285D01*
X0144248Y0096173D01*
X0144265Y0096061D01*
X0144279Y0095949D01*
X0144289Y0095836D01*
X0144295Y0095722D01*
X0144297Y0095609D01*
X0144295Y0095496D01*
X0144289Y0095382D01*
X0144279Y0095269D01*
X0144265Y0095157D01*
X0144248Y0095045D01*
X0144226Y0094933D01*
X0144200Y0094823D01*
X0144171Y0094713D01*
X0144138Y0094605D01*
X0144101Y0094497D01*
X0144060Y0094392D01*
X0144016Y0094287D01*
X0143968Y0094184D01*
X0143917Y0094083D01*
X0143862Y0093984D01*
X0143803Y0093887D01*
X0143741Y0093792D01*
X0143676Y0093699D01*
X0143608Y0093608D01*
X0143537Y0093520D01*
X0143462Y0093434D01*
X0143385Y0093351D01*
X0143305Y0093271D01*
X0143222Y0093194D01*
X0143136Y0093119D01*
X0143048Y0093048D01*
X0142957Y0092980D01*
X0142864Y0092915D01*
X0142769Y0092853D01*
X0142672Y0092794D01*
X0142573Y0092739D01*
X0142472Y0092688D01*
X0142369Y0092640D01*
X0142264Y0092596D01*
X0142159Y0092555D01*
X0142051Y0092518D01*
X0141943Y0092485D01*
X0141833Y0092456D01*
X0141723Y0092430D01*
X0141611Y0092408D01*
X0141499Y0092391D01*
X0141387Y0092377D01*
X0141274Y0092367D01*
X0141160Y0092361D01*
X0141047Y0092359D01*
X0140934Y0092361D01*
X0140820Y0092367D01*
X0140707Y0092377D01*
X0140595Y0092391D01*
X0140483Y0092408D01*
X0140371Y0092430D01*
X0140261Y0092456D01*
X0140151Y0092485D01*
X0140043Y0092518D01*
X0139935Y0092555D01*
X0139830Y0092596D01*
X0139725Y0092640D01*
X0139622Y0092688D01*
X0139521Y0092739D01*
X0139422Y0092794D01*
X0139325Y0092853D01*
X0139230Y0092915D01*
X0139137Y0092980D01*
X0139046Y0093048D01*
X0138958Y0093119D01*
X0138872Y0093194D01*
X0138789Y0093271D01*
X0138709Y0093351D01*
X0138632Y0093434D01*
X0138557Y0093520D01*
X0138486Y0093608D01*
X0138418Y0093699D01*
X0138353Y0093792D01*
X0138291Y0093887D01*
X0138232Y0093984D01*
X0138177Y0094083D01*
X0138126Y0094184D01*
X0138078Y0094287D01*
X0138034Y0094392D01*
X0137993Y0094497D01*
X0137956Y0094605D01*
X0137923Y0094713D01*
X0137894Y0094823D01*
X0137868Y0094933D01*
X0137846Y0095045D01*
X0137829Y0095157D01*
X0137815Y0095269D01*
X0137805Y0095382D01*
X0137799Y0095496D01*
X0137797Y0095609D01*
D15*
X0155738Y0105580D02*
X0161738Y0105580D01*
X0161738Y0115580D02*
X0155738Y0115580D01*
X0155738Y0125580D02*
X0161738Y0125580D01*
X0161738Y0135580D02*
X0155738Y0135580D01*
X0155738Y0145580D02*
X0161738Y0145580D01*
X0161738Y0155580D02*
X0155738Y0155580D01*
X0155738Y0165580D02*
X0161738Y0165580D01*
X0161738Y0175580D02*
X0155738Y0175580D01*
X0155738Y0185580D02*
X0161738Y0185580D01*
X0161738Y0195580D02*
X0155738Y0195580D01*
X0155738Y0205580D02*
X0161738Y0205580D01*
X0161738Y0215580D02*
X0155738Y0215580D01*
X0155738Y0225580D02*
X0161738Y0225580D01*
X0161738Y0235580D02*
X0155738Y0235580D01*
X0155738Y0245580D02*
X0161738Y0245580D01*
X0066335Y0245580D02*
X0060335Y0245580D01*
X0060335Y0235580D02*
X0066335Y0235580D01*
X0066335Y0225580D02*
X0060335Y0225580D01*
X0060335Y0215580D02*
X0066335Y0215580D01*
X0066335Y0205580D02*
X0060335Y0205580D01*
X0060335Y0195580D02*
X0066335Y0195580D01*
X0066335Y0185580D02*
X0060335Y0185580D01*
X0060335Y0175580D02*
X0066335Y0175580D01*
X0066335Y0165580D02*
X0060335Y0165580D01*
X0060335Y0155580D02*
X0066335Y0155580D01*
X0066335Y0145580D02*
X0060335Y0145580D01*
X0060335Y0135580D02*
X0066335Y0135580D01*
X0066335Y0125580D02*
X0060335Y0125580D01*
X0060335Y0115580D02*
X0066335Y0115580D01*
X0066335Y0105580D02*
X0060335Y0105580D01*
X0335037Y0060526D02*
X0341037Y0060526D01*
X0341037Y0050526D02*
X0335037Y0050526D01*
X0335037Y0040526D02*
X0341037Y0040526D01*
X0341037Y0030526D02*
X0335037Y0030526D01*
X0335037Y0020526D02*
X0341037Y0020526D01*
X0397681Y0025507D02*
X0403681Y0025507D01*
X0403681Y0035507D02*
X0397681Y0035507D01*
X0397681Y0045507D02*
X0403681Y0045507D01*
X0403681Y0055507D02*
X0397681Y0055507D01*
X0401177Y0296382D02*
X0401177Y0302382D01*
X0391177Y0302382D02*
X0391177Y0296382D01*
X0381177Y0296382D02*
X0381177Y0302382D01*
X0371177Y0302382D02*
X0371177Y0296382D01*
X0326431Y0296382D02*
X0326431Y0302382D01*
X0316431Y0302382D02*
X0316431Y0296382D01*
X0306431Y0296382D02*
X0306431Y0302382D01*
X0296431Y0302382D02*
X0296431Y0296382D01*
X0448626Y0296382D02*
X0448626Y0302382D01*
X0458626Y0302382D02*
X0458626Y0296382D01*
X0468626Y0296382D02*
X0468626Y0302382D01*
X0478626Y0302382D02*
X0478626Y0296382D01*
D16*
X0299441Y0035268D03*
X0299441Y0017551D03*
X0263614Y0017551D03*
X0244323Y0017551D03*
X0244323Y0035268D03*
X0263614Y0035268D03*
X0208496Y0035268D03*
X0189205Y0035268D03*
X0189205Y0017551D03*
X0208496Y0017551D03*
X0153378Y0017551D03*
X0134087Y0017551D03*
X0134087Y0035268D03*
X0153378Y0035268D03*
X0098260Y0035268D03*
X0098260Y0017551D03*
D17*
X0454171Y0040907D03*
X0454171Y0048781D03*
X0481730Y0048781D03*
X0481730Y0040907D03*
X0509289Y0040907D03*
X0509289Y0048781D03*
X0536747Y0048764D03*
X0536747Y0040890D03*
D18*
X0274877Y0059037D03*
X0265428Y0059037D03*
X0255979Y0059037D03*
X0246530Y0059037D03*
X0237081Y0059037D03*
X0237081Y0066438D03*
X0246530Y0066438D03*
X0255979Y0066438D03*
X0265428Y0066438D03*
X0274877Y0066438D03*
D19*
X0446888Y0032032D03*
X0454289Y0032032D03*
X0474447Y0032032D03*
X0481848Y0032032D03*
X0502006Y0032032D03*
X0509407Y0032032D03*
X0529565Y0032032D03*
X0536966Y0032032D03*
D20*
X0158842Y0105666D02*
X0140732Y0105666D01*
X0140772Y0115688D02*
X0158882Y0115688D01*
X0158917Y0125682D02*
X0140807Y0125682D01*
X0140808Y0135584D02*
X0158919Y0135584D01*
X0158954Y0145578D02*
X0140844Y0145578D01*
X0140884Y0155600D02*
X0158994Y0155600D01*
X0159029Y0165594D02*
X0140919Y0165594D01*
X0140804Y0175677D02*
X0158915Y0175677D01*
X0158950Y0185672D02*
X0140840Y0185672D01*
X0140880Y0195694D02*
X0158990Y0195694D01*
X0159025Y0205688D02*
X0140915Y0205688D01*
X0140916Y0215590D02*
X0159027Y0215590D01*
X0159062Y0225584D02*
X0140952Y0225584D01*
X0140992Y0235606D02*
X0159102Y0235606D01*
X0159137Y0245600D02*
X0141027Y0245600D01*
X0081338Y0245496D02*
X0063228Y0245496D01*
X0063193Y0235502D02*
X0081303Y0235502D01*
X0081263Y0225480D02*
X0063153Y0225480D01*
X0063118Y0215486D02*
X0081228Y0215486D01*
X0081227Y0205584D02*
X0063116Y0205584D01*
X0063081Y0195589D02*
X0081191Y0195589D01*
X0081151Y0185567D02*
X0063041Y0185567D01*
X0063006Y0175573D02*
X0081116Y0175573D01*
X0081231Y0165490D02*
X0063120Y0165490D01*
X0063085Y0155496D02*
X0081195Y0155496D01*
X0081155Y0145474D02*
X0063045Y0145474D01*
X0063010Y0135480D02*
X0081120Y0135480D01*
X0081119Y0125578D02*
X0063008Y0125578D01*
X0062973Y0115583D02*
X0081083Y0115583D01*
X0081043Y0105561D02*
X0062933Y0105561D01*
D21*
X0063207Y0115618D02*
X0052879Y0115618D01*
X0044096Y0135511D02*
X0032490Y0147117D01*
X0032490Y0285246D01*
X0046681Y0299437D01*
X0327360Y0299437D01*
X0358349Y0299294D02*
X0402115Y0299294D01*
X0358349Y0299294D02*
X0327197Y0268142D01*
X0140991Y0268142D01*
X0108527Y0235678D01*
X0081009Y0235678D01*
X0063322Y0135511D02*
X0044096Y0135511D01*
X0158671Y0135562D02*
X0168999Y0135562D01*
X0443736Y0299386D02*
X0483419Y0299386D01*
D22*
X0289499Y0268173D02*
X0246127Y0224801D01*
X0246127Y0067800D01*
X0247501Y0066426D01*
X0275230Y0066426D01*
X0237433Y0059480D02*
X0081528Y0059480D01*
X0068142Y0046094D01*
X0068142Y0038220D01*
X0042945Y0038220D02*
X0042945Y0050819D01*
D23*
X0012942Y0014815D02*
X0014844Y0012912D01*
X0017174Y0011567D01*
X0017174Y0011567D01*
X0019773Y0010871D01*
X0021119Y0010783D01*
X0278509Y0010812D01*
X0278509Y0010812D01*
X0279164Y0010812D01*
X0279821Y0010812D01*
X0279822Y0010812D01*
X0554388Y0010812D01*
X0555044Y0010812D01*
X0556378Y0010899D01*
X0558955Y0011590D01*
X0561266Y0012924D01*
X0563152Y0014810D01*
X0564486Y0017121D01*
X0565177Y0019698D01*
X0565264Y0021032D01*
X0565264Y0309091D01*
X0565178Y0310411D01*
X0564494Y0312961D01*
X0563174Y0315248D01*
X0561307Y0317115D01*
X0559021Y0318435D01*
X0556471Y0319118D01*
X0555151Y0319205D01*
X0021123Y0319205D01*
X0019777Y0319117D01*
X0017177Y0318420D01*
X0014846Y0317074D01*
X0012943Y0315171D01*
X0011597Y0312839D01*
X0010900Y0310239D01*
X0010812Y0308893D01*
X0010812Y0021090D01*
X0010900Y0019744D01*
X0011596Y0017145D01*
X0012942Y0014815D01*
X0012543Y0015506D02*
X0092526Y0015506D01*
X0092526Y0014133D02*
X0093463Y0013195D01*
X0103056Y0013195D01*
X0103994Y0014133D01*
X0103994Y0020970D01*
X0103056Y0021907D01*
X0093463Y0021907D01*
X0092526Y0020970D01*
X0092526Y0014133D01*
X0093151Y0013507D02*
X0014249Y0013507D01*
X0017392Y0011509D02*
X0558653Y0011509D01*
X0561849Y0013507D02*
X0304550Y0013507D01*
X0304238Y0013195D02*
X0294644Y0013195D01*
X0293707Y0014133D01*
X0293707Y0020970D01*
X0294644Y0021907D01*
X0304238Y0021907D01*
X0305175Y0020970D01*
X0305175Y0014133D01*
X0304238Y0013195D01*
X0305175Y0015506D02*
X0430486Y0015506D01*
X0431292Y0014700D02*
X0432023Y0013969D01*
X0432979Y0013573D01*
X0514328Y0013573D01*
X0515284Y0013969D01*
X0528991Y0027677D01*
X0532236Y0027677D01*
X0533173Y0028614D01*
X0533173Y0035451D01*
X0532236Y0036388D01*
X0526894Y0036388D01*
X0525957Y0035451D01*
X0525957Y0031996D01*
X0512734Y0018773D01*
X0492529Y0018773D01*
X0501432Y0027677D01*
X0504676Y0027677D01*
X0505614Y0028614D01*
X0505614Y0035451D01*
X0504676Y0036388D01*
X0499335Y0036388D01*
X0498398Y0035451D01*
X0498398Y0031996D01*
X0489899Y0023498D01*
X0470482Y0023498D01*
X0474661Y0027677D01*
X0477117Y0027677D01*
X0478055Y0028614D01*
X0478055Y0035451D01*
X0477117Y0036388D01*
X0471776Y0036388D01*
X0470839Y0035451D01*
X0470839Y0031209D01*
X0467852Y0028222D01*
X0457505Y0028222D01*
X0457897Y0028614D01*
X0457897Y0035451D01*
X0456960Y0036388D01*
X0456568Y0036388D01*
X0456568Y0036748D01*
X0457983Y0036748D01*
X0458920Y0037685D01*
X0458920Y0044129D01*
X0458205Y0044844D01*
X0458920Y0045559D01*
X0458920Y0052003D01*
X0457983Y0052940D01*
X0450358Y0052940D01*
X0449421Y0052003D01*
X0449421Y0045559D01*
X0450136Y0044844D01*
X0449421Y0044129D01*
X0449421Y0037685D01*
X0450358Y0036748D01*
X0451369Y0036748D01*
X0451369Y0036138D01*
X0450681Y0035451D01*
X0450681Y0028614D01*
X0451073Y0028222D01*
X0450104Y0028222D01*
X0450496Y0028614D01*
X0450496Y0035451D01*
X0449558Y0036388D01*
X0446092Y0036388D01*
X0424853Y0057627D01*
X0423898Y0058023D01*
X0407618Y0058023D01*
X0407581Y0058113D01*
X0406287Y0059407D01*
X0404596Y0060107D01*
X0396766Y0060107D01*
X0395075Y0059407D01*
X0393781Y0058113D01*
X0393081Y0056422D01*
X0393081Y0054592D01*
X0393781Y0052901D01*
X0395075Y0051607D01*
X0396766Y0050907D01*
X0404596Y0050907D01*
X0406287Y0051607D01*
X0407502Y0052823D01*
X0422304Y0052823D01*
X0443280Y0031846D01*
X0443280Y0028964D01*
X0424733Y0047511D01*
X0423777Y0047907D01*
X0407666Y0047907D01*
X0407581Y0048113D01*
X0406287Y0049407D01*
X0404596Y0050107D01*
X0396766Y0050107D01*
X0395075Y0049407D01*
X0393781Y0048113D01*
X0393081Y0046422D01*
X0393081Y0044592D01*
X0393781Y0042901D01*
X0395075Y0041607D01*
X0396766Y0040907D01*
X0404596Y0040907D01*
X0406287Y0041607D01*
X0407387Y0042707D01*
X0422183Y0042707D01*
X0440741Y0024149D01*
X0441392Y0023498D01*
X0439297Y0023498D01*
X0426251Y0036544D01*
X0425520Y0037275D01*
X0424564Y0037671D01*
X0407764Y0037671D01*
X0407581Y0038113D01*
X0406287Y0039407D01*
X0404596Y0040107D01*
X0396766Y0040107D01*
X0395075Y0039407D01*
X0393781Y0038113D01*
X0393081Y0036422D01*
X0393081Y0034592D01*
X0393781Y0032901D01*
X0395075Y0031607D01*
X0396766Y0030907D01*
X0404596Y0030907D01*
X0406287Y0031607D01*
X0407150Y0032471D01*
X0422970Y0032471D01*
X0436016Y0019425D01*
X0436668Y0018773D01*
X0434573Y0018773D01*
X0425520Y0027826D01*
X0424564Y0028222D01*
X0407471Y0028222D01*
X0406287Y0029407D01*
X0404596Y0030107D01*
X0396766Y0030107D01*
X0395075Y0029407D01*
X0393781Y0028113D01*
X0393081Y0026422D01*
X0393081Y0024592D01*
X0393781Y0022901D01*
X0395075Y0021607D01*
X0396766Y0020907D01*
X0404596Y0020907D01*
X0406287Y0021607D01*
X0407581Y0022901D01*
X0407631Y0023022D01*
X0422970Y0023022D01*
X0431292Y0014700D01*
X0433496Y0016173D02*
X0513811Y0016173D01*
X0529559Y0031921D01*
X0533173Y0031494D02*
X0533359Y0031494D01*
X0533359Y0033492D02*
X0533173Y0033492D01*
X0533359Y0035451D02*
X0533359Y0028614D01*
X0534296Y0027677D01*
X0539637Y0027677D01*
X0540574Y0028614D01*
X0540574Y0035451D01*
X0539849Y0036176D01*
X0539849Y0036730D01*
X0540560Y0036730D01*
X0541497Y0037668D01*
X0541497Y0044111D01*
X0540782Y0044827D01*
X0541497Y0045542D01*
X0541497Y0051985D01*
X0540560Y0052923D01*
X0532935Y0052923D01*
X0531998Y0051985D01*
X0531998Y0045542D01*
X0532713Y0044827D01*
X0531998Y0044111D01*
X0531998Y0037668D01*
X0532935Y0036730D01*
X0534649Y0036730D01*
X0534649Y0036388D01*
X0534296Y0036388D01*
X0533359Y0035451D01*
X0533398Y0035491D02*
X0533133Y0035491D01*
X0532176Y0037489D02*
X0513843Y0037489D01*
X0514039Y0037685D02*
X0514039Y0044129D01*
X0513323Y0044844D01*
X0514039Y0045559D01*
X0514039Y0052003D01*
X0513101Y0052940D01*
X0505477Y0052940D01*
X0504539Y0052003D01*
X0504539Y0045559D01*
X0505255Y0044844D01*
X0504539Y0044129D01*
X0504539Y0037685D01*
X0505477Y0036748D01*
X0506980Y0036748D01*
X0506980Y0036388D01*
X0506737Y0036388D01*
X0505800Y0035451D01*
X0505800Y0028614D01*
X0506737Y0027677D01*
X0512078Y0027677D01*
X0513015Y0028614D01*
X0513015Y0035451D01*
X0512180Y0036287D01*
X0512180Y0036748D01*
X0513101Y0036748D01*
X0514039Y0037685D01*
X0514039Y0039488D02*
X0531998Y0039488D01*
X0531998Y0041487D02*
X0514039Y0041487D01*
X0514039Y0043485D02*
X0531998Y0043485D01*
X0532056Y0045484D02*
X0513963Y0045484D01*
X0514039Y0047482D02*
X0531998Y0047482D01*
X0531998Y0049481D02*
X0514039Y0049481D01*
X0514039Y0051479D02*
X0531998Y0051479D01*
X0536832Y0048919D02*
X0536832Y0055519D01*
X0541497Y0051479D02*
X0565264Y0051479D01*
X0565264Y0049481D02*
X0541497Y0049481D01*
X0541497Y0047482D02*
X0565264Y0047482D01*
X0565264Y0045484D02*
X0541439Y0045484D01*
X0541497Y0043485D02*
X0565264Y0043485D01*
X0565264Y0041487D02*
X0541497Y0041487D01*
X0541497Y0039488D02*
X0565264Y0039488D01*
X0565264Y0037489D02*
X0541319Y0037489D01*
X0540534Y0035491D02*
X0565264Y0035491D01*
X0565264Y0033492D02*
X0540574Y0033492D01*
X0540574Y0031494D02*
X0565264Y0031494D01*
X0565264Y0029495D02*
X0540574Y0029495D01*
X0537249Y0032150D02*
X0537249Y0040527D01*
X0537331Y0040609D01*
X0525997Y0035491D02*
X0512975Y0035491D01*
X0513015Y0033492D02*
X0525957Y0033492D01*
X0525455Y0031494D02*
X0513015Y0031494D01*
X0513015Y0029495D02*
X0523456Y0029495D01*
X0521458Y0027497D02*
X0501253Y0027497D01*
X0499254Y0025498D02*
X0519459Y0025498D01*
X0517461Y0023500D02*
X0497256Y0023500D01*
X0495257Y0021501D02*
X0515462Y0021501D01*
X0513464Y0019503D02*
X0493259Y0019503D01*
X0490976Y0020898D02*
X0502000Y0031921D01*
X0505614Y0031494D02*
X0505800Y0031494D01*
X0505800Y0033492D02*
X0505614Y0033492D01*
X0505574Y0035491D02*
X0505839Y0035491D01*
X0504735Y0037489D02*
X0486284Y0037489D01*
X0486479Y0037685D02*
X0486479Y0044129D01*
X0485764Y0044844D01*
X0486479Y0045559D01*
X0486479Y0052003D01*
X0485542Y0052940D01*
X0477918Y0052940D01*
X0476980Y0052003D01*
X0476980Y0045559D01*
X0477695Y0044844D01*
X0476980Y0044129D01*
X0476980Y0037685D01*
X0477918Y0036748D01*
X0479229Y0036748D01*
X0479229Y0036388D01*
X0479178Y0036388D01*
X0478240Y0035451D01*
X0478240Y0028614D01*
X0479178Y0027677D01*
X0484519Y0027677D01*
X0485456Y0028614D01*
X0485456Y0035451D01*
X0484519Y0036388D01*
X0484429Y0036388D01*
X0484429Y0036748D01*
X0485542Y0036748D01*
X0486479Y0037685D01*
X0486479Y0039488D02*
X0504539Y0039488D01*
X0504539Y0041487D02*
X0486479Y0041487D01*
X0486479Y0043485D02*
X0504539Y0043485D01*
X0504615Y0045484D02*
X0486404Y0045484D01*
X0486479Y0047482D02*
X0504539Y0047482D01*
X0504539Y0049481D02*
X0486479Y0049481D01*
X0486479Y0051479D02*
X0504539Y0051479D01*
X0509232Y0049244D02*
X0509232Y0055519D01*
X0509251Y0040938D02*
X0509580Y0040609D01*
X0509580Y0032150D01*
X0505800Y0029495D02*
X0505614Y0029495D01*
X0497896Y0031494D02*
X0485456Y0031494D01*
X0485456Y0033492D02*
X0498398Y0033492D01*
X0498438Y0035491D02*
X0485416Y0035491D01*
X0481911Y0031904D02*
X0481829Y0031986D01*
X0481829Y0040938D01*
X0476980Y0041487D02*
X0458920Y0041487D01*
X0458920Y0043485D02*
X0476980Y0043485D01*
X0477056Y0045484D02*
X0458845Y0045484D01*
X0458920Y0047482D02*
X0476980Y0047482D01*
X0476980Y0049481D02*
X0458920Y0049481D01*
X0458920Y0051479D02*
X0476980Y0051479D01*
X0481528Y0049244D02*
X0481528Y0055543D01*
X0476980Y0039488D02*
X0458920Y0039488D01*
X0458725Y0037489D02*
X0477176Y0037489D01*
X0478015Y0035491D02*
X0478280Y0035491D01*
X0478240Y0033492D02*
X0478055Y0033492D01*
X0478055Y0031494D02*
X0478240Y0031494D01*
X0478240Y0029495D02*
X0478055Y0029495D01*
X0474441Y0031134D02*
X0468929Y0025622D01*
X0442945Y0025622D01*
X0423260Y0045307D01*
X0400425Y0045307D01*
X0395367Y0041487D02*
X0345618Y0041487D01*
X0345637Y0041441D02*
X0344937Y0043132D01*
X0343643Y0044426D01*
X0341952Y0045126D01*
X0334122Y0045126D01*
X0332431Y0044426D01*
X0331200Y0043195D01*
X0327204Y0043195D01*
X0318774Y0051625D01*
X0322494Y0051625D01*
X0325058Y0049061D01*
X0325790Y0048330D01*
X0326745Y0047934D01*
X0331132Y0047934D01*
X0331137Y0047920D01*
X0332431Y0046626D01*
X0334122Y0045926D01*
X0341952Y0045926D01*
X0343643Y0046626D01*
X0344937Y0047920D01*
X0345637Y0049611D01*
X0345637Y0051441D01*
X0344937Y0053132D01*
X0343643Y0054426D01*
X0341952Y0055126D01*
X0334122Y0055126D01*
X0332431Y0054426D01*
X0331139Y0053134D01*
X0328339Y0053134D01*
X0325043Y0056430D01*
X0324088Y0056825D01*
X0287297Y0056825D01*
X0287028Y0057094D01*
X0285784Y0057610D01*
X0284438Y0057610D01*
X0283850Y0057366D01*
X0284565Y0058081D01*
X0287826Y0058081D01*
X0288019Y0057888D01*
X0289263Y0057372D01*
X0290609Y0057372D01*
X0291853Y0057888D01*
X0292047Y0058081D01*
X0331071Y0058081D01*
X0331137Y0057920D01*
X0332431Y0056626D01*
X0334122Y0055926D01*
X0341952Y0055926D01*
X0343643Y0056626D01*
X0344937Y0057920D01*
X0345637Y0059611D01*
X0345637Y0061441D01*
X0344937Y0063132D01*
X0343643Y0064426D01*
X0341952Y0065126D01*
X0334122Y0065126D01*
X0332431Y0064426D01*
X0331287Y0063281D01*
X0292198Y0063281D01*
X0291853Y0063626D01*
X0290609Y0064141D01*
X0289263Y0064141D01*
X0288019Y0063626D01*
X0287675Y0063281D01*
X0282971Y0063281D01*
X0282016Y0062885D01*
X0280564Y0061434D01*
X0279233Y0061434D01*
X0279233Y0061707D01*
X0278295Y0062644D01*
X0271458Y0062644D01*
X0270521Y0061707D01*
X0270521Y0056825D01*
X0269784Y0056825D01*
X0269784Y0061707D01*
X0268846Y0062644D01*
X0262009Y0062644D01*
X0261072Y0061707D01*
X0261072Y0057249D01*
X0260335Y0057986D01*
X0260335Y0061707D01*
X0259398Y0062644D01*
X0252560Y0062644D01*
X0251623Y0061707D01*
X0251623Y0057757D01*
X0250886Y0058494D01*
X0250886Y0061707D01*
X0249949Y0062644D01*
X0243112Y0062644D01*
X0242174Y0061707D01*
X0242174Y0056366D01*
X0243112Y0055429D01*
X0246597Y0055429D01*
X0257935Y0044091D01*
X0258263Y0043763D01*
X0256314Y0043763D01*
X0250741Y0043776D01*
X0247178Y0047328D01*
X0242891Y0051614D01*
X0242888Y0051622D01*
X0242526Y0051980D01*
X0242167Y0052339D01*
X0242158Y0052342D01*
X0239644Y0054822D01*
X0239646Y0055429D01*
X0240500Y0055429D01*
X0241437Y0056366D01*
X0241437Y0061707D01*
X0240500Y0062644D01*
X0239202Y0062644D01*
X0238753Y0062830D01*
X0240500Y0062830D01*
X0241437Y0063767D01*
X0241437Y0069109D01*
X0240500Y0070046D01*
X0233663Y0070046D01*
X0232725Y0069109D01*
X0232725Y0063767D01*
X0233413Y0063080D01*
X0080811Y0063080D01*
X0079488Y0062532D01*
X0078476Y0061520D01*
X0065090Y0048134D01*
X0064542Y0046811D01*
X0064542Y0043264D01*
X0062274Y0040996D01*
X0062274Y0036150D01*
X0065701Y0032723D01*
X0070547Y0032723D01*
X0073974Y0036150D01*
X0073974Y0040996D01*
X0071742Y0043228D01*
X0071742Y0044603D01*
X0083019Y0055880D01*
X0233211Y0055880D01*
X0233663Y0055429D01*
X0234446Y0055429D01*
X0234441Y0054253D01*
X0234436Y0054239D01*
X0234439Y0053736D01*
X0234437Y0053233D01*
X0234443Y0053219D01*
X0234443Y0053205D01*
X0234639Y0052741D01*
X0234829Y0052276D01*
X0234840Y0052265D01*
X0234845Y0052252D01*
X0235204Y0051898D01*
X0235558Y0051541D01*
X0235571Y0051536D01*
X0238861Y0048290D01*
X0243136Y0044016D01*
X0243137Y0044014D01*
X0243499Y0043652D01*
X0243866Y0043286D01*
X0243868Y0043285D01*
X0247541Y0039624D01*
X0239526Y0039624D01*
X0238589Y0038686D01*
X0238589Y0031849D01*
X0239526Y0030912D01*
X0245002Y0030912D01*
X0246995Y0028919D01*
X0198991Y0028919D01*
X0194939Y0032972D01*
X0194939Y0038686D01*
X0194001Y0039624D01*
X0184408Y0039624D01*
X0183471Y0038686D01*
X0183471Y0031849D01*
X0184408Y0030912D01*
X0189645Y0030912D01*
X0195325Y0025231D01*
X0148029Y0025231D01*
X0139820Y0033440D01*
X0139820Y0038686D01*
X0138883Y0039624D01*
X0129290Y0039624D01*
X0128353Y0038686D01*
X0128353Y0031849D01*
X0129290Y0030912D01*
X0134994Y0030912D01*
X0144747Y0021159D01*
X0145479Y0020427D01*
X0146434Y0020031D01*
X0147644Y0020031D01*
X0147644Y0014133D01*
X0148581Y0013195D01*
X0158175Y0013195D01*
X0159112Y0014133D01*
X0159112Y0020031D01*
X0183471Y0020031D01*
X0183471Y0014133D01*
X0184408Y0013195D01*
X0194001Y0013195D01*
X0194939Y0014133D01*
X0194939Y0020031D01*
X0202762Y0020031D01*
X0202762Y0014133D01*
X0203699Y0013195D01*
X0213293Y0013195D01*
X0214230Y0014133D01*
X0214230Y0020031D01*
X0238589Y0020031D01*
X0238589Y0014133D01*
X0239526Y0013195D01*
X0249119Y0013195D01*
X0250057Y0014133D01*
X0250057Y0020031D01*
X0257880Y0020031D01*
X0257880Y0014133D01*
X0258818Y0013195D01*
X0268411Y0013195D01*
X0269348Y0014133D01*
X0269348Y0020031D01*
X0272576Y0020031D01*
X0272808Y0019800D01*
X0274052Y0019284D01*
X0275398Y0019284D01*
X0276642Y0019800D01*
X0277594Y0020752D01*
X0278109Y0021996D01*
X0278109Y0023281D01*
X0279040Y0022896D01*
X0280386Y0022896D01*
X0281630Y0023411D01*
X0282582Y0024363D01*
X0283097Y0025607D01*
X0283097Y0026953D01*
X0282940Y0027333D01*
X0283090Y0027333D01*
X0283259Y0027164D01*
X0284503Y0026649D01*
X0285849Y0026649D01*
X0287093Y0027164D01*
X0288045Y0028116D01*
X0288560Y0029360D01*
X0288560Y0030707D01*
X0288045Y0031950D01*
X0287093Y0032902D01*
X0285849Y0033418D01*
X0284503Y0033418D01*
X0283259Y0032902D01*
X0282889Y0032533D01*
X0269348Y0032533D01*
X0269348Y0038563D01*
X0293707Y0038563D01*
X0293707Y0037542D01*
X0292206Y0037542D01*
X0291890Y0037858D01*
X0290646Y0038373D01*
X0289300Y0038373D01*
X0288056Y0037858D01*
X0287104Y0036906D01*
X0286589Y0035662D01*
X0286589Y0034316D01*
X0287104Y0033072D01*
X0288056Y0032120D01*
X0289300Y0031605D01*
X0290646Y0031605D01*
X0291890Y0032120D01*
X0292113Y0032342D01*
X0293707Y0032342D01*
X0293707Y0031849D01*
X0294644Y0030912D01*
X0304238Y0030912D01*
X0305175Y0031849D01*
X0305175Y0036864D01*
X0322937Y0019102D01*
X0323669Y0018370D01*
X0324624Y0017975D01*
X0331115Y0017975D01*
X0331137Y0017920D01*
X0332431Y0016626D01*
X0334122Y0015926D01*
X0341952Y0015926D01*
X0343643Y0016626D01*
X0344937Y0017920D01*
X0345637Y0019611D01*
X0345637Y0021441D01*
X0344937Y0023132D01*
X0343643Y0024426D01*
X0341952Y0025126D01*
X0334122Y0025126D01*
X0332431Y0024426D01*
X0331180Y0023175D01*
X0326218Y0023175D01*
X0306429Y0042964D01*
X0310571Y0042964D01*
X0324636Y0028899D01*
X0325367Y0028167D01*
X0326323Y0027772D01*
X0331286Y0027772D01*
X0332431Y0026626D01*
X0334122Y0025926D01*
X0341952Y0025926D01*
X0343643Y0026626D01*
X0344937Y0027920D01*
X0345637Y0029611D01*
X0345637Y0031441D01*
X0344937Y0033132D01*
X0343643Y0034426D01*
X0341952Y0035126D01*
X0334122Y0035126D01*
X0332431Y0034426D01*
X0331137Y0033132D01*
X0331071Y0032972D01*
X0327917Y0032972D01*
X0313665Y0047224D01*
X0315821Y0047224D01*
X0323923Y0039122D01*
X0324655Y0038390D01*
X0325610Y0037995D01*
X0331106Y0037995D01*
X0331137Y0037920D01*
X0332431Y0036626D01*
X0334122Y0035926D01*
X0341952Y0035926D01*
X0343643Y0036626D01*
X0344937Y0037920D01*
X0345637Y0039611D01*
X0345637Y0041441D01*
X0345586Y0039488D02*
X0395272Y0039488D01*
X0393523Y0037489D02*
X0344506Y0037489D01*
X0344576Y0033492D02*
X0393536Y0033492D01*
X0393081Y0035491D02*
X0325398Y0035491D01*
X0327396Y0033492D02*
X0331498Y0033492D01*
X0331568Y0037489D02*
X0323399Y0037489D01*
X0323557Y0039488D02*
X0321401Y0039488D01*
X0321559Y0041487D02*
X0319402Y0041487D01*
X0319560Y0043485D02*
X0317404Y0043485D01*
X0317561Y0045484D02*
X0315405Y0045484D01*
X0311648Y0045564D02*
X0326840Y0030372D01*
X0338474Y0030372D01*
X0344513Y0027497D02*
X0393526Y0027497D01*
X0393081Y0025498D02*
X0323894Y0025498D01*
X0325893Y0023500D02*
X0331506Y0023500D01*
X0331561Y0027497D02*
X0321896Y0027497D01*
X0319897Y0029495D02*
X0324039Y0029495D01*
X0322041Y0031494D02*
X0317899Y0031494D01*
X0315900Y0033492D02*
X0320042Y0033492D01*
X0318044Y0035491D02*
X0313902Y0035491D01*
X0311903Y0037489D02*
X0316045Y0037489D01*
X0314047Y0039488D02*
X0309905Y0039488D01*
X0307906Y0041487D02*
X0312048Y0041487D01*
X0311648Y0045564D02*
X0274751Y0045564D01*
X0260139Y0045564D01*
X0246792Y0058911D01*
X0246785Y0062826D02*
X0275946Y0062826D01*
X0275957Y0062830D01*
X0278295Y0062830D01*
X0279233Y0063767D01*
X0279233Y0069109D01*
X0278295Y0070046D01*
X0271458Y0070046D01*
X0271438Y0070026D01*
X0268867Y0070026D01*
X0268846Y0070046D01*
X0262009Y0070046D01*
X0261989Y0070026D01*
X0259418Y0070026D01*
X0259398Y0070046D01*
X0252560Y0070046D01*
X0252540Y0070026D01*
X0249969Y0070026D01*
X0249949Y0070046D01*
X0249727Y0070046D01*
X0249727Y0223310D01*
X0290458Y0264042D01*
X0328012Y0264042D01*
X0329519Y0264666D01*
X0360047Y0295194D01*
X0366690Y0295194D01*
X0367277Y0293776D01*
X0368571Y0292482D01*
X0370262Y0291782D01*
X0372092Y0291782D01*
X0373783Y0292482D01*
X0375077Y0293776D01*
X0375664Y0295194D01*
X0376690Y0295194D01*
X0377277Y0293776D01*
X0378571Y0292482D01*
X0380262Y0291782D01*
X0382092Y0291782D01*
X0383783Y0292482D01*
X0385077Y0293776D01*
X0385664Y0295194D01*
X0386690Y0295194D01*
X0387277Y0293776D01*
X0388571Y0292482D01*
X0390262Y0291782D01*
X0392092Y0291782D01*
X0393783Y0292482D01*
X0395077Y0293776D01*
X0395664Y0295194D01*
X0396690Y0295194D01*
X0397277Y0293776D01*
X0398571Y0292482D01*
X0400262Y0291782D01*
X0402092Y0291782D01*
X0403783Y0292482D01*
X0405077Y0293776D01*
X0405777Y0295467D01*
X0405777Y0297421D01*
X0406215Y0298478D01*
X0406215Y0300109D01*
X0405777Y0301167D01*
X0405777Y0303297D01*
X0405077Y0304988D01*
X0403783Y0306282D01*
X0402092Y0306982D01*
X0400262Y0306982D01*
X0398571Y0306282D01*
X0397277Y0304988D01*
X0396617Y0303394D01*
X0395737Y0303394D01*
X0395077Y0304988D01*
X0393783Y0306282D01*
X0392092Y0306982D01*
X0390262Y0306982D01*
X0388571Y0306282D01*
X0387277Y0304988D01*
X0386617Y0303394D01*
X0385737Y0303394D01*
X0385077Y0304988D01*
X0383783Y0306282D01*
X0382092Y0306982D01*
X0380262Y0306982D01*
X0378571Y0306282D01*
X0377277Y0304988D01*
X0376617Y0303394D01*
X0375737Y0303394D01*
X0375077Y0304988D01*
X0373783Y0306282D01*
X0372092Y0306982D01*
X0370262Y0306982D01*
X0368571Y0306282D01*
X0367277Y0304988D01*
X0366617Y0303394D01*
X0357533Y0303394D01*
X0356026Y0302770D01*
X0354873Y0301616D01*
X0325499Y0272242D01*
X0140175Y0272242D01*
X0138668Y0271618D01*
X0137515Y0270464D01*
X0106828Y0239778D01*
X0082919Y0239778D01*
X0081955Y0240177D01*
X0080138Y0240177D01*
X0078459Y0239482D01*
X0077679Y0238702D01*
X0069718Y0238702D01*
X0068941Y0239480D01*
X0067250Y0240180D01*
X0059420Y0240180D01*
X0057729Y0239480D01*
X0056435Y0238186D01*
X0055735Y0236495D01*
X0055735Y0234665D01*
X0056435Y0232974D01*
X0057729Y0231680D01*
X0059420Y0230980D01*
X0067250Y0230980D01*
X0068941Y0231680D01*
X0069562Y0232302D01*
X0077893Y0232302D01*
X0078459Y0231736D01*
X0080138Y0231040D01*
X0081955Y0231040D01*
X0083254Y0231578D01*
X0109342Y0231578D01*
X0110849Y0232202D01*
X0134797Y0256150D01*
X0134797Y0254365D01*
X0135748Y0252068D01*
X0137506Y0250310D01*
X0138983Y0249699D01*
X0138459Y0249482D01*
X0137174Y0248196D01*
X0136478Y0246517D01*
X0136478Y0244700D01*
X0137174Y0243021D01*
X0138459Y0241736D01*
X0140138Y0241040D01*
X0141955Y0241040D01*
X0143635Y0241736D01*
X0144299Y0242400D01*
X0152412Y0242400D01*
X0153133Y0241680D01*
X0154823Y0240980D01*
X0162653Y0240980D01*
X0164344Y0241680D01*
X0165638Y0242974D01*
X0166338Y0244665D01*
X0166338Y0246495D01*
X0165638Y0248186D01*
X0164344Y0249480D01*
X0162653Y0250180D01*
X0154823Y0250180D01*
X0153133Y0249480D01*
X0152453Y0248800D01*
X0144316Y0248800D01*
X0143635Y0249482D01*
X0143111Y0249699D01*
X0144587Y0250310D01*
X0146345Y0252068D01*
X0147297Y0254365D01*
X0147297Y0256852D01*
X0146345Y0259149D01*
X0144587Y0260907D01*
X0142290Y0261859D01*
X0140506Y0261859D01*
X0142689Y0264042D01*
X0280276Y0264042D01*
X0244088Y0227853D01*
X0243075Y0226841D01*
X0242527Y0225517D01*
X0242527Y0069461D01*
X0242174Y0069109D01*
X0242174Y0063767D01*
X0243112Y0062830D01*
X0246774Y0062830D01*
X0246785Y0062826D01*
X0250886Y0061472D02*
X0251623Y0061472D01*
X0251623Y0059473D02*
X0250886Y0059473D01*
X0256017Y0058627D02*
X0264820Y0049824D01*
X0279576Y0049824D01*
X0316898Y0049824D01*
X0326127Y0040595D01*
X0338190Y0040595D01*
X0344583Y0043485D02*
X0393540Y0043485D01*
X0393081Y0045484D02*
X0324915Y0045484D01*
X0322917Y0047482D02*
X0331575Y0047482D01*
X0331491Y0043485D02*
X0326914Y0043485D01*
X0324638Y0049481D02*
X0320918Y0049481D01*
X0322640Y0051479D02*
X0318920Y0051479D01*
X0323571Y0054225D02*
X0327262Y0050534D01*
X0338474Y0050534D01*
X0344499Y0047482D02*
X0393520Y0047482D01*
X0395254Y0049481D02*
X0345583Y0049481D01*
X0345621Y0051479D02*
X0395385Y0051479D01*
X0393543Y0053478D02*
X0344591Y0053478D01*
X0344491Y0057475D02*
X0393517Y0057475D01*
X0393081Y0055476D02*
X0325997Y0055476D01*
X0323571Y0054225D02*
X0285111Y0054225D01*
X0267655Y0054225D01*
X0265668Y0056212D01*
X0265668Y0059053D01*
X0269784Y0059473D02*
X0270521Y0059473D01*
X0270521Y0057475D02*
X0269784Y0057475D01*
X0269784Y0061472D02*
X0270521Y0061472D01*
X0274868Y0058834D02*
X0281641Y0058834D01*
X0283488Y0060681D01*
X0338492Y0060681D01*
X0344598Y0063470D02*
X0565264Y0063470D01*
X0565264Y0061472D02*
X0345624Y0061472D01*
X0345580Y0059473D02*
X0395236Y0059473D01*
X0400795Y0055423D02*
X0423381Y0055423D01*
X0446882Y0031921D01*
X0443280Y0031494D02*
X0440750Y0031494D01*
X0441634Y0033492D02*
X0438751Y0033492D01*
X0439635Y0035491D02*
X0436753Y0035491D01*
X0437637Y0037489D02*
X0434754Y0037489D01*
X0435638Y0039488D02*
X0432756Y0039488D01*
X0433640Y0041487D02*
X0430757Y0041487D01*
X0431641Y0043485D02*
X0428759Y0043485D01*
X0429643Y0045484D02*
X0426760Y0045484D01*
X0427644Y0047482D02*
X0424762Y0047482D01*
X0425646Y0049481D02*
X0406108Y0049481D01*
X0405978Y0051479D02*
X0423647Y0051479D01*
X0427004Y0055476D02*
X0565264Y0055476D01*
X0565264Y0053478D02*
X0429003Y0053478D01*
X0431001Y0051479D02*
X0449421Y0051479D01*
X0449421Y0049481D02*
X0433000Y0049481D01*
X0434998Y0047482D02*
X0449421Y0047482D01*
X0449497Y0045484D02*
X0436997Y0045484D01*
X0438995Y0043485D02*
X0449421Y0043485D01*
X0449421Y0041487D02*
X0440994Y0041487D01*
X0442992Y0039488D02*
X0449421Y0039488D01*
X0449617Y0037489D02*
X0444991Y0037489D01*
X0450456Y0035491D02*
X0450721Y0035491D01*
X0450681Y0033492D02*
X0450496Y0033492D01*
X0450496Y0031494D02*
X0450681Y0031494D01*
X0450681Y0029495D02*
X0450496Y0029495D01*
X0453969Y0031921D02*
X0453969Y0041047D01*
X0453913Y0041102D01*
X0457857Y0035491D02*
X0470879Y0035491D01*
X0470839Y0033492D02*
X0457897Y0033492D01*
X0457897Y0031494D02*
X0470839Y0031494D01*
X0469126Y0029495D02*
X0457897Y0029495D01*
X0470484Y0023500D02*
X0489902Y0023500D01*
X0490976Y0020898D02*
X0438220Y0020898D01*
X0424047Y0035071D01*
X0400425Y0035071D01*
X0395349Y0031494D02*
X0345615Y0031494D01*
X0345589Y0029495D02*
X0395290Y0029495D01*
X0393533Y0023500D02*
X0344568Y0023500D01*
X0345612Y0021501D02*
X0395331Y0021501D01*
X0400425Y0025622D02*
X0424047Y0025622D01*
X0433496Y0016173D01*
X0433843Y0019503D02*
X0435938Y0019503D01*
X0436016Y0019425D02*
X0436016Y0019425D01*
X0433940Y0021501D02*
X0431845Y0021501D01*
X0431941Y0023500D02*
X0429846Y0023500D01*
X0429943Y0025498D02*
X0427848Y0025498D01*
X0427944Y0027497D02*
X0425849Y0027497D01*
X0425946Y0029495D02*
X0406072Y0029495D01*
X0406013Y0031494D02*
X0423947Y0031494D01*
X0427304Y0035491D02*
X0429399Y0035491D01*
X0429303Y0033492D02*
X0431398Y0033492D01*
X0431301Y0031494D02*
X0433396Y0031494D01*
X0433300Y0029495D02*
X0435395Y0029495D01*
X0435298Y0027497D02*
X0437393Y0027497D01*
X0437297Y0025498D02*
X0439392Y0025498D01*
X0439295Y0023500D02*
X0441390Y0023500D01*
X0442748Y0029495D02*
X0443280Y0029495D01*
X0427400Y0037489D02*
X0425002Y0037489D01*
X0426251Y0036544D02*
X0426251Y0036544D01*
X0425402Y0039488D02*
X0406090Y0039488D01*
X0405995Y0041487D02*
X0423403Y0041487D01*
X0425005Y0057475D02*
X0565264Y0057475D01*
X0565264Y0059473D02*
X0406126Y0059473D01*
X0453969Y0055543D02*
X0453969Y0049244D01*
X0474481Y0027497D02*
X0493899Y0027497D01*
X0495897Y0029495D02*
X0485456Y0029495D01*
X0491900Y0025498D02*
X0472482Y0025498D01*
X0516821Y0015506D02*
X0563554Y0015506D01*
X0564589Y0017504D02*
X0518819Y0017504D01*
X0520818Y0019503D02*
X0565125Y0019503D01*
X0565264Y0021501D02*
X0522816Y0021501D01*
X0524815Y0023500D02*
X0565264Y0023500D01*
X0565264Y0025498D02*
X0526813Y0025498D01*
X0528812Y0027497D02*
X0565264Y0027497D01*
X0533359Y0029495D02*
X0533173Y0029495D01*
X0565264Y0065469D02*
X0279233Y0065469D01*
X0279233Y0067467D02*
X0565264Y0067467D01*
X0565264Y0069466D02*
X0278876Y0069466D01*
X0278935Y0063470D02*
X0287864Y0063470D01*
X0292009Y0063470D02*
X0331476Y0063470D01*
X0331583Y0057475D02*
X0290856Y0057475D01*
X0289017Y0057475D02*
X0286110Y0057475D01*
X0284112Y0057475D02*
X0283959Y0057475D01*
X0280602Y0061472D02*
X0279233Y0061472D01*
X0261072Y0061472D02*
X0260335Y0061472D01*
X0260335Y0059473D02*
X0261072Y0059473D01*
X0261072Y0057475D02*
X0260846Y0057475D01*
X0250547Y0051479D02*
X0243026Y0051479D01*
X0240694Y0050135D02*
X0237039Y0053740D01*
X0237064Y0059621D01*
X0241437Y0059473D02*
X0242174Y0059473D01*
X0242174Y0057475D02*
X0241437Y0057475D01*
X0240547Y0055476D02*
X0243064Y0055476D01*
X0241007Y0053478D02*
X0248548Y0053478D01*
X0245025Y0049481D02*
X0252545Y0049481D01*
X0254544Y0047482D02*
X0247024Y0047482D01*
X0245339Y0045490D02*
X0240694Y0050135D01*
X0239670Y0047482D02*
X0074620Y0047482D01*
X0072622Y0045484D02*
X0241668Y0045484D01*
X0243667Y0043485D02*
X0071742Y0043485D01*
X0073483Y0041487D02*
X0245672Y0041487D01*
X0249664Y0041179D02*
X0245339Y0045490D01*
X0249028Y0045484D02*
X0256542Y0045484D01*
X0256309Y0041163D02*
X0249664Y0041179D01*
X0256309Y0041163D02*
X0304553Y0041163D01*
X0325141Y0020575D01*
X0338474Y0020575D01*
X0338231Y0020118D02*
X0338061Y0019948D01*
X0344521Y0017504D02*
X0428488Y0017504D01*
X0426489Y0019503D02*
X0345592Y0019503D01*
X0331553Y0017504D02*
X0305175Y0017504D01*
X0305150Y0017691D02*
X0293925Y0017691D01*
X0293707Y0017504D02*
X0269348Y0017504D01*
X0269348Y0015506D02*
X0293707Y0015506D01*
X0294332Y0013507D02*
X0268723Y0013507D01*
X0269348Y0019503D02*
X0273524Y0019503D01*
X0275925Y0019503D02*
X0293707Y0019503D01*
X0294239Y0021501D02*
X0277904Y0021501D01*
X0274746Y0022631D02*
X0146952Y0022631D01*
X0134270Y0035313D01*
X0139820Y0035491D02*
X0147644Y0035491D01*
X0147644Y0037489D02*
X0139820Y0037489D01*
X0139019Y0039488D02*
X0148446Y0039488D01*
X0148581Y0039624D02*
X0147644Y0038686D01*
X0147644Y0031849D01*
X0148581Y0030912D01*
X0158175Y0030912D01*
X0159112Y0031849D01*
X0159112Y0038686D01*
X0158175Y0039624D01*
X0148581Y0039624D01*
X0147644Y0033492D02*
X0139820Y0033492D01*
X0141766Y0031494D02*
X0147999Y0031494D01*
X0145763Y0027497D02*
X0193059Y0027497D01*
X0191061Y0029495D02*
X0143765Y0029495D01*
X0140408Y0025498D02*
X0010812Y0025498D01*
X0010812Y0023500D02*
X0142406Y0023500D01*
X0144405Y0021501D02*
X0139289Y0021501D01*
X0138883Y0021907D02*
X0129290Y0021907D01*
X0128353Y0020970D01*
X0128353Y0014133D01*
X0129290Y0013195D01*
X0138883Y0013195D01*
X0139820Y0014133D01*
X0139820Y0020970D01*
X0138883Y0021907D01*
X0139820Y0019503D02*
X0147644Y0019503D01*
X0147644Y0017504D02*
X0139820Y0017504D01*
X0139795Y0017691D02*
X0128571Y0017691D01*
X0128353Y0017504D02*
X0103994Y0017504D01*
X0103994Y0015506D02*
X0128353Y0015506D01*
X0128978Y0013507D02*
X0103369Y0013507D01*
X0103994Y0019503D02*
X0128353Y0019503D01*
X0128884Y0021501D02*
X0103462Y0021501D01*
X0093058Y0021501D02*
X0010812Y0021501D01*
X0010965Y0019503D02*
X0092526Y0019503D01*
X0092526Y0017504D02*
X0011500Y0017504D01*
X0010812Y0027497D02*
X0138409Y0027497D01*
X0136411Y0029495D02*
X0010812Y0029495D01*
X0010812Y0031494D02*
X0092881Y0031494D01*
X0092526Y0031849D02*
X0093463Y0030912D01*
X0103056Y0030912D01*
X0103994Y0031849D01*
X0103994Y0038686D01*
X0103056Y0039624D01*
X0093463Y0039624D01*
X0092526Y0038686D01*
X0092526Y0031849D01*
X0092526Y0033492D02*
X0071317Y0033492D01*
X0073315Y0035491D02*
X0092526Y0035491D01*
X0092526Y0037489D02*
X0073974Y0037489D01*
X0073974Y0039488D02*
X0093328Y0039488D01*
X0103192Y0039488D02*
X0129154Y0039488D01*
X0128353Y0037489D02*
X0103994Y0037489D01*
X0103994Y0035491D02*
X0128353Y0035491D01*
X0128353Y0033492D02*
X0103994Y0033492D01*
X0103639Y0031494D02*
X0128708Y0031494D01*
X0134182Y0021530D02*
X0134182Y0013455D01*
X0139195Y0013507D02*
X0148269Y0013507D01*
X0147644Y0015506D02*
X0139820Y0015506D01*
X0147762Y0025498D02*
X0195058Y0025498D01*
X0197914Y0026319D02*
X0279688Y0026319D01*
X0283052Y0025498D02*
X0316540Y0025498D01*
X0314542Y0027497D02*
X0287425Y0027497D01*
X0288560Y0029495D02*
X0312543Y0029495D01*
X0310545Y0031494D02*
X0304820Y0031494D01*
X0305175Y0033492D02*
X0308546Y0033492D01*
X0306548Y0035491D02*
X0305175Y0035491D01*
X0299146Y0034942D02*
X0290033Y0034942D01*
X0286930Y0033492D02*
X0269348Y0033492D01*
X0269348Y0035491D02*
X0286589Y0035491D01*
X0287688Y0037489D02*
X0269348Y0037489D01*
X0285271Y0029933D02*
X0249658Y0029933D01*
X0244520Y0035071D01*
X0238589Y0035491D02*
X0214230Y0035491D01*
X0214230Y0037489D02*
X0238589Y0037489D01*
X0239391Y0039488D02*
X0213428Y0039488D01*
X0213293Y0039624D02*
X0203699Y0039624D01*
X0202762Y0038686D01*
X0202762Y0031849D01*
X0203699Y0030912D01*
X0213293Y0030912D01*
X0214230Y0031849D01*
X0214230Y0038686D01*
X0213293Y0039624D01*
X0214230Y0033492D02*
X0238589Y0033492D01*
X0238944Y0031494D02*
X0213875Y0031494D01*
X0203117Y0031494D02*
X0196416Y0031494D01*
X0194939Y0033492D02*
X0202762Y0033492D01*
X0202762Y0035491D02*
X0194939Y0035491D01*
X0194939Y0037489D02*
X0202762Y0037489D01*
X0203564Y0039488D02*
X0194137Y0039488D01*
X0189045Y0035189D02*
X0197914Y0026319D01*
X0198415Y0029495D02*
X0246418Y0029495D01*
X0244418Y0019167D02*
X0244418Y0013455D01*
X0249431Y0013507D02*
X0258505Y0013507D01*
X0257880Y0015506D02*
X0250057Y0015506D01*
X0250057Y0017504D02*
X0257880Y0017504D01*
X0257880Y0019503D02*
X0250057Y0019503D01*
X0250031Y0017691D02*
X0238807Y0017691D01*
X0238589Y0017504D02*
X0214230Y0017504D01*
X0214230Y0015506D02*
X0238589Y0015506D01*
X0239214Y0013507D02*
X0213605Y0013507D01*
X0214230Y0019503D02*
X0238589Y0019503D01*
X0203387Y0013507D02*
X0194313Y0013507D01*
X0194939Y0015506D02*
X0202762Y0015506D01*
X0202762Y0017504D02*
X0194939Y0017504D01*
X0194913Y0017691D02*
X0183689Y0017691D01*
X0183471Y0017504D02*
X0159112Y0017504D01*
X0159112Y0015506D02*
X0183471Y0015506D01*
X0184096Y0013507D02*
X0158487Y0013507D01*
X0159112Y0019503D02*
X0183471Y0019503D01*
X0189300Y0019167D02*
X0189300Y0013455D01*
X0194939Y0019503D02*
X0202762Y0019503D01*
X0183826Y0031494D02*
X0158757Y0031494D01*
X0159112Y0033492D02*
X0183471Y0033492D01*
X0183471Y0035491D02*
X0159112Y0035491D01*
X0159112Y0037489D02*
X0183471Y0037489D01*
X0184273Y0039488D02*
X0158310Y0039488D01*
X0233615Y0055476D02*
X0082614Y0055476D01*
X0080616Y0053478D02*
X0234438Y0053478D01*
X0235629Y0051479D02*
X0078617Y0051479D01*
X0076619Y0049481D02*
X0237655Y0049481D01*
X0241437Y0061472D02*
X0242174Y0061472D01*
X0242472Y0063470D02*
X0241140Y0063470D01*
X0241437Y0065469D02*
X0242174Y0065469D01*
X0242174Y0067467D02*
X0241437Y0067467D01*
X0241080Y0069466D02*
X0242527Y0069466D01*
X0242527Y0071464D02*
X0010812Y0071464D01*
X0010812Y0069466D02*
X0233082Y0069466D01*
X0232725Y0067467D02*
X0010812Y0067467D01*
X0010812Y0065469D02*
X0232725Y0065469D01*
X0233023Y0063470D02*
X0010812Y0063470D01*
X0010812Y0061472D02*
X0078428Y0061472D01*
X0076429Y0059473D02*
X0010812Y0059473D01*
X0010812Y0057475D02*
X0074431Y0057475D01*
X0072432Y0055476D02*
X0010812Y0055476D01*
X0010812Y0053478D02*
X0070434Y0053478D01*
X0068435Y0051479D02*
X0010812Y0051479D01*
X0010812Y0049481D02*
X0066437Y0049481D01*
X0064820Y0047482D02*
X0010812Y0047482D01*
X0010812Y0045484D02*
X0064542Y0045484D01*
X0064542Y0043485D02*
X0045885Y0043485D01*
X0044947Y0044423D02*
X0040101Y0044423D01*
X0036674Y0040996D01*
X0036674Y0036150D01*
X0040101Y0032723D01*
X0044947Y0032723D01*
X0048374Y0036150D01*
X0048374Y0040996D01*
X0044947Y0044423D01*
X0047883Y0041487D02*
X0062764Y0041487D01*
X0062274Y0039488D02*
X0048374Y0039488D01*
X0048374Y0037489D02*
X0062274Y0037489D01*
X0062933Y0035491D02*
X0047715Y0035491D01*
X0045717Y0033492D02*
X0064931Y0033492D01*
X0039331Y0033492D02*
X0010812Y0033492D01*
X0010812Y0035491D02*
X0037333Y0035491D01*
X0036674Y0037489D02*
X0010812Y0037489D01*
X0010812Y0039488D02*
X0036674Y0039488D01*
X0037164Y0041487D02*
X0010812Y0041487D01*
X0010812Y0043485D02*
X0039163Y0043485D01*
X0010812Y0073463D02*
X0242527Y0073463D01*
X0242527Y0075461D02*
X0010812Y0075461D01*
X0010812Y0077460D02*
X0242527Y0077460D01*
X0242527Y0079458D02*
X0010812Y0079458D01*
X0010812Y0081457D02*
X0242527Y0081457D01*
X0242527Y0083455D02*
X0010812Y0083455D01*
X0010812Y0085454D02*
X0242527Y0085454D01*
X0242527Y0087452D02*
X0010812Y0087452D01*
X0010812Y0089451D02*
X0079581Y0089451D01*
X0079804Y0089359D02*
X0082290Y0089359D01*
X0084587Y0090310D01*
X0086345Y0092068D01*
X0087297Y0094365D01*
X0087297Y0096852D01*
X0086345Y0099149D01*
X0084587Y0100907D01*
X0083111Y0101519D01*
X0083635Y0101736D01*
X0084920Y0103021D01*
X0085615Y0104700D01*
X0085615Y0106517D01*
X0084920Y0108196D01*
X0083635Y0109482D01*
X0081955Y0110177D01*
X0080138Y0110177D01*
X0078459Y0109482D01*
X0077739Y0108761D01*
X0069659Y0108761D01*
X0068941Y0109480D01*
X0067250Y0110180D01*
X0059420Y0110180D01*
X0057729Y0109480D01*
X0056435Y0108186D01*
X0055735Y0106495D01*
X0055735Y0104665D01*
X0056435Y0102974D01*
X0057729Y0101680D01*
X0059420Y0100980D01*
X0067250Y0100980D01*
X0068941Y0101680D01*
X0069622Y0102361D01*
X0077833Y0102361D01*
X0078459Y0101736D01*
X0078983Y0101519D01*
X0077506Y0100907D01*
X0075748Y0099149D01*
X0074797Y0096852D01*
X0074797Y0094365D01*
X0075748Y0092068D01*
X0077506Y0090310D01*
X0079804Y0089359D01*
X0082513Y0089451D02*
X0139581Y0089451D01*
X0139804Y0089359D02*
X0142290Y0089359D01*
X0144587Y0090310D01*
X0146345Y0092068D01*
X0147297Y0094365D01*
X0147297Y0096852D01*
X0146345Y0099149D01*
X0144587Y0100907D01*
X0143111Y0101519D01*
X0143635Y0101736D01*
X0144365Y0102466D01*
X0152347Y0102466D01*
X0153133Y0101680D01*
X0154823Y0100980D01*
X0162653Y0100980D01*
X0164344Y0101680D01*
X0165638Y0102974D01*
X0166338Y0104665D01*
X0166338Y0106495D01*
X0165638Y0108186D01*
X0164344Y0109480D01*
X0162653Y0110180D01*
X0154823Y0110180D01*
X0153133Y0109480D01*
X0152519Y0108866D01*
X0144251Y0108866D01*
X0143635Y0109482D01*
X0141955Y0110177D01*
X0140138Y0110177D01*
X0138459Y0109482D01*
X0137174Y0108196D01*
X0136478Y0106517D01*
X0136478Y0104700D01*
X0137174Y0103021D01*
X0138459Y0101736D01*
X0138983Y0101519D01*
X0137506Y0100907D01*
X0135748Y0099149D01*
X0134797Y0096852D01*
X0134797Y0094365D01*
X0135748Y0092068D01*
X0137506Y0090310D01*
X0139804Y0089359D01*
X0142513Y0089451D02*
X0242527Y0089451D01*
X0242527Y0091449D02*
X0145726Y0091449D01*
X0146917Y0093448D02*
X0242527Y0093448D01*
X0242527Y0095446D02*
X0147297Y0095446D01*
X0147051Y0097445D02*
X0242527Y0097445D01*
X0242527Y0099443D02*
X0146051Y0099443D01*
X0143296Y0101442D02*
X0153708Y0101442D01*
X0163768Y0101442D02*
X0242527Y0101442D01*
X0242527Y0103440D02*
X0165831Y0103440D01*
X0166338Y0105439D02*
X0242527Y0105439D01*
X0242527Y0107437D02*
X0165948Y0107437D01*
X0164388Y0109436D02*
X0242527Y0109436D01*
X0242527Y0111434D02*
X0163750Y0111434D01*
X0164344Y0111680D02*
X0165638Y0112974D01*
X0166338Y0114665D01*
X0166338Y0116495D01*
X0165638Y0118186D01*
X0164344Y0119480D01*
X0162653Y0120180D01*
X0154823Y0120180D01*
X0153133Y0119480D01*
X0152541Y0118888D01*
X0144229Y0118888D01*
X0143635Y0119482D01*
X0141955Y0120177D01*
X0140138Y0120177D01*
X0138459Y0119482D01*
X0137174Y0118196D01*
X0136478Y0116517D01*
X0136478Y0114700D01*
X0137174Y0113021D01*
X0138459Y0111736D01*
X0140138Y0111040D01*
X0141955Y0111040D01*
X0143635Y0111736D01*
X0144387Y0112488D01*
X0152325Y0112488D01*
X0153133Y0111680D01*
X0154823Y0110980D01*
X0162653Y0110980D01*
X0164344Y0111680D01*
X0165828Y0113433D02*
X0242527Y0113433D01*
X0242527Y0115431D02*
X0166338Y0115431D01*
X0165951Y0117430D02*
X0242527Y0117430D01*
X0242527Y0119428D02*
X0164395Y0119428D01*
X0163732Y0121427D02*
X0242527Y0121427D01*
X0242527Y0123425D02*
X0165825Y0123425D01*
X0165638Y0122974D02*
X0166338Y0124665D01*
X0166338Y0126495D01*
X0165638Y0128186D01*
X0164344Y0129480D01*
X0162653Y0130180D01*
X0154823Y0130180D01*
X0153133Y0129480D01*
X0152535Y0128882D01*
X0144234Y0128882D01*
X0143635Y0129482D01*
X0141955Y0130177D01*
X0140138Y0130177D01*
X0138459Y0129482D01*
X0137174Y0128196D01*
X0136478Y0126517D01*
X0136478Y0124700D01*
X0137174Y0123021D01*
X0138459Y0121736D01*
X0140138Y0121040D01*
X0141955Y0121040D01*
X0143635Y0121736D01*
X0144381Y0122482D01*
X0152331Y0122482D01*
X0153133Y0121680D01*
X0154823Y0120980D01*
X0162653Y0120980D01*
X0164344Y0121680D01*
X0165638Y0122974D01*
X0166338Y0125424D02*
X0242527Y0125424D01*
X0242527Y0127422D02*
X0165954Y0127422D01*
X0164403Y0129421D02*
X0242527Y0129421D01*
X0242527Y0131420D02*
X0163715Y0131420D01*
X0164344Y0131680D02*
X0165638Y0132974D01*
X0166338Y0134665D01*
X0166338Y0136495D01*
X0165638Y0138186D01*
X0164344Y0139480D01*
X0162653Y0140180D01*
X0154823Y0140180D01*
X0153133Y0139480D01*
X0152437Y0138784D01*
X0144332Y0138784D01*
X0143635Y0139482D01*
X0141955Y0140177D01*
X0140138Y0140177D01*
X0138459Y0139482D01*
X0137174Y0138196D01*
X0136478Y0136517D01*
X0136478Y0134700D01*
X0137174Y0133021D01*
X0138459Y0131736D01*
X0140138Y0131040D01*
X0141955Y0131040D01*
X0143635Y0131736D01*
X0144283Y0132384D01*
X0152429Y0132384D01*
X0153133Y0131680D01*
X0154823Y0130980D01*
X0162653Y0130980D01*
X0164344Y0131680D01*
X0165822Y0133418D02*
X0242527Y0133418D01*
X0242527Y0135417D02*
X0166338Y0135417D01*
X0165957Y0137415D02*
X0242527Y0137415D01*
X0242527Y0139414D02*
X0164410Y0139414D01*
X0163697Y0141412D02*
X0242527Y0141412D01*
X0242527Y0143411D02*
X0165819Y0143411D01*
X0165638Y0142974D02*
X0166338Y0144665D01*
X0166338Y0146495D01*
X0165638Y0148186D01*
X0164344Y0149480D01*
X0162653Y0150180D01*
X0154823Y0150180D01*
X0153133Y0149480D01*
X0152431Y0148778D01*
X0144338Y0148778D01*
X0143635Y0149482D01*
X0141955Y0150177D01*
X0140138Y0150177D01*
X0138459Y0149482D01*
X0137174Y0148196D01*
X0136478Y0146517D01*
X0136478Y0144700D01*
X0137174Y0143021D01*
X0138459Y0141736D01*
X0140138Y0141040D01*
X0141955Y0141040D01*
X0143635Y0141736D01*
X0144277Y0142378D01*
X0152435Y0142378D01*
X0153133Y0141680D01*
X0154823Y0140980D01*
X0162653Y0140980D01*
X0164344Y0141680D01*
X0165638Y0142974D01*
X0166338Y0145409D02*
X0242527Y0145409D01*
X0242527Y0147408D02*
X0165960Y0147408D01*
X0164417Y0149406D02*
X0242527Y0149406D01*
X0242527Y0151405D02*
X0163679Y0151405D01*
X0164344Y0151680D02*
X0165638Y0152974D01*
X0166338Y0154665D01*
X0166338Y0156495D01*
X0165638Y0158186D01*
X0164344Y0159480D01*
X0162653Y0160180D01*
X0154823Y0160180D01*
X0153133Y0159480D01*
X0152453Y0158800D01*
X0144316Y0158800D01*
X0143635Y0159482D01*
X0141955Y0160177D01*
X0140138Y0160177D01*
X0138459Y0159482D01*
X0137174Y0158196D01*
X0136478Y0156517D01*
X0136478Y0154700D01*
X0137174Y0153021D01*
X0138459Y0151736D01*
X0140138Y0151040D01*
X0141955Y0151040D01*
X0143635Y0151736D01*
X0144299Y0152400D01*
X0152413Y0152400D01*
X0153133Y0151680D01*
X0154823Y0150980D01*
X0162653Y0150980D01*
X0164344Y0151680D01*
X0165816Y0153403D02*
X0242527Y0153403D01*
X0242527Y0155402D02*
X0166338Y0155402D01*
X0165963Y0157400D02*
X0242527Y0157400D01*
X0242527Y0159399D02*
X0164425Y0159399D01*
X0163661Y0161397D02*
X0242527Y0161397D01*
X0242527Y0163396D02*
X0165813Y0163396D01*
X0165638Y0162974D02*
X0166338Y0164665D01*
X0166338Y0166495D01*
X0165638Y0168186D01*
X0164344Y0169480D01*
X0162653Y0170180D01*
X0154823Y0170180D01*
X0153133Y0169480D01*
X0152447Y0168794D01*
X0144322Y0168794D01*
X0143635Y0169482D01*
X0141955Y0170177D01*
X0140138Y0170177D01*
X0138459Y0169482D01*
X0137174Y0168196D01*
X0136478Y0166517D01*
X0136478Y0164700D01*
X0137174Y0163021D01*
X0138459Y0161736D01*
X0140138Y0161040D01*
X0141955Y0161040D01*
X0143635Y0161736D01*
X0144294Y0162394D01*
X0152418Y0162394D01*
X0153133Y0161680D01*
X0154823Y0160980D01*
X0162653Y0160980D01*
X0164344Y0161680D01*
X0165638Y0162974D01*
X0166338Y0165394D02*
X0242527Y0165394D01*
X0242527Y0167393D02*
X0165966Y0167393D01*
X0164432Y0169391D02*
X0242527Y0169391D01*
X0242527Y0171390D02*
X0163643Y0171390D01*
X0164344Y0171680D02*
X0165638Y0172974D01*
X0166338Y0174665D01*
X0166338Y0176495D01*
X0165638Y0178186D01*
X0164344Y0179480D01*
X0162653Y0180180D01*
X0154823Y0180180D01*
X0153133Y0179480D01*
X0152530Y0178877D01*
X0144239Y0178877D01*
X0143635Y0179482D01*
X0141955Y0180177D01*
X0140138Y0180177D01*
X0138459Y0179482D01*
X0137174Y0178196D01*
X0136478Y0176517D01*
X0136478Y0174700D01*
X0137174Y0173021D01*
X0138459Y0171736D01*
X0140138Y0171040D01*
X0141955Y0171040D01*
X0143635Y0171736D01*
X0144376Y0172477D01*
X0152336Y0172477D01*
X0153133Y0171680D01*
X0154823Y0170980D01*
X0162653Y0170980D01*
X0164344Y0171680D01*
X0165809Y0173388D02*
X0242527Y0173388D01*
X0242527Y0175387D02*
X0166338Y0175387D01*
X0165969Y0177385D02*
X0242527Y0177385D01*
X0242527Y0179384D02*
X0164440Y0179384D01*
X0163625Y0181382D02*
X0242527Y0181382D01*
X0242527Y0183381D02*
X0165806Y0183381D01*
X0165638Y0182974D02*
X0166338Y0184665D01*
X0166338Y0186495D01*
X0165638Y0188186D01*
X0164344Y0189480D01*
X0162653Y0190180D01*
X0154823Y0190180D01*
X0153133Y0189480D01*
X0152525Y0188872D01*
X0144245Y0188872D01*
X0143635Y0189482D01*
X0141955Y0190177D01*
X0140138Y0190177D01*
X0138459Y0189482D01*
X0137174Y0188196D01*
X0136478Y0186517D01*
X0136478Y0184700D01*
X0137174Y0183021D01*
X0138459Y0181736D01*
X0140138Y0181040D01*
X0141955Y0181040D01*
X0143635Y0181736D01*
X0144371Y0182472D01*
X0152341Y0182472D01*
X0153133Y0181680D01*
X0154823Y0180980D01*
X0162653Y0180980D01*
X0164344Y0181680D01*
X0165638Y0182974D01*
X0166338Y0185379D02*
X0242527Y0185379D01*
X0242527Y0187378D02*
X0165973Y0187378D01*
X0164447Y0189376D02*
X0242527Y0189376D01*
X0242527Y0191375D02*
X0163607Y0191375D01*
X0164344Y0191680D02*
X0165638Y0192974D01*
X0166338Y0194665D01*
X0166338Y0196495D01*
X0165638Y0198186D01*
X0164344Y0199480D01*
X0162653Y0200180D01*
X0154823Y0200180D01*
X0153133Y0199480D01*
X0152547Y0198894D01*
X0144223Y0198894D01*
X0143635Y0199482D01*
X0141955Y0200177D01*
X0140138Y0200177D01*
X0138459Y0199482D01*
X0137174Y0198196D01*
X0136478Y0196517D01*
X0136478Y0194700D01*
X0137174Y0193021D01*
X0138459Y0191736D01*
X0140138Y0191040D01*
X0141955Y0191040D01*
X0143635Y0191736D01*
X0144393Y0192494D01*
X0152319Y0192494D01*
X0153133Y0191680D01*
X0154823Y0190980D01*
X0162653Y0190980D01*
X0164344Y0191680D01*
X0165803Y0193373D02*
X0242527Y0193373D01*
X0242527Y0195372D02*
X0166338Y0195372D01*
X0165976Y0197370D02*
X0242527Y0197370D01*
X0242527Y0199369D02*
X0164455Y0199369D01*
X0163589Y0201367D02*
X0242527Y0201367D01*
X0242527Y0203366D02*
X0165800Y0203366D01*
X0165638Y0202974D02*
X0166338Y0204665D01*
X0166338Y0206495D01*
X0165638Y0208186D01*
X0164344Y0209480D01*
X0162653Y0210180D01*
X0154823Y0210180D01*
X0153133Y0209480D01*
X0152541Y0208888D01*
X0144228Y0208888D01*
X0143635Y0209482D01*
X0141955Y0210177D01*
X0140138Y0210177D01*
X0138459Y0209482D01*
X0137174Y0208196D01*
X0136478Y0206517D01*
X0136478Y0204700D01*
X0137174Y0203021D01*
X0138459Y0201736D01*
X0140138Y0201040D01*
X0141955Y0201040D01*
X0143635Y0201736D01*
X0144387Y0202488D01*
X0152325Y0202488D01*
X0153133Y0201680D01*
X0154823Y0200980D01*
X0162653Y0200980D01*
X0164344Y0201680D01*
X0165638Y0202974D01*
X0166338Y0205364D02*
X0242527Y0205364D01*
X0242527Y0207363D02*
X0165979Y0207363D01*
X0164462Y0209361D02*
X0242527Y0209361D01*
X0242527Y0211360D02*
X0163571Y0211360D01*
X0164344Y0211680D02*
X0165638Y0212974D01*
X0166338Y0214665D01*
X0166338Y0216495D01*
X0165638Y0218186D01*
X0164344Y0219480D01*
X0162653Y0220180D01*
X0154823Y0220180D01*
X0153133Y0219480D01*
X0152443Y0218790D01*
X0144327Y0218790D01*
X0143635Y0219482D01*
X0141955Y0220177D01*
X0140138Y0220177D01*
X0138459Y0219482D01*
X0137174Y0218196D01*
X0136478Y0216517D01*
X0136478Y0214700D01*
X0137174Y0213021D01*
X0138459Y0211736D01*
X0140138Y0211040D01*
X0141955Y0211040D01*
X0143635Y0211736D01*
X0144289Y0212390D01*
X0152423Y0212390D01*
X0153133Y0211680D01*
X0154823Y0210980D01*
X0162653Y0210980D01*
X0164344Y0211680D01*
X0165797Y0213358D02*
X0242527Y0213358D01*
X0242527Y0215357D02*
X0166338Y0215357D01*
X0165982Y0217355D02*
X0242527Y0217355D01*
X0242527Y0219354D02*
X0164470Y0219354D01*
X0163553Y0221353D02*
X0242527Y0221353D01*
X0242527Y0223351D02*
X0165794Y0223351D01*
X0165638Y0222974D02*
X0166338Y0224665D01*
X0166338Y0226495D01*
X0165638Y0228186D01*
X0164344Y0229480D01*
X0162653Y0230180D01*
X0154823Y0230180D01*
X0153133Y0229480D01*
X0152437Y0228784D01*
X0144332Y0228784D01*
X0143635Y0229482D01*
X0141955Y0230177D01*
X0140138Y0230177D01*
X0138459Y0229482D01*
X0137174Y0228196D01*
X0136478Y0226517D01*
X0136478Y0224700D01*
X0137174Y0223021D01*
X0138459Y0221736D01*
X0140138Y0221040D01*
X0141955Y0221040D01*
X0143635Y0221736D01*
X0144283Y0222384D01*
X0152429Y0222384D01*
X0153133Y0221680D01*
X0154823Y0220980D01*
X0162653Y0220980D01*
X0164344Y0221680D01*
X0165638Y0222974D01*
X0166338Y0225350D02*
X0242527Y0225350D01*
X0243582Y0227348D02*
X0165985Y0227348D01*
X0164477Y0229347D02*
X0245581Y0229347D01*
X0247579Y0231345D02*
X0163535Y0231345D01*
X0164344Y0231680D02*
X0165638Y0232974D01*
X0166338Y0234665D01*
X0166338Y0236495D01*
X0165638Y0238186D01*
X0164344Y0239480D01*
X0162653Y0240180D01*
X0154823Y0240180D01*
X0153133Y0239480D01*
X0152459Y0238806D01*
X0144310Y0238806D01*
X0143635Y0239482D01*
X0141955Y0240177D01*
X0140138Y0240177D01*
X0138459Y0239482D01*
X0137174Y0238196D01*
X0136478Y0236517D01*
X0136478Y0234700D01*
X0137174Y0233021D01*
X0138459Y0231736D01*
X0140138Y0231040D01*
X0141955Y0231040D01*
X0143635Y0231736D01*
X0144305Y0232406D01*
X0152407Y0232406D01*
X0153133Y0231680D01*
X0154823Y0230980D01*
X0162653Y0230980D01*
X0164344Y0231680D01*
X0165791Y0233344D02*
X0249578Y0233344D01*
X0251576Y0235342D02*
X0166338Y0235342D01*
X0165988Y0237341D02*
X0253575Y0237341D01*
X0255573Y0239339D02*
X0164484Y0239339D01*
X0163517Y0241338D02*
X0257572Y0241338D01*
X0259570Y0243336D02*
X0165788Y0243336D01*
X0166338Y0245335D02*
X0261569Y0245335D01*
X0263567Y0247333D02*
X0165991Y0247333D01*
X0164492Y0249332D02*
X0265566Y0249332D01*
X0267564Y0251330D02*
X0145607Y0251330D01*
X0146867Y0253329D02*
X0269563Y0253329D01*
X0271561Y0255327D02*
X0147297Y0255327D01*
X0147100Y0257326D02*
X0273560Y0257326D01*
X0275558Y0259324D02*
X0146170Y0259324D01*
X0143584Y0261323D02*
X0277557Y0261323D01*
X0279556Y0263321D02*
X0141968Y0263321D01*
X0134369Y0267318D02*
X0036590Y0267318D01*
X0036590Y0265320D02*
X0132370Y0265320D01*
X0130372Y0263321D02*
X0036590Y0263321D01*
X0036590Y0261323D02*
X0078510Y0261323D01*
X0077506Y0260907D02*
X0075748Y0259149D01*
X0074797Y0256852D01*
X0074797Y0254365D01*
X0075748Y0252068D01*
X0077506Y0250310D01*
X0077828Y0250177D01*
X0077416Y0250177D01*
X0076478Y0249240D01*
X0076478Y0248696D01*
X0069724Y0248696D01*
X0068941Y0249480D01*
X0067250Y0250180D01*
X0059420Y0250180D01*
X0057729Y0249480D01*
X0056435Y0248186D01*
X0055735Y0246495D01*
X0055735Y0244665D01*
X0056435Y0242974D01*
X0057729Y0241680D01*
X0059420Y0240980D01*
X0067250Y0240980D01*
X0068941Y0241680D01*
X0069557Y0242296D01*
X0076478Y0242296D01*
X0076478Y0241977D01*
X0077416Y0241040D01*
X0084678Y0241040D01*
X0085615Y0241977D01*
X0085615Y0249240D01*
X0084678Y0250177D01*
X0084266Y0250177D01*
X0084587Y0250310D01*
X0086345Y0252068D01*
X0087297Y0254365D01*
X0087297Y0256852D01*
X0086345Y0259149D01*
X0084587Y0260907D01*
X0082290Y0261859D01*
X0079804Y0261859D01*
X0077506Y0260907D01*
X0075924Y0259324D02*
X0036590Y0259324D01*
X0036590Y0257326D02*
X0074993Y0257326D01*
X0074797Y0255327D02*
X0036590Y0255327D01*
X0036590Y0253329D02*
X0075226Y0253329D01*
X0076486Y0251330D02*
X0036590Y0251330D01*
X0036590Y0249332D02*
X0057581Y0249332D01*
X0056082Y0247333D02*
X0036590Y0247333D01*
X0036590Y0245335D02*
X0055735Y0245335D01*
X0056285Y0243336D02*
X0036590Y0243336D01*
X0036590Y0241338D02*
X0058556Y0241338D01*
X0057589Y0239339D02*
X0036590Y0239339D01*
X0036590Y0237341D02*
X0056085Y0237341D01*
X0055735Y0235342D02*
X0036590Y0235342D01*
X0036590Y0233344D02*
X0056282Y0233344D01*
X0058538Y0231345D02*
X0036590Y0231345D01*
X0036590Y0229347D02*
X0057596Y0229347D01*
X0057729Y0229480D02*
X0056435Y0228186D01*
X0055735Y0226495D01*
X0055735Y0224665D01*
X0056435Y0222974D01*
X0057729Y0221680D01*
X0059420Y0220980D01*
X0067250Y0220980D01*
X0068941Y0221680D01*
X0069540Y0222280D01*
X0077915Y0222280D01*
X0078459Y0221736D01*
X0080138Y0221040D01*
X0081955Y0221040D01*
X0083635Y0221736D01*
X0084920Y0223021D01*
X0085615Y0224700D01*
X0085615Y0226517D01*
X0084920Y0228196D01*
X0083635Y0229482D01*
X0081955Y0230177D01*
X0080138Y0230177D01*
X0078459Y0229482D01*
X0077657Y0228680D01*
X0069740Y0228680D01*
X0068941Y0229480D01*
X0067250Y0230180D01*
X0059420Y0230180D01*
X0057729Y0229480D01*
X0056088Y0227348D02*
X0036590Y0227348D01*
X0036590Y0225350D02*
X0055735Y0225350D01*
X0056279Y0223351D02*
X0036590Y0223351D01*
X0036590Y0221353D02*
X0058520Y0221353D01*
X0059420Y0220180D02*
X0057729Y0219480D01*
X0056435Y0218186D01*
X0055735Y0216495D01*
X0055735Y0214665D01*
X0056435Y0212974D01*
X0057729Y0211680D01*
X0059420Y0210980D01*
X0067250Y0210980D01*
X0068941Y0211680D01*
X0069546Y0212286D01*
X0077909Y0212286D01*
X0078459Y0211736D01*
X0080138Y0211040D01*
X0081955Y0211040D01*
X0083635Y0211736D01*
X0084920Y0213021D01*
X0085615Y0214700D01*
X0085615Y0216517D01*
X0084920Y0218196D01*
X0083635Y0219482D01*
X0081955Y0220177D01*
X0080138Y0220177D01*
X0078459Y0219482D01*
X0077663Y0218686D01*
X0069735Y0218686D01*
X0068941Y0219480D01*
X0067250Y0220180D01*
X0059420Y0220180D01*
X0057604Y0219354D02*
X0036590Y0219354D01*
X0036590Y0217355D02*
X0056091Y0217355D01*
X0055735Y0215357D02*
X0036590Y0215357D01*
X0036590Y0213358D02*
X0056276Y0213358D01*
X0058502Y0211360D02*
X0036590Y0211360D01*
X0036590Y0209361D02*
X0057611Y0209361D01*
X0057729Y0209480D02*
X0056435Y0208186D01*
X0055735Y0206495D01*
X0055735Y0204665D01*
X0056435Y0202974D01*
X0057729Y0201680D01*
X0059420Y0200980D01*
X0067250Y0200980D01*
X0068941Y0201680D01*
X0069644Y0202384D01*
X0077811Y0202384D01*
X0078459Y0201736D01*
X0080138Y0201040D01*
X0081955Y0201040D01*
X0083635Y0201736D01*
X0084920Y0203021D01*
X0085615Y0204700D01*
X0085615Y0206517D01*
X0084920Y0208196D01*
X0083635Y0209482D01*
X0081955Y0210177D01*
X0080138Y0210177D01*
X0078459Y0209482D01*
X0077761Y0208784D01*
X0069636Y0208784D01*
X0068941Y0209480D01*
X0067250Y0210180D01*
X0059420Y0210180D01*
X0057729Y0209480D01*
X0056094Y0207363D02*
X0036590Y0207363D01*
X0036590Y0205364D02*
X0055735Y0205364D01*
X0056273Y0203366D02*
X0036590Y0203366D01*
X0036590Y0201367D02*
X0058484Y0201367D01*
X0059420Y0200180D02*
X0057729Y0199480D01*
X0056435Y0198186D01*
X0055735Y0196495D01*
X0055735Y0194665D01*
X0056435Y0192974D01*
X0057729Y0191680D01*
X0059420Y0190980D01*
X0067250Y0190980D01*
X0068941Y0191680D01*
X0069650Y0192389D01*
X0077805Y0192389D01*
X0078459Y0191736D01*
X0080138Y0191040D01*
X0081955Y0191040D01*
X0083635Y0191736D01*
X0084920Y0193021D01*
X0085615Y0194700D01*
X0085615Y0196517D01*
X0084920Y0198196D01*
X0083635Y0199482D01*
X0081955Y0200177D01*
X0080138Y0200177D01*
X0078459Y0199482D01*
X0077767Y0198789D01*
X0069631Y0198789D01*
X0068941Y0199480D01*
X0067250Y0200180D01*
X0059420Y0200180D01*
X0057618Y0199369D02*
X0036590Y0199369D01*
X0036590Y0197370D02*
X0056097Y0197370D01*
X0055735Y0195372D02*
X0036590Y0195372D01*
X0036590Y0193373D02*
X0056270Y0193373D01*
X0058466Y0191375D02*
X0036590Y0191375D01*
X0036590Y0189376D02*
X0057626Y0189376D01*
X0057729Y0189480D02*
X0056435Y0188186D01*
X0055735Y0186495D01*
X0055735Y0184665D01*
X0056435Y0182974D01*
X0057729Y0181680D01*
X0059420Y0180980D01*
X0067250Y0180980D01*
X0068941Y0181680D01*
X0069628Y0182367D01*
X0077827Y0182367D01*
X0078459Y0181736D01*
X0080138Y0181040D01*
X0081955Y0181040D01*
X0083635Y0181736D01*
X0084920Y0183021D01*
X0085615Y0184700D01*
X0085615Y0186517D01*
X0084920Y0188196D01*
X0083635Y0189482D01*
X0081955Y0190177D01*
X0080138Y0190177D01*
X0078459Y0189482D01*
X0077745Y0188767D01*
X0069653Y0188767D01*
X0068941Y0189480D01*
X0067250Y0190180D01*
X0059420Y0190180D01*
X0057729Y0189480D01*
X0056101Y0187378D02*
X0036590Y0187378D01*
X0036590Y0185379D02*
X0055735Y0185379D01*
X0056267Y0183381D02*
X0036590Y0183381D01*
X0036590Y0181382D02*
X0058448Y0181382D01*
X0059420Y0180180D02*
X0057729Y0179480D01*
X0056435Y0178186D01*
X0055735Y0176495D01*
X0055735Y0174665D01*
X0056435Y0172974D01*
X0057729Y0171680D01*
X0059420Y0170980D01*
X0067250Y0170980D01*
X0068941Y0171680D01*
X0069633Y0172373D01*
X0077821Y0172373D01*
X0078459Y0171736D01*
X0080138Y0171040D01*
X0081955Y0171040D01*
X0083635Y0171736D01*
X0084920Y0173021D01*
X0085615Y0174700D01*
X0085615Y0176517D01*
X0084920Y0178196D01*
X0083635Y0179482D01*
X0081955Y0180177D01*
X0080138Y0180177D01*
X0078459Y0179482D01*
X0077750Y0178773D01*
X0069647Y0178773D01*
X0068941Y0179480D01*
X0067250Y0180180D01*
X0059420Y0180180D01*
X0057633Y0179384D02*
X0036590Y0179384D01*
X0036590Y0177385D02*
X0056104Y0177385D01*
X0055735Y0175387D02*
X0036590Y0175387D01*
X0036590Y0173388D02*
X0056264Y0173388D01*
X0058430Y0171390D02*
X0036590Y0171390D01*
X0036590Y0169391D02*
X0057641Y0169391D01*
X0057729Y0169480D02*
X0056435Y0168186D01*
X0055735Y0166495D01*
X0055735Y0164665D01*
X0056435Y0162974D01*
X0057729Y0161680D01*
X0059420Y0160980D01*
X0067250Y0160980D01*
X0068941Y0161680D01*
X0069551Y0162290D01*
X0077904Y0162290D01*
X0078459Y0161736D01*
X0080138Y0161040D01*
X0081955Y0161040D01*
X0083635Y0161736D01*
X0084920Y0163021D01*
X0085615Y0164700D01*
X0085615Y0166517D01*
X0084920Y0168196D01*
X0083635Y0169482D01*
X0081955Y0170177D01*
X0080138Y0170177D01*
X0078459Y0169482D01*
X0077668Y0168690D01*
X0069730Y0168690D01*
X0068941Y0169480D01*
X0067250Y0170180D01*
X0059420Y0170180D01*
X0057729Y0169480D01*
X0056107Y0167393D02*
X0036590Y0167393D01*
X0036590Y0165394D02*
X0055735Y0165394D01*
X0056261Y0163396D02*
X0036590Y0163396D01*
X0036590Y0161397D02*
X0058412Y0161397D01*
X0059420Y0160180D02*
X0057729Y0159480D01*
X0056435Y0158186D01*
X0055735Y0156495D01*
X0055735Y0154665D01*
X0056435Y0152974D01*
X0057729Y0151680D01*
X0059420Y0150980D01*
X0067250Y0150980D01*
X0068941Y0151680D01*
X0069556Y0152296D01*
X0077899Y0152296D01*
X0078459Y0151736D01*
X0080138Y0151040D01*
X0081955Y0151040D01*
X0083635Y0151736D01*
X0084920Y0153021D01*
X0085615Y0154700D01*
X0085615Y0156517D01*
X0084920Y0158196D01*
X0083635Y0159482D01*
X0081955Y0160177D01*
X0080138Y0160177D01*
X0078459Y0159482D01*
X0077673Y0158696D01*
X0069724Y0158696D01*
X0068941Y0159480D01*
X0067250Y0160180D01*
X0059420Y0160180D01*
X0057648Y0159399D02*
X0036590Y0159399D01*
X0036590Y0157400D02*
X0056110Y0157400D01*
X0055735Y0155402D02*
X0036590Y0155402D01*
X0036590Y0153403D02*
X0056257Y0153403D01*
X0058395Y0151405D02*
X0036590Y0151405D01*
X0036590Y0149406D02*
X0057656Y0149406D01*
X0057729Y0149480D02*
X0056435Y0148186D01*
X0055735Y0146495D01*
X0055735Y0144665D01*
X0056435Y0142974D01*
X0057729Y0141680D01*
X0059420Y0140980D01*
X0067250Y0140980D01*
X0068941Y0141680D01*
X0069534Y0142274D01*
X0077921Y0142274D01*
X0078459Y0141736D01*
X0080138Y0141040D01*
X0081955Y0141040D01*
X0083635Y0141736D01*
X0084920Y0143021D01*
X0085615Y0144700D01*
X0085615Y0146517D01*
X0084920Y0148196D01*
X0083635Y0149482D01*
X0081955Y0150177D01*
X0080138Y0150177D01*
X0078459Y0149482D01*
X0077651Y0148674D01*
X0069746Y0148674D01*
X0068941Y0149480D01*
X0067250Y0150180D01*
X0059420Y0150180D01*
X0057729Y0149480D01*
X0056113Y0147408D02*
X0037998Y0147408D01*
X0036590Y0148815D02*
X0036590Y0283548D01*
X0048379Y0295337D01*
X0291884Y0295337D01*
X0292531Y0293776D01*
X0293825Y0292482D01*
X0295516Y0291782D01*
X0297346Y0291782D01*
X0299036Y0292482D01*
X0300330Y0293776D01*
X0300977Y0295337D01*
X0301884Y0295337D01*
X0302531Y0293776D01*
X0303825Y0292482D01*
X0305516Y0291782D01*
X0307346Y0291782D01*
X0309036Y0292482D01*
X0310330Y0293776D01*
X0310977Y0295337D01*
X0311884Y0295337D01*
X0312531Y0293776D01*
X0313825Y0292482D01*
X0315516Y0291782D01*
X0317346Y0291782D01*
X0319036Y0292482D01*
X0320330Y0293776D01*
X0320977Y0295337D01*
X0321884Y0295337D01*
X0322531Y0293776D01*
X0323825Y0292482D01*
X0325516Y0291782D01*
X0327346Y0291782D01*
X0329036Y0292482D01*
X0330330Y0293776D01*
X0331031Y0295467D01*
X0331031Y0297585D01*
X0331460Y0298621D01*
X0331460Y0300252D01*
X0331031Y0301288D01*
X0331031Y0303297D01*
X0330330Y0304988D01*
X0329036Y0306282D01*
X0327346Y0306982D01*
X0325516Y0306982D01*
X0323825Y0306282D01*
X0322531Y0304988D01*
X0321930Y0303537D01*
X0320931Y0303537D01*
X0320330Y0304988D01*
X0319036Y0306282D01*
X0317346Y0306982D01*
X0315516Y0306982D01*
X0313825Y0306282D01*
X0312531Y0304988D01*
X0311930Y0303537D01*
X0310931Y0303537D01*
X0310330Y0304988D01*
X0309036Y0306282D01*
X0307346Y0306982D01*
X0305516Y0306982D01*
X0303825Y0306282D01*
X0302531Y0304988D01*
X0301930Y0303537D01*
X0300931Y0303537D01*
X0300330Y0304988D01*
X0299036Y0306282D01*
X0297346Y0306982D01*
X0295516Y0306982D01*
X0293825Y0306282D01*
X0292531Y0304988D01*
X0291930Y0303537D01*
X0045865Y0303537D01*
X0044359Y0302913D01*
X0043205Y0301759D01*
X0029014Y0287568D01*
X0028390Y0286062D01*
X0028390Y0146301D01*
X0029014Y0144794D01*
X0030168Y0143641D01*
X0041774Y0132035D01*
X0043281Y0131411D01*
X0058380Y0131411D01*
X0059420Y0130980D01*
X0067250Y0130980D01*
X0068941Y0131680D01*
X0069540Y0132280D01*
X0077915Y0132280D01*
X0078459Y0131736D01*
X0080138Y0131040D01*
X0081955Y0131040D01*
X0083635Y0131736D01*
X0084920Y0133021D01*
X0085615Y0134700D01*
X0085615Y0136517D01*
X0084920Y0138196D01*
X0083635Y0139482D01*
X0081955Y0140177D01*
X0080138Y0140177D01*
X0078459Y0139482D01*
X0077657Y0138680D01*
X0069741Y0138680D01*
X0068941Y0139480D01*
X0067250Y0140180D01*
X0059420Y0140180D01*
X0058046Y0139611D01*
X0045795Y0139611D01*
X0036590Y0148815D01*
X0039996Y0145409D02*
X0055735Y0145409D01*
X0056254Y0143411D02*
X0041995Y0143411D01*
X0043993Y0141412D02*
X0058377Y0141412D01*
X0068293Y0141412D02*
X0079240Y0141412D01*
X0078391Y0139414D02*
X0069007Y0139414D01*
X0068311Y0131420D02*
X0079222Y0131420D01*
X0080138Y0130177D02*
X0078459Y0129482D01*
X0077755Y0128778D01*
X0069642Y0128778D01*
X0068941Y0129480D01*
X0067250Y0130180D01*
X0059420Y0130180D01*
X0057729Y0129480D01*
X0056435Y0128186D01*
X0055735Y0126495D01*
X0055735Y0124665D01*
X0056435Y0122974D01*
X0057729Y0121680D01*
X0059420Y0120980D01*
X0067250Y0120980D01*
X0068941Y0121680D01*
X0069638Y0122378D01*
X0077817Y0122378D01*
X0078459Y0121736D01*
X0080138Y0121040D01*
X0081955Y0121040D01*
X0083635Y0121736D01*
X0084920Y0123021D01*
X0085615Y0124700D01*
X0085615Y0126517D01*
X0084920Y0128196D01*
X0083635Y0129482D01*
X0081955Y0130177D01*
X0080138Y0130177D01*
X0078398Y0129421D02*
X0068999Y0129421D01*
X0057671Y0129421D02*
X0010812Y0129421D01*
X0010812Y0131420D02*
X0043259Y0131420D01*
X0040391Y0133418D02*
X0010812Y0133418D01*
X0010812Y0135417D02*
X0038392Y0135417D01*
X0036394Y0137415D02*
X0010812Y0137415D01*
X0010812Y0139414D02*
X0034395Y0139414D01*
X0032397Y0141412D02*
X0010812Y0141412D01*
X0010812Y0143411D02*
X0030398Y0143411D01*
X0028760Y0145409D02*
X0010812Y0145409D01*
X0010812Y0147408D02*
X0028390Y0147408D01*
X0028390Y0149406D02*
X0010812Y0149406D01*
X0010812Y0151405D02*
X0028390Y0151405D01*
X0028390Y0153403D02*
X0010812Y0153403D01*
X0010812Y0155402D02*
X0028390Y0155402D01*
X0028390Y0157400D02*
X0010812Y0157400D01*
X0010812Y0159399D02*
X0028390Y0159399D01*
X0028390Y0161397D02*
X0010812Y0161397D01*
X0010812Y0163396D02*
X0028390Y0163396D01*
X0028390Y0165394D02*
X0010812Y0165394D01*
X0010812Y0167393D02*
X0028390Y0167393D01*
X0028390Y0169391D02*
X0010812Y0169391D01*
X0010812Y0171390D02*
X0028390Y0171390D01*
X0028390Y0173388D02*
X0010812Y0173388D01*
X0010812Y0175387D02*
X0028390Y0175387D01*
X0028390Y0177385D02*
X0010812Y0177385D01*
X0010812Y0179384D02*
X0028390Y0179384D01*
X0028390Y0181382D02*
X0010812Y0181382D01*
X0010812Y0183381D02*
X0028390Y0183381D01*
X0028390Y0185379D02*
X0010812Y0185379D01*
X0010812Y0187378D02*
X0028390Y0187378D01*
X0028390Y0189376D02*
X0010812Y0189376D01*
X0010812Y0191375D02*
X0028390Y0191375D01*
X0028390Y0193373D02*
X0010812Y0193373D01*
X0010812Y0195372D02*
X0028390Y0195372D01*
X0028390Y0197370D02*
X0010812Y0197370D01*
X0010812Y0199369D02*
X0028390Y0199369D01*
X0028390Y0201367D02*
X0010812Y0201367D01*
X0010812Y0203366D02*
X0028390Y0203366D01*
X0028390Y0205364D02*
X0010812Y0205364D01*
X0010812Y0207363D02*
X0028390Y0207363D01*
X0028390Y0209361D02*
X0010812Y0209361D01*
X0010812Y0211360D02*
X0028390Y0211360D01*
X0028390Y0213358D02*
X0010812Y0213358D01*
X0010812Y0215357D02*
X0028390Y0215357D01*
X0028390Y0217355D02*
X0010812Y0217355D01*
X0010812Y0219354D02*
X0028390Y0219354D01*
X0028390Y0221353D02*
X0010812Y0221353D01*
X0010812Y0223351D02*
X0028390Y0223351D01*
X0028390Y0225350D02*
X0010812Y0225350D01*
X0010812Y0227348D02*
X0028390Y0227348D01*
X0028390Y0229347D02*
X0010812Y0229347D01*
X0010812Y0231345D02*
X0028390Y0231345D01*
X0028390Y0233344D02*
X0010812Y0233344D01*
X0010812Y0235342D02*
X0028390Y0235342D01*
X0028390Y0237341D02*
X0010812Y0237341D01*
X0010812Y0239339D02*
X0028390Y0239339D01*
X0028390Y0241338D02*
X0010812Y0241338D01*
X0010812Y0243336D02*
X0028390Y0243336D01*
X0028390Y0245335D02*
X0010812Y0245335D01*
X0010812Y0247333D02*
X0028390Y0247333D01*
X0028390Y0249332D02*
X0010812Y0249332D01*
X0010812Y0251330D02*
X0028390Y0251330D01*
X0028390Y0253329D02*
X0010812Y0253329D01*
X0010812Y0255327D02*
X0028390Y0255327D01*
X0028390Y0257326D02*
X0010812Y0257326D01*
X0010812Y0259324D02*
X0028390Y0259324D01*
X0028390Y0261323D02*
X0010812Y0261323D01*
X0010812Y0263321D02*
X0028390Y0263321D01*
X0028390Y0265320D02*
X0010812Y0265320D01*
X0010812Y0267318D02*
X0028390Y0267318D01*
X0028390Y0269317D02*
X0010812Y0269317D01*
X0010812Y0271315D02*
X0028390Y0271315D01*
X0028390Y0273314D02*
X0010812Y0273314D01*
X0010812Y0275312D02*
X0028390Y0275312D01*
X0028390Y0277311D02*
X0010812Y0277311D01*
X0010812Y0279309D02*
X0028390Y0279309D01*
X0028390Y0281308D02*
X0010812Y0281308D01*
X0010812Y0283306D02*
X0028390Y0283306D01*
X0028390Y0285305D02*
X0010812Y0285305D01*
X0010812Y0287303D02*
X0028904Y0287303D01*
X0030748Y0289302D02*
X0010812Y0289302D01*
X0010812Y0291300D02*
X0032746Y0291300D01*
X0034745Y0293299D02*
X0010812Y0293299D01*
X0010812Y0295297D02*
X0036743Y0295297D01*
X0038742Y0297296D02*
X0010812Y0297296D01*
X0010812Y0299294D02*
X0040740Y0299294D01*
X0042739Y0301293D02*
X0010812Y0301293D01*
X0010812Y0303291D02*
X0045273Y0303291D01*
X0048340Y0295297D02*
X0291901Y0295297D01*
X0293008Y0293299D02*
X0046341Y0293299D01*
X0044343Y0291300D02*
X0344557Y0291300D01*
X0342559Y0289302D02*
X0042344Y0289302D01*
X0040346Y0287303D02*
X0340560Y0287303D01*
X0338562Y0285305D02*
X0038347Y0285305D01*
X0036590Y0283306D02*
X0336563Y0283306D01*
X0334565Y0281308D02*
X0036590Y0281308D01*
X0036590Y0279309D02*
X0332566Y0279309D01*
X0330568Y0277311D02*
X0036590Y0277311D01*
X0036590Y0275312D02*
X0328569Y0275312D01*
X0326571Y0273314D02*
X0036590Y0273314D01*
X0036590Y0271315D02*
X0138366Y0271315D01*
X0136367Y0269317D02*
X0036590Y0269317D01*
X0069088Y0249332D02*
X0076570Y0249332D01*
X0085523Y0249332D02*
X0116382Y0249332D01*
X0118381Y0251330D02*
X0085607Y0251330D01*
X0086867Y0253329D02*
X0120379Y0253329D01*
X0122378Y0255327D02*
X0087297Y0255327D01*
X0087100Y0257326D02*
X0124376Y0257326D01*
X0126375Y0259324D02*
X0086170Y0259324D01*
X0083584Y0261323D02*
X0128373Y0261323D01*
X0133974Y0255327D02*
X0134797Y0255327D01*
X0135226Y0253329D02*
X0131976Y0253329D01*
X0129977Y0251330D02*
X0136486Y0251330D01*
X0138309Y0249332D02*
X0127979Y0249332D01*
X0125980Y0247333D02*
X0136816Y0247333D01*
X0136478Y0245335D02*
X0123982Y0245335D01*
X0121983Y0243336D02*
X0137043Y0243336D01*
X0139420Y0241338D02*
X0119985Y0241338D01*
X0117986Y0239339D02*
X0138316Y0239339D01*
X0136819Y0237341D02*
X0115988Y0237341D01*
X0113989Y0235342D02*
X0136478Y0235342D01*
X0137040Y0233344D02*
X0111991Y0233344D01*
X0108388Y0241338D02*
X0084976Y0241338D01*
X0085615Y0243336D02*
X0110387Y0243336D01*
X0112385Y0245335D02*
X0085615Y0245335D01*
X0085615Y0247333D02*
X0114384Y0247333D01*
X0142674Y0241338D02*
X0153960Y0241338D01*
X0152992Y0239339D02*
X0143777Y0239339D01*
X0142692Y0231345D02*
X0153942Y0231345D01*
X0153000Y0229347D02*
X0143770Y0229347D01*
X0139402Y0231345D02*
X0082692Y0231345D01*
X0083770Y0229347D02*
X0138324Y0229347D01*
X0136822Y0227348D02*
X0085271Y0227348D01*
X0085615Y0225350D02*
X0136478Y0225350D01*
X0137037Y0223351D02*
X0085057Y0223351D01*
X0082710Y0221353D02*
X0139384Y0221353D01*
X0138331Y0219354D02*
X0083762Y0219354D01*
X0085268Y0217355D02*
X0136825Y0217355D01*
X0136478Y0215357D02*
X0085615Y0215357D01*
X0085060Y0213358D02*
X0137034Y0213358D01*
X0139366Y0211360D02*
X0082728Y0211360D01*
X0083755Y0209361D02*
X0138339Y0209361D01*
X0136829Y0207363D02*
X0085265Y0207363D01*
X0085615Y0205364D02*
X0136478Y0205364D01*
X0137031Y0203366D02*
X0085063Y0203366D01*
X0082746Y0201367D02*
X0139348Y0201367D01*
X0138346Y0199369D02*
X0083747Y0199369D01*
X0085262Y0197370D02*
X0136832Y0197370D01*
X0136478Y0195372D02*
X0085615Y0195372D01*
X0085066Y0193373D02*
X0137028Y0193373D01*
X0139330Y0191375D02*
X0082764Y0191375D01*
X0083740Y0189376D02*
X0138354Y0189376D01*
X0136835Y0187378D02*
X0085259Y0187378D01*
X0085615Y0185379D02*
X0136478Y0185379D01*
X0137025Y0183381D02*
X0085069Y0183381D01*
X0082782Y0181382D02*
X0139312Y0181382D01*
X0138361Y0179384D02*
X0083732Y0179384D01*
X0085256Y0177385D02*
X0136838Y0177385D01*
X0136478Y0175387D02*
X0085615Y0175387D01*
X0085072Y0173388D02*
X0137022Y0173388D01*
X0139294Y0171390D02*
X0082800Y0171390D01*
X0083725Y0169391D02*
X0138369Y0169391D01*
X0136841Y0167393D02*
X0085253Y0167393D01*
X0085615Y0165394D02*
X0136478Y0165394D01*
X0137018Y0163396D02*
X0085075Y0163396D01*
X0082818Y0161397D02*
X0139276Y0161397D01*
X0138376Y0159399D02*
X0083718Y0159399D01*
X0085250Y0157400D02*
X0136844Y0157400D01*
X0136478Y0155402D02*
X0085615Y0155402D01*
X0085078Y0153403D02*
X0137015Y0153403D01*
X0139258Y0151405D02*
X0082836Y0151405D01*
X0083710Y0149406D02*
X0138383Y0149406D01*
X0136847Y0147408D02*
X0085246Y0147408D01*
X0085615Y0145409D02*
X0136478Y0145409D01*
X0137012Y0143411D02*
X0085081Y0143411D01*
X0082854Y0141412D02*
X0139240Y0141412D01*
X0138391Y0139414D02*
X0083703Y0139414D01*
X0085243Y0137415D02*
X0136850Y0137415D01*
X0136478Y0135417D02*
X0085615Y0135417D01*
X0085084Y0133418D02*
X0137009Y0133418D01*
X0139222Y0131420D02*
X0082872Y0131420D01*
X0083695Y0129421D02*
X0138398Y0129421D01*
X0136853Y0127422D02*
X0085240Y0127422D01*
X0085615Y0125424D02*
X0136478Y0125424D01*
X0137006Y0123425D02*
X0085087Y0123425D01*
X0082889Y0121427D02*
X0139204Y0121427D01*
X0138406Y0119428D02*
X0083688Y0119428D01*
X0083635Y0119482D02*
X0081955Y0120177D01*
X0080138Y0120177D01*
X0078459Y0119482D01*
X0077174Y0118196D01*
X0076478Y0116517D01*
X0076478Y0114700D01*
X0077174Y0113021D01*
X0078459Y0111736D01*
X0080138Y0111040D01*
X0081955Y0111040D01*
X0083635Y0111736D01*
X0084920Y0113021D01*
X0085615Y0114700D01*
X0085615Y0116517D01*
X0084920Y0118196D01*
X0083635Y0119482D01*
X0085237Y0117430D02*
X0136856Y0117430D01*
X0136478Y0115431D02*
X0085615Y0115431D01*
X0085090Y0113433D02*
X0137003Y0113433D01*
X0139186Y0111434D02*
X0082907Y0111434D01*
X0083680Y0109436D02*
X0138413Y0109436D01*
X0136859Y0107437D02*
X0085234Y0107437D01*
X0085615Y0105439D02*
X0136478Y0105439D01*
X0137000Y0103440D02*
X0085094Y0103440D01*
X0083296Y0101442D02*
X0138797Y0101442D01*
X0136043Y0099443D02*
X0086051Y0099443D01*
X0087051Y0097445D02*
X0135042Y0097445D01*
X0134797Y0095446D02*
X0087297Y0095446D01*
X0086917Y0093448D02*
X0135177Y0093448D01*
X0136367Y0091449D02*
X0085726Y0091449D01*
X0076367Y0091449D02*
X0010812Y0091449D01*
X0010812Y0093448D02*
X0075177Y0093448D01*
X0074797Y0095446D02*
X0010812Y0095446D01*
X0010812Y0097445D02*
X0075042Y0097445D01*
X0076043Y0099443D02*
X0010812Y0099443D01*
X0010812Y0101442D02*
X0058305Y0101442D01*
X0056242Y0103440D02*
X0010812Y0103440D01*
X0010812Y0105439D02*
X0055735Y0105439D01*
X0056125Y0107437D02*
X0010812Y0107437D01*
X0010812Y0109436D02*
X0057685Y0109436D01*
X0058323Y0111434D02*
X0010812Y0111434D01*
X0010812Y0113433D02*
X0056245Y0113433D01*
X0056435Y0112974D02*
X0057729Y0111680D01*
X0059420Y0110980D01*
X0067250Y0110980D01*
X0068941Y0111680D01*
X0070235Y0112974D01*
X0070935Y0114665D01*
X0070935Y0116495D01*
X0070235Y0118186D01*
X0068941Y0119480D01*
X0067250Y0120180D01*
X0059420Y0120180D01*
X0057729Y0119480D01*
X0056435Y0118186D01*
X0055735Y0116495D01*
X0055735Y0114665D01*
X0056435Y0112974D01*
X0055735Y0115431D02*
X0010812Y0115431D01*
X0010812Y0117430D02*
X0056122Y0117430D01*
X0057678Y0119428D02*
X0010812Y0119428D01*
X0010812Y0121427D02*
X0058341Y0121427D01*
X0056248Y0123425D02*
X0010812Y0123425D01*
X0010812Y0125424D02*
X0055735Y0125424D01*
X0056119Y0127422D02*
X0010812Y0127422D01*
X0068329Y0121427D02*
X0079204Y0121427D01*
X0078406Y0119428D02*
X0068992Y0119428D01*
X0070548Y0117430D02*
X0076856Y0117430D01*
X0076478Y0115431D02*
X0070935Y0115431D01*
X0070425Y0113433D02*
X0077003Y0113433D01*
X0079186Y0111434D02*
X0068347Y0111434D01*
X0068984Y0109436D02*
X0078413Y0109436D01*
X0078797Y0101442D02*
X0068365Y0101442D01*
X0142907Y0111434D02*
X0153726Y0111434D01*
X0153089Y0109436D02*
X0143680Y0109436D01*
X0143688Y0119428D02*
X0153081Y0119428D01*
X0153744Y0121427D02*
X0142889Y0121427D01*
X0143695Y0129421D02*
X0153074Y0129421D01*
X0153762Y0131420D02*
X0142872Y0131420D01*
X0143703Y0139414D02*
X0153067Y0139414D01*
X0153780Y0141412D02*
X0142854Y0141412D01*
X0143710Y0149406D02*
X0153059Y0149406D01*
X0153798Y0151405D02*
X0142836Y0151405D01*
X0143718Y0159399D02*
X0153052Y0159399D01*
X0153816Y0161397D02*
X0142818Y0161397D01*
X0143725Y0169391D02*
X0153044Y0169391D01*
X0153834Y0171390D02*
X0142800Y0171390D01*
X0143732Y0179384D02*
X0153037Y0179384D01*
X0153852Y0181382D02*
X0142782Y0181382D01*
X0143740Y0189376D02*
X0153029Y0189376D01*
X0153870Y0191375D02*
X0142764Y0191375D01*
X0143747Y0199369D02*
X0153022Y0199369D01*
X0153888Y0201367D02*
X0142746Y0201367D01*
X0143755Y0209361D02*
X0153014Y0209361D01*
X0153906Y0211360D02*
X0142728Y0211360D01*
X0143762Y0219354D02*
X0153007Y0219354D01*
X0153924Y0221353D02*
X0142710Y0221353D01*
X0143784Y0249332D02*
X0152985Y0249332D01*
X0078316Y0239339D02*
X0069081Y0239339D01*
X0068113Y0241338D02*
X0077118Y0241338D01*
X0079402Y0231345D02*
X0068131Y0231345D01*
X0069074Y0229347D02*
X0078324Y0229347D01*
X0079384Y0221353D02*
X0068149Y0221353D01*
X0069066Y0219354D02*
X0078331Y0219354D01*
X0079366Y0211360D02*
X0068167Y0211360D01*
X0069059Y0209361D02*
X0078339Y0209361D01*
X0079348Y0201367D02*
X0068185Y0201367D01*
X0069051Y0199369D02*
X0078346Y0199369D01*
X0079330Y0191375D02*
X0068203Y0191375D01*
X0069044Y0189376D02*
X0078354Y0189376D01*
X0079312Y0181382D02*
X0068221Y0181382D01*
X0069036Y0179384D02*
X0078361Y0179384D01*
X0079294Y0171390D02*
X0068239Y0171390D01*
X0069029Y0169391D02*
X0078369Y0169391D01*
X0079276Y0161397D02*
X0068257Y0161397D01*
X0069021Y0159399D02*
X0078376Y0159399D01*
X0079258Y0151405D02*
X0068275Y0151405D01*
X0069014Y0149406D02*
X0078383Y0149406D01*
X0237186Y0071860D02*
X0237186Y0066147D01*
X0249727Y0071464D02*
X0565264Y0071464D01*
X0565264Y0073463D02*
X0249727Y0073463D01*
X0249727Y0075461D02*
X0565264Y0075461D01*
X0565264Y0077460D02*
X0249727Y0077460D01*
X0249727Y0079458D02*
X0565264Y0079458D01*
X0565264Y0081457D02*
X0249727Y0081457D01*
X0249727Y0083455D02*
X0565264Y0083455D01*
X0565264Y0085454D02*
X0249727Y0085454D01*
X0249727Y0087452D02*
X0565264Y0087452D01*
X0565264Y0089451D02*
X0249727Y0089451D01*
X0249727Y0091449D02*
X0565264Y0091449D01*
X0565264Y0093448D02*
X0249727Y0093448D01*
X0249727Y0095446D02*
X0565264Y0095446D01*
X0565264Y0097445D02*
X0249727Y0097445D01*
X0249727Y0099443D02*
X0565264Y0099443D01*
X0565264Y0101442D02*
X0249727Y0101442D01*
X0249727Y0103440D02*
X0565264Y0103440D01*
X0565264Y0105439D02*
X0249727Y0105439D01*
X0249727Y0107437D02*
X0565264Y0107437D01*
X0565264Y0109436D02*
X0249727Y0109436D01*
X0249727Y0111434D02*
X0565264Y0111434D01*
X0565264Y0113433D02*
X0249727Y0113433D01*
X0249727Y0115431D02*
X0565264Y0115431D01*
X0565264Y0117430D02*
X0249727Y0117430D01*
X0249727Y0119428D02*
X0565264Y0119428D01*
X0565264Y0121427D02*
X0249727Y0121427D01*
X0249727Y0123425D02*
X0565264Y0123425D01*
X0565264Y0125424D02*
X0249727Y0125424D01*
X0249727Y0127422D02*
X0565264Y0127422D01*
X0565264Y0129421D02*
X0249727Y0129421D01*
X0249727Y0131420D02*
X0565264Y0131420D01*
X0565264Y0133418D02*
X0249727Y0133418D01*
X0249727Y0135417D02*
X0565264Y0135417D01*
X0565264Y0137415D02*
X0249727Y0137415D01*
X0249727Y0139414D02*
X0565264Y0139414D01*
X0565264Y0141412D02*
X0249727Y0141412D01*
X0249727Y0143411D02*
X0565264Y0143411D01*
X0565264Y0145409D02*
X0249727Y0145409D01*
X0249727Y0147408D02*
X0565264Y0147408D01*
X0565264Y0149406D02*
X0249727Y0149406D01*
X0249727Y0151405D02*
X0565264Y0151405D01*
X0565264Y0153403D02*
X0249727Y0153403D01*
X0249727Y0155402D02*
X0565264Y0155402D01*
X0565264Y0157400D02*
X0249727Y0157400D01*
X0249727Y0159399D02*
X0565264Y0159399D01*
X0565264Y0161397D02*
X0249727Y0161397D01*
X0249727Y0163396D02*
X0565264Y0163396D01*
X0565264Y0165394D02*
X0249727Y0165394D01*
X0249727Y0167393D02*
X0565264Y0167393D01*
X0565264Y0169391D02*
X0249727Y0169391D01*
X0249727Y0171390D02*
X0565264Y0171390D01*
X0565264Y0173388D02*
X0249727Y0173388D01*
X0249727Y0175387D02*
X0565264Y0175387D01*
X0565264Y0177385D02*
X0249727Y0177385D01*
X0249727Y0179384D02*
X0565264Y0179384D01*
X0565264Y0181382D02*
X0249727Y0181382D01*
X0249727Y0183381D02*
X0565264Y0183381D01*
X0565264Y0185379D02*
X0249727Y0185379D01*
X0249727Y0187378D02*
X0565264Y0187378D01*
X0565264Y0189376D02*
X0249727Y0189376D01*
X0249727Y0191375D02*
X0565264Y0191375D01*
X0565264Y0193373D02*
X0249727Y0193373D01*
X0249727Y0195372D02*
X0565264Y0195372D01*
X0565264Y0197370D02*
X0249727Y0197370D01*
X0249727Y0199369D02*
X0565264Y0199369D01*
X0565264Y0201367D02*
X0249727Y0201367D01*
X0249727Y0203366D02*
X0565264Y0203366D01*
X0565264Y0205364D02*
X0249727Y0205364D01*
X0249727Y0207363D02*
X0565264Y0207363D01*
X0565264Y0209361D02*
X0249727Y0209361D01*
X0249727Y0211360D02*
X0565264Y0211360D01*
X0565264Y0213358D02*
X0249727Y0213358D01*
X0249727Y0215357D02*
X0565264Y0215357D01*
X0565264Y0217355D02*
X0249727Y0217355D01*
X0249727Y0219354D02*
X0565264Y0219354D01*
X0565264Y0221353D02*
X0249727Y0221353D01*
X0249768Y0223351D02*
X0565264Y0223351D01*
X0565264Y0225350D02*
X0251766Y0225350D01*
X0253765Y0227348D02*
X0565264Y0227348D01*
X0565264Y0229347D02*
X0255763Y0229347D01*
X0257762Y0231345D02*
X0565264Y0231345D01*
X0565264Y0233344D02*
X0259760Y0233344D01*
X0261759Y0235342D02*
X0565264Y0235342D01*
X0565264Y0237341D02*
X0263757Y0237341D01*
X0265756Y0239339D02*
X0565264Y0239339D01*
X0565264Y0241338D02*
X0267754Y0241338D01*
X0269753Y0243336D02*
X0565264Y0243336D01*
X0565264Y0245335D02*
X0271751Y0245335D01*
X0273750Y0247333D02*
X0565264Y0247333D01*
X0565264Y0249332D02*
X0275748Y0249332D01*
X0277747Y0251330D02*
X0565264Y0251330D01*
X0565264Y0253329D02*
X0279745Y0253329D01*
X0281744Y0255327D02*
X0565264Y0255327D01*
X0565264Y0257326D02*
X0283742Y0257326D01*
X0285741Y0259324D02*
X0565264Y0259324D01*
X0565264Y0261323D02*
X0287739Y0261323D01*
X0289738Y0263321D02*
X0565264Y0263321D01*
X0565264Y0265320D02*
X0330173Y0265320D01*
X0332172Y0267318D02*
X0565264Y0267318D01*
X0565264Y0269317D02*
X0334170Y0269317D01*
X0336169Y0271315D02*
X0565264Y0271315D01*
X0565264Y0273314D02*
X0338167Y0273314D01*
X0340166Y0275312D02*
X0565264Y0275312D01*
X0565264Y0277311D02*
X0342164Y0277311D01*
X0344163Y0279309D02*
X0565264Y0279309D01*
X0565264Y0281308D02*
X0346161Y0281308D01*
X0348160Y0283306D02*
X0565264Y0283306D01*
X0565264Y0285305D02*
X0350158Y0285305D01*
X0352157Y0287303D02*
X0565264Y0287303D01*
X0565264Y0289302D02*
X0354155Y0289302D01*
X0356154Y0291300D02*
X0565264Y0291300D01*
X0565264Y0293299D02*
X0482048Y0293299D01*
X0482526Y0293776D02*
X0483226Y0295467D01*
X0483226Y0303297D01*
X0482526Y0304988D01*
X0481232Y0306282D01*
X0479541Y0306982D01*
X0477711Y0306982D01*
X0476020Y0306282D01*
X0474726Y0304988D01*
X0474026Y0303297D01*
X0474026Y0295467D01*
X0474726Y0293776D01*
X0476020Y0292482D01*
X0477711Y0291782D01*
X0479541Y0291782D01*
X0481232Y0292482D01*
X0482526Y0293776D01*
X0483156Y0295297D02*
X0565264Y0295297D01*
X0565264Y0297296D02*
X0483226Y0297296D01*
X0483226Y0299294D02*
X0565264Y0299294D01*
X0565264Y0301293D02*
X0483226Y0301293D01*
X0483226Y0303291D02*
X0565264Y0303291D01*
X0565264Y0305290D02*
X0482223Y0305290D01*
X0475029Y0305290D02*
X0472223Y0305290D01*
X0472526Y0304988D02*
X0471232Y0306282D01*
X0469541Y0306982D01*
X0467711Y0306982D01*
X0466020Y0306282D01*
X0464726Y0304988D01*
X0464026Y0303297D01*
X0464026Y0295467D01*
X0464726Y0293776D01*
X0466020Y0292482D01*
X0467711Y0291782D01*
X0469541Y0291782D01*
X0471232Y0292482D01*
X0472526Y0293776D01*
X0473226Y0295467D01*
X0473226Y0303297D01*
X0472526Y0304988D01*
X0473226Y0303291D02*
X0474026Y0303291D01*
X0474026Y0301293D02*
X0473226Y0301293D01*
X0473226Y0299294D02*
X0474026Y0299294D01*
X0474026Y0297296D02*
X0473226Y0297296D01*
X0473156Y0295297D02*
X0474096Y0295297D01*
X0475204Y0293299D02*
X0472048Y0293299D01*
X0465204Y0293299D02*
X0462048Y0293299D01*
X0462526Y0293776D02*
X0463226Y0295467D01*
X0463226Y0303297D01*
X0462526Y0304988D01*
X0461232Y0306282D01*
X0459541Y0306982D01*
X0457711Y0306982D01*
X0456020Y0306282D01*
X0454726Y0304988D01*
X0454026Y0303297D01*
X0454026Y0295467D01*
X0454726Y0293776D01*
X0456020Y0292482D01*
X0457711Y0291782D01*
X0459541Y0291782D01*
X0461232Y0292482D01*
X0462526Y0293776D01*
X0463156Y0295297D02*
X0464096Y0295297D01*
X0464026Y0297296D02*
X0463226Y0297296D01*
X0463226Y0299294D02*
X0464026Y0299294D01*
X0464026Y0301293D02*
X0463226Y0301293D01*
X0463226Y0303291D02*
X0464026Y0303291D01*
X0465029Y0305290D02*
X0462223Y0305290D01*
X0455029Y0305290D02*
X0452223Y0305290D01*
X0452526Y0304988D02*
X0451232Y0306282D01*
X0449541Y0306982D01*
X0447711Y0306982D01*
X0446020Y0306282D01*
X0444726Y0304988D01*
X0444026Y0303297D01*
X0444026Y0295467D01*
X0444726Y0293776D01*
X0446020Y0292482D01*
X0447711Y0291782D01*
X0449541Y0291782D01*
X0451232Y0292482D01*
X0452526Y0293776D01*
X0453226Y0295467D01*
X0453226Y0303297D01*
X0452526Y0304988D01*
X0453226Y0303291D02*
X0454026Y0303291D01*
X0454026Y0301293D02*
X0453226Y0301293D01*
X0453226Y0299294D02*
X0454026Y0299294D01*
X0454026Y0297296D02*
X0453226Y0297296D01*
X0453156Y0295297D02*
X0454096Y0295297D01*
X0455204Y0293299D02*
X0452048Y0293299D01*
X0445204Y0293299D02*
X0404600Y0293299D01*
X0405707Y0295297D02*
X0444096Y0295297D01*
X0444026Y0297296D02*
X0405777Y0297296D01*
X0406215Y0299294D02*
X0444026Y0299294D01*
X0444026Y0301293D02*
X0405777Y0301293D01*
X0405777Y0303291D02*
X0444026Y0303291D01*
X0445029Y0305290D02*
X0404774Y0305290D01*
X0397580Y0305290D02*
X0394774Y0305290D01*
X0387580Y0305290D02*
X0384774Y0305290D01*
X0377580Y0305290D02*
X0374774Y0305290D01*
X0367580Y0305290D02*
X0330028Y0305290D01*
X0331031Y0303291D02*
X0357286Y0303291D01*
X0354550Y0301293D02*
X0331031Y0301293D01*
X0331460Y0299294D02*
X0352551Y0299294D01*
X0350553Y0297296D02*
X0331031Y0297296D01*
X0330960Y0295297D02*
X0348554Y0295297D01*
X0346556Y0293299D02*
X0329853Y0293299D01*
X0323008Y0293299D02*
X0319853Y0293299D01*
X0320960Y0295297D02*
X0321901Y0295297D01*
X0313008Y0293299D02*
X0309853Y0293299D01*
X0310960Y0295297D02*
X0311901Y0295297D01*
X0303008Y0293299D02*
X0299853Y0293299D01*
X0300960Y0295297D02*
X0301901Y0295297D01*
X0302833Y0305290D02*
X0300028Y0305290D01*
X0310028Y0305290D02*
X0312833Y0305290D01*
X0320028Y0305290D02*
X0322833Y0305290D01*
X0292833Y0305290D02*
X0010812Y0305290D01*
X0010812Y0307289D02*
X0565264Y0307289D01*
X0565251Y0309287D02*
X0010838Y0309287D01*
X0011180Y0311286D02*
X0564943Y0311286D01*
X0564308Y0313284D02*
X0011853Y0313284D01*
X0013055Y0315283D02*
X0563140Y0315283D01*
X0561019Y0317281D02*
X0015205Y0317281D01*
X0358152Y0293299D02*
X0367755Y0293299D01*
X0374600Y0293299D02*
X0377755Y0293299D01*
X0384600Y0293299D02*
X0387755Y0293299D01*
X0394600Y0293299D02*
X0397755Y0293299D01*
X0331483Y0053478D02*
X0327995Y0053478D01*
X0294062Y0031494D02*
X0288234Y0031494D01*
X0281719Y0023500D02*
X0318539Y0023500D01*
X0320538Y0021501D02*
X0304643Y0021501D01*
X0305175Y0019503D02*
X0322536Y0019503D01*
X0299536Y0021530D02*
X0299536Y0013455D01*
X0406031Y0021501D02*
X0424491Y0021501D01*
D24*
X0289973Y0034989D03*
X0285176Y0030033D03*
X0279713Y0026280D03*
X0274725Y0022669D03*
X0274751Y0045564D03*
X0279576Y0049824D03*
X0285111Y0054225D03*
X0289936Y0060757D03*
D25*
X0553027Y0020886D03*
X0553027Y0309064D03*
X0020886Y0309064D03*
X0020769Y0020886D03*
M02*
