G75*
%MOIN*%
%OFA0B0*%
%FSLAX25Y25*%
%IPPOS*%
%LPD*%
%AMOC8*
5,1,8,0,0,1.08239X$1,22.5*
%
%ADD10C,0.00600*%
%ADD11C,0.00000*%
%ADD12C,0.00200*%
%ADD13C,0.00400*%
D10*
X0021119Y0007483D02*
X0279165Y0007512D01*
X0555044Y0007512D01*
X0555371Y0007516D01*
X0555697Y0007528D01*
X0556023Y0007548D01*
X0556349Y0007575D01*
X0556674Y0007611D01*
X0556997Y0007654D01*
X0557320Y0007705D01*
X0557642Y0007764D01*
X0557961Y0007831D01*
X0558280Y0007905D01*
X0558596Y0007987D01*
X0558910Y0008077D01*
X0559222Y0008174D01*
X0559531Y0008278D01*
X0559838Y0008391D01*
X0560142Y0008510D01*
X0560443Y0008637D01*
X0560741Y0008771D01*
X0561036Y0008912D01*
X0561327Y0009061D01*
X0561614Y0009216D01*
X0561898Y0009378D01*
X0562178Y0009547D01*
X0562453Y0009723D01*
X0562724Y0009905D01*
X0562991Y0010094D01*
X0563253Y0010289D01*
X0563510Y0010491D01*
X0563762Y0010698D01*
X0564009Y0010912D01*
X0564251Y0011132D01*
X0564488Y0011357D01*
X0564719Y0011588D01*
X0564944Y0011825D01*
X0565164Y0012067D01*
X0565378Y0012314D01*
X0565585Y0012566D01*
X0565787Y0012823D01*
X0565982Y0013085D01*
X0566171Y0013352D01*
X0566353Y0013623D01*
X0566529Y0013898D01*
X0566698Y0014178D01*
X0566860Y0014462D01*
X0567015Y0014749D01*
X0567164Y0015040D01*
X0567305Y0015335D01*
X0567439Y0015633D01*
X0567566Y0015934D01*
X0567685Y0016238D01*
X0567798Y0016545D01*
X0567902Y0016854D01*
X0567999Y0017166D01*
X0568089Y0017480D01*
X0568171Y0017796D01*
X0568245Y0018115D01*
X0568312Y0018434D01*
X0568371Y0018756D01*
X0568422Y0019079D01*
X0568465Y0019402D01*
X0568501Y0019727D01*
X0568528Y0020053D01*
X0568548Y0020379D01*
X0568560Y0020705D01*
X0568564Y0021032D01*
X0568564Y0309091D01*
X0568565Y0309091D02*
X0568561Y0309415D01*
X0568549Y0309739D01*
X0568530Y0310063D01*
X0568502Y0310386D01*
X0568467Y0310708D01*
X0568424Y0311029D01*
X0568374Y0311349D01*
X0568315Y0311668D01*
X0568249Y0311986D01*
X0568175Y0312301D01*
X0568094Y0312615D01*
X0568005Y0312927D01*
X0567908Y0313236D01*
X0567805Y0313543D01*
X0567693Y0313848D01*
X0567575Y0314149D01*
X0567449Y0314448D01*
X0567316Y0314744D01*
X0567176Y0315036D01*
X0567029Y0315325D01*
X0566874Y0315610D01*
X0566713Y0315891D01*
X0566546Y0316169D01*
X0566371Y0316442D01*
X0566191Y0316711D01*
X0566003Y0316976D01*
X0565809Y0317235D01*
X0565610Y0317491D01*
X0565404Y0317741D01*
X0565192Y0317986D01*
X0564974Y0318226D01*
X0564750Y0318461D01*
X0564521Y0318690D01*
X0564286Y0318914D01*
X0564046Y0319132D01*
X0563801Y0319344D01*
X0563551Y0319550D01*
X0563295Y0319749D01*
X0563036Y0319943D01*
X0562771Y0320131D01*
X0562502Y0320311D01*
X0562229Y0320486D01*
X0561951Y0320653D01*
X0561670Y0320814D01*
X0561385Y0320969D01*
X0561096Y0321116D01*
X0560804Y0321256D01*
X0560508Y0321389D01*
X0560209Y0321515D01*
X0559908Y0321633D01*
X0559603Y0321745D01*
X0559296Y0321848D01*
X0558987Y0321945D01*
X0558675Y0322034D01*
X0558361Y0322115D01*
X0558046Y0322189D01*
X0557728Y0322255D01*
X0557409Y0322314D01*
X0557089Y0322364D01*
X0556768Y0322407D01*
X0556446Y0322442D01*
X0556123Y0322470D01*
X0555799Y0322489D01*
X0555475Y0322501D01*
X0555151Y0322505D01*
X0021123Y0322505D01*
X0020794Y0322501D01*
X0020465Y0322489D01*
X0020137Y0322469D01*
X0019809Y0322441D01*
X0019482Y0322406D01*
X0019156Y0322362D01*
X0018831Y0322311D01*
X0018508Y0322251D01*
X0018186Y0322184D01*
X0017865Y0322109D01*
X0017547Y0322027D01*
X0017231Y0321937D01*
X0016917Y0321839D01*
X0016605Y0321733D01*
X0016296Y0321620D01*
X0015990Y0321500D01*
X0015687Y0321372D01*
X0015387Y0321237D01*
X0015090Y0321095D01*
X0014797Y0320946D01*
X0014508Y0320789D01*
X0014222Y0320626D01*
X0013941Y0320456D01*
X0013663Y0320279D01*
X0013391Y0320095D01*
X0013122Y0319905D01*
X0012858Y0319709D01*
X0012599Y0319506D01*
X0012345Y0319297D01*
X0012097Y0319082D01*
X0011853Y0318861D01*
X0011615Y0318634D01*
X0011382Y0318401D01*
X0011155Y0318163D01*
X0010934Y0317919D01*
X0010719Y0317671D01*
X0010510Y0317417D01*
X0010307Y0317158D01*
X0010111Y0316894D01*
X0009921Y0316625D01*
X0009737Y0316353D01*
X0009560Y0316075D01*
X0009390Y0315794D01*
X0009227Y0315508D01*
X0009070Y0315219D01*
X0008921Y0314926D01*
X0008779Y0314629D01*
X0008644Y0314329D01*
X0008516Y0314026D01*
X0008396Y0313720D01*
X0008283Y0313411D01*
X0008177Y0313099D01*
X0008079Y0312785D01*
X0007989Y0312469D01*
X0007907Y0312151D01*
X0007832Y0311830D01*
X0007765Y0311508D01*
X0007705Y0311185D01*
X0007654Y0310860D01*
X0007610Y0310534D01*
X0007575Y0310207D01*
X0007547Y0309879D01*
X0007527Y0309551D01*
X0007515Y0309222D01*
X0007511Y0308893D01*
X0007512Y0308893D02*
X0007512Y0021090D01*
X0007516Y0020761D01*
X0007528Y0020433D01*
X0007548Y0020104D01*
X0007576Y0019777D01*
X0007611Y0019450D01*
X0007655Y0019124D01*
X0007706Y0018799D01*
X0007765Y0018476D01*
X0007833Y0018154D01*
X0007907Y0017834D01*
X0007990Y0017515D01*
X0008080Y0017199D01*
X0008178Y0016885D01*
X0008283Y0016574D01*
X0008396Y0016265D01*
X0008517Y0015959D01*
X0008644Y0015656D01*
X0008779Y0015356D01*
X0008921Y0015059D01*
X0009071Y0014767D01*
X0009227Y0014477D01*
X0009390Y0014192D01*
X0009560Y0013910D01*
X0009737Y0013633D01*
X0009921Y0013360D01*
X0010111Y0013092D01*
X0010307Y0012828D01*
X0010510Y0012569D01*
X0010719Y0012316D01*
X0010934Y0012067D01*
X0011155Y0011823D01*
X0011382Y0011585D01*
X0011614Y0011353D01*
X0011852Y0011126D01*
X0012096Y0010905D01*
X0012345Y0010690D01*
X0012598Y0010481D01*
X0012857Y0010278D01*
X0013121Y0010082D01*
X0013389Y0009892D01*
X0013662Y0009708D01*
X0013939Y0009531D01*
X0014221Y0009361D01*
X0014506Y0009198D01*
X0014796Y0009042D01*
X0015088Y0008892D01*
X0015385Y0008750D01*
X0015685Y0008615D01*
X0015988Y0008488D01*
X0016294Y0008367D01*
X0016603Y0008254D01*
X0016914Y0008149D01*
X0017228Y0008051D01*
X0017544Y0007961D01*
X0017863Y0007878D01*
X0018183Y0007804D01*
X0018505Y0007736D01*
X0018828Y0007677D01*
X0019153Y0007626D01*
X0019479Y0007582D01*
X0019806Y0007547D01*
X0020133Y0007519D01*
X0020462Y0007499D01*
X0020790Y0007487D01*
X0021119Y0007483D01*
X0369470Y0156433D02*
X0369470Y0157989D01*
X0369469Y0157989D02*
X0369471Y0158067D01*
X0369477Y0158144D01*
X0369486Y0158221D01*
X0369500Y0158297D01*
X0369517Y0158373D01*
X0369538Y0158448D01*
X0369563Y0158521D01*
X0369591Y0158593D01*
X0369623Y0158664D01*
X0369658Y0158733D01*
X0369697Y0158800D01*
X0369739Y0158866D01*
X0369785Y0158929D01*
X0369833Y0158989D01*
X0369884Y0159047D01*
X0369939Y0159103D01*
X0369995Y0159156D01*
X0370055Y0159206D01*
X0370117Y0159252D01*
X0370181Y0159296D01*
X0370247Y0159337D01*
X0370315Y0159374D01*
X0370385Y0159407D01*
X0370457Y0159437D01*
X0370529Y0159464D01*
X0370604Y0159487D01*
X0370679Y0159506D01*
X0370755Y0159521D01*
X0370832Y0159533D01*
X0370909Y0159541D01*
X0370986Y0159545D01*
X0371064Y0159545D01*
X0371141Y0159541D01*
X0371218Y0159533D01*
X0371295Y0159521D01*
X0371371Y0159506D01*
X0371446Y0159487D01*
X0371521Y0159464D01*
X0371593Y0159437D01*
X0371665Y0159407D01*
X0371735Y0159374D01*
X0371803Y0159337D01*
X0371869Y0159296D01*
X0371933Y0159252D01*
X0371995Y0159206D01*
X0372055Y0159156D01*
X0372111Y0159103D01*
X0372166Y0159047D01*
X0372217Y0158989D01*
X0372265Y0158929D01*
X0372311Y0158866D01*
X0372353Y0158800D01*
X0372392Y0158733D01*
X0372427Y0158664D01*
X0372459Y0158593D01*
X0372487Y0158521D01*
X0372512Y0158448D01*
X0372533Y0158373D01*
X0372550Y0158297D01*
X0372564Y0158221D01*
X0372573Y0158144D01*
X0372579Y0158067D01*
X0372581Y0157989D01*
X0372581Y0156433D01*
X0372579Y0156355D01*
X0372573Y0156278D01*
X0372564Y0156201D01*
X0372550Y0156125D01*
X0372533Y0156049D01*
X0372512Y0155974D01*
X0372487Y0155901D01*
X0372459Y0155829D01*
X0372427Y0155758D01*
X0372392Y0155689D01*
X0372353Y0155622D01*
X0372311Y0155556D01*
X0372265Y0155493D01*
X0372217Y0155433D01*
X0372166Y0155375D01*
X0372111Y0155319D01*
X0372055Y0155266D01*
X0371995Y0155216D01*
X0371933Y0155170D01*
X0371869Y0155126D01*
X0371803Y0155085D01*
X0371735Y0155048D01*
X0371665Y0155015D01*
X0371593Y0154985D01*
X0371521Y0154958D01*
X0371446Y0154935D01*
X0371371Y0154916D01*
X0371295Y0154901D01*
X0371218Y0154889D01*
X0371141Y0154881D01*
X0371064Y0154877D01*
X0370986Y0154877D01*
X0370909Y0154881D01*
X0370832Y0154889D01*
X0370755Y0154901D01*
X0370679Y0154916D01*
X0370604Y0154935D01*
X0370529Y0154958D01*
X0370457Y0154985D01*
X0370385Y0155015D01*
X0370315Y0155048D01*
X0370247Y0155085D01*
X0370181Y0155126D01*
X0370117Y0155170D01*
X0370055Y0155216D01*
X0369995Y0155266D01*
X0369939Y0155319D01*
X0369884Y0155375D01*
X0369833Y0155433D01*
X0369785Y0155493D01*
X0369739Y0155556D01*
X0369697Y0155622D01*
X0369658Y0155689D01*
X0369623Y0155758D01*
X0369591Y0155829D01*
X0369563Y0155901D01*
X0369538Y0155974D01*
X0369517Y0156049D01*
X0369500Y0156125D01*
X0369486Y0156201D01*
X0369477Y0156278D01*
X0369471Y0156355D01*
X0369469Y0156433D01*
X0374908Y0154878D02*
X0376463Y0154878D01*
X0376463Y0154877D02*
X0376528Y0154879D01*
X0376594Y0154884D01*
X0376658Y0154893D01*
X0376723Y0154906D01*
X0376786Y0154923D01*
X0376848Y0154942D01*
X0376910Y0154966D01*
X0376969Y0154993D01*
X0377027Y0155023D01*
X0377084Y0155056D01*
X0377138Y0155092D01*
X0377191Y0155132D01*
X0377241Y0155174D01*
X0377288Y0155219D01*
X0377333Y0155266D01*
X0377375Y0155316D01*
X0377415Y0155369D01*
X0377451Y0155423D01*
X0377484Y0155480D01*
X0377514Y0155538D01*
X0377541Y0155597D01*
X0377565Y0155659D01*
X0377584Y0155721D01*
X0377601Y0155784D01*
X0377614Y0155849D01*
X0377623Y0155913D01*
X0377628Y0155979D01*
X0377630Y0156044D01*
X0377630Y0158378D01*
X0377628Y0158443D01*
X0377623Y0158509D01*
X0377614Y0158573D01*
X0377601Y0158638D01*
X0377584Y0158701D01*
X0377565Y0158763D01*
X0377541Y0158825D01*
X0377514Y0158884D01*
X0377484Y0158942D01*
X0377451Y0158999D01*
X0377415Y0159053D01*
X0377375Y0159106D01*
X0377333Y0159156D01*
X0377288Y0159203D01*
X0377241Y0159248D01*
X0377191Y0159290D01*
X0377138Y0159330D01*
X0377084Y0159366D01*
X0377027Y0159399D01*
X0376969Y0159429D01*
X0376910Y0159456D01*
X0376848Y0159480D01*
X0376786Y0159499D01*
X0376723Y0159516D01*
X0376658Y0159529D01*
X0376594Y0159538D01*
X0376528Y0159543D01*
X0376463Y0159545D01*
X0376463Y0159544D02*
X0374908Y0159544D01*
X0382852Y0158378D02*
X0382852Y0156044D01*
X0382851Y0156044D02*
X0382853Y0155979D01*
X0382858Y0155913D01*
X0382867Y0155849D01*
X0382880Y0155784D01*
X0382897Y0155721D01*
X0382916Y0155659D01*
X0382940Y0155597D01*
X0382967Y0155538D01*
X0382997Y0155479D01*
X0383030Y0155423D01*
X0383066Y0155369D01*
X0383106Y0155316D01*
X0383148Y0155266D01*
X0383193Y0155219D01*
X0383240Y0155174D01*
X0383290Y0155132D01*
X0383343Y0155092D01*
X0383397Y0155056D01*
X0383454Y0155023D01*
X0383512Y0154993D01*
X0383571Y0154966D01*
X0383633Y0154942D01*
X0383695Y0154923D01*
X0383758Y0154906D01*
X0383823Y0154893D01*
X0383887Y0154884D01*
X0383953Y0154879D01*
X0384018Y0154877D01*
X0384019Y0154878D02*
X0385963Y0154878D01*
X0385963Y0152544D02*
X0385963Y0159544D01*
X0384019Y0159544D01*
X0384019Y0159545D02*
X0383951Y0159543D01*
X0383884Y0159537D01*
X0383816Y0159527D01*
X0383750Y0159514D01*
X0383684Y0159496D01*
X0383620Y0159475D01*
X0383557Y0159450D01*
X0383495Y0159421D01*
X0383436Y0159389D01*
X0383378Y0159353D01*
X0383322Y0159314D01*
X0383269Y0159272D01*
X0383218Y0159227D01*
X0383170Y0159179D01*
X0383125Y0159128D01*
X0383083Y0159075D01*
X0383044Y0159019D01*
X0383008Y0158962D01*
X0382976Y0158902D01*
X0382947Y0158840D01*
X0382922Y0158777D01*
X0382901Y0158713D01*
X0382883Y0158647D01*
X0382870Y0158581D01*
X0382860Y0158514D01*
X0382854Y0158446D01*
X0382852Y0158378D01*
X0380452Y0155266D02*
X0380063Y0155266D01*
X0380063Y0154878D01*
X0380452Y0154878D01*
X0380452Y0155266D01*
X0388814Y0156433D02*
X0388814Y0157989D01*
X0388816Y0158067D01*
X0388822Y0158144D01*
X0388831Y0158221D01*
X0388845Y0158297D01*
X0388862Y0158373D01*
X0388883Y0158448D01*
X0388908Y0158521D01*
X0388936Y0158593D01*
X0388968Y0158664D01*
X0389003Y0158733D01*
X0389042Y0158800D01*
X0389084Y0158866D01*
X0389130Y0158929D01*
X0389178Y0158989D01*
X0389229Y0159047D01*
X0389284Y0159103D01*
X0389340Y0159156D01*
X0389400Y0159206D01*
X0389462Y0159252D01*
X0389526Y0159296D01*
X0389592Y0159337D01*
X0389660Y0159374D01*
X0389730Y0159407D01*
X0389802Y0159437D01*
X0389874Y0159464D01*
X0389949Y0159487D01*
X0390024Y0159506D01*
X0390100Y0159521D01*
X0390177Y0159533D01*
X0390254Y0159541D01*
X0390331Y0159545D01*
X0390409Y0159545D01*
X0390486Y0159541D01*
X0390563Y0159533D01*
X0390640Y0159521D01*
X0390716Y0159506D01*
X0390791Y0159487D01*
X0390866Y0159464D01*
X0390938Y0159437D01*
X0391010Y0159407D01*
X0391080Y0159374D01*
X0391148Y0159337D01*
X0391214Y0159296D01*
X0391278Y0159252D01*
X0391340Y0159206D01*
X0391400Y0159156D01*
X0391456Y0159103D01*
X0391511Y0159047D01*
X0391562Y0158989D01*
X0391610Y0158929D01*
X0391656Y0158866D01*
X0391698Y0158800D01*
X0391737Y0158733D01*
X0391772Y0158664D01*
X0391804Y0158593D01*
X0391832Y0158521D01*
X0391857Y0158448D01*
X0391878Y0158373D01*
X0391895Y0158297D01*
X0391909Y0158221D01*
X0391918Y0158144D01*
X0391924Y0158067D01*
X0391926Y0157989D01*
X0391925Y0157989D02*
X0391925Y0156433D01*
X0391926Y0156433D02*
X0391924Y0156355D01*
X0391918Y0156278D01*
X0391909Y0156201D01*
X0391895Y0156125D01*
X0391878Y0156049D01*
X0391857Y0155974D01*
X0391832Y0155901D01*
X0391804Y0155829D01*
X0391772Y0155758D01*
X0391737Y0155689D01*
X0391698Y0155622D01*
X0391656Y0155556D01*
X0391610Y0155493D01*
X0391562Y0155433D01*
X0391511Y0155375D01*
X0391456Y0155319D01*
X0391400Y0155266D01*
X0391340Y0155216D01*
X0391278Y0155170D01*
X0391214Y0155126D01*
X0391148Y0155085D01*
X0391080Y0155048D01*
X0391010Y0155015D01*
X0390938Y0154985D01*
X0390866Y0154958D01*
X0390791Y0154935D01*
X0390716Y0154916D01*
X0390640Y0154901D01*
X0390563Y0154889D01*
X0390486Y0154881D01*
X0390409Y0154877D01*
X0390331Y0154877D01*
X0390254Y0154881D01*
X0390177Y0154889D01*
X0390100Y0154901D01*
X0390024Y0154916D01*
X0389949Y0154935D01*
X0389874Y0154958D01*
X0389802Y0154985D01*
X0389730Y0155015D01*
X0389660Y0155048D01*
X0389592Y0155085D01*
X0389526Y0155126D01*
X0389462Y0155170D01*
X0389400Y0155216D01*
X0389340Y0155266D01*
X0389284Y0155319D01*
X0389229Y0155375D01*
X0389178Y0155433D01*
X0389130Y0155493D01*
X0389084Y0155556D01*
X0389042Y0155622D01*
X0389003Y0155689D01*
X0388968Y0155758D01*
X0388936Y0155829D01*
X0388908Y0155901D01*
X0388883Y0155974D01*
X0388862Y0156049D01*
X0388845Y0156125D01*
X0388831Y0156201D01*
X0388822Y0156278D01*
X0388816Y0156355D01*
X0388814Y0156433D01*
X0394749Y0154878D02*
X0394749Y0158378D01*
X0394751Y0158446D01*
X0394757Y0158514D01*
X0394767Y0158581D01*
X0394780Y0158647D01*
X0394798Y0158713D01*
X0394819Y0158777D01*
X0394844Y0158840D01*
X0394873Y0158902D01*
X0394905Y0158962D01*
X0394941Y0159019D01*
X0394980Y0159075D01*
X0395022Y0159128D01*
X0395067Y0159179D01*
X0395115Y0159227D01*
X0395166Y0159272D01*
X0395219Y0159314D01*
X0395275Y0159353D01*
X0395333Y0159389D01*
X0395392Y0159421D01*
X0395454Y0159450D01*
X0395517Y0159475D01*
X0395581Y0159496D01*
X0395647Y0159514D01*
X0395713Y0159527D01*
X0395781Y0159537D01*
X0395848Y0159543D01*
X0395916Y0159545D01*
X0395916Y0159544D02*
X0397860Y0159544D01*
X0397860Y0161878D02*
X0397860Y0154878D01*
X0401656Y0154878D02*
X0401594Y0154879D01*
X0401532Y0154884D01*
X0401471Y0154893D01*
X0401410Y0154905D01*
X0401350Y0154921D01*
X0401291Y0154941D01*
X0401233Y0154965D01*
X0401177Y0154991D01*
X0401123Y0155022D01*
X0401071Y0155055D01*
X0401021Y0155092D01*
X0400973Y0155132D01*
X0400928Y0155175D01*
X0400885Y0155220D01*
X0400846Y0155268D01*
X0400809Y0155318D01*
X0400776Y0155371D01*
X0400746Y0155425D01*
X0400719Y0155481D01*
X0400696Y0155539D01*
X0400676Y0155598D01*
X0400660Y0155658D01*
X0400648Y0155719D01*
X0400640Y0155780D01*
X0400635Y0155842D01*
X0400634Y0155905D01*
X0400637Y0155967D01*
X0400644Y0156028D01*
X0400655Y0156090D01*
X0400669Y0156150D01*
X0400687Y0156210D01*
X0400709Y0156268D01*
X0400734Y0156325D01*
X0400763Y0156380D01*
X0400795Y0156433D01*
X0400831Y0156484D01*
X0400869Y0156533D01*
X0400910Y0156579D01*
X0400954Y0156623D01*
X0401001Y0156664D01*
X0401050Y0156702D01*
X0401102Y0156737D01*
X0401155Y0156769D01*
X0401211Y0156797D01*
X0401268Y0156822D01*
X0403212Y0157600D01*
X0403269Y0157625D01*
X0403325Y0157653D01*
X0403378Y0157685D01*
X0403430Y0157720D01*
X0403479Y0157758D01*
X0403526Y0157799D01*
X0403570Y0157843D01*
X0403611Y0157889D01*
X0403649Y0157938D01*
X0403685Y0157989D01*
X0403717Y0158042D01*
X0403746Y0158097D01*
X0403771Y0158154D01*
X0403793Y0158212D01*
X0403811Y0158272D01*
X0403825Y0158332D01*
X0403836Y0158394D01*
X0403843Y0158455D01*
X0403846Y0158517D01*
X0403845Y0158580D01*
X0403840Y0158642D01*
X0403832Y0158703D01*
X0403820Y0158764D01*
X0403804Y0158824D01*
X0403784Y0158883D01*
X0403761Y0158941D01*
X0403734Y0158997D01*
X0403704Y0159051D01*
X0403671Y0159104D01*
X0403634Y0159154D01*
X0403595Y0159202D01*
X0403552Y0159247D01*
X0403507Y0159290D01*
X0403459Y0159330D01*
X0403409Y0159367D01*
X0403357Y0159400D01*
X0403303Y0159431D01*
X0403247Y0159457D01*
X0403189Y0159481D01*
X0403130Y0159501D01*
X0403070Y0159517D01*
X0403009Y0159529D01*
X0402948Y0159538D01*
X0402886Y0159543D01*
X0402824Y0159544D01*
X0403795Y0155266D02*
X0403648Y0155215D01*
X0403499Y0155167D01*
X0403350Y0155123D01*
X0403199Y0155082D01*
X0403047Y0155045D01*
X0402895Y0155012D01*
X0402742Y0154982D01*
X0402588Y0154956D01*
X0402434Y0154934D01*
X0402279Y0154915D01*
X0402124Y0154900D01*
X0401968Y0154889D01*
X0401812Y0154881D01*
X0401656Y0154877D01*
X0401073Y0159155D02*
X0401191Y0159206D01*
X0401311Y0159254D01*
X0401432Y0159298D01*
X0401555Y0159339D01*
X0401678Y0159376D01*
X0401803Y0159409D01*
X0401928Y0159439D01*
X0402054Y0159465D01*
X0402181Y0159487D01*
X0402309Y0159506D01*
X0402437Y0159521D01*
X0402565Y0159532D01*
X0402694Y0159540D01*
X0402823Y0159544D01*
X0406646Y0159544D02*
X0408591Y0159544D01*
X0408591Y0159545D02*
X0408656Y0159543D01*
X0408722Y0159538D01*
X0408786Y0159529D01*
X0408851Y0159516D01*
X0408914Y0159499D01*
X0408976Y0159480D01*
X0409038Y0159456D01*
X0409097Y0159429D01*
X0409155Y0159399D01*
X0409212Y0159366D01*
X0409266Y0159330D01*
X0409319Y0159290D01*
X0409369Y0159248D01*
X0409416Y0159203D01*
X0409461Y0159156D01*
X0409503Y0159106D01*
X0409543Y0159053D01*
X0409579Y0158999D01*
X0409612Y0158942D01*
X0409642Y0158884D01*
X0409669Y0158825D01*
X0409693Y0158763D01*
X0409712Y0158701D01*
X0409729Y0158638D01*
X0409742Y0158573D01*
X0409751Y0158509D01*
X0409756Y0158443D01*
X0409758Y0158378D01*
X0409758Y0156044D01*
X0409756Y0155979D01*
X0409751Y0155913D01*
X0409742Y0155849D01*
X0409729Y0155784D01*
X0409712Y0155721D01*
X0409693Y0155659D01*
X0409669Y0155597D01*
X0409642Y0155538D01*
X0409612Y0155480D01*
X0409579Y0155423D01*
X0409543Y0155369D01*
X0409503Y0155316D01*
X0409461Y0155266D01*
X0409416Y0155219D01*
X0409369Y0155174D01*
X0409319Y0155132D01*
X0409266Y0155092D01*
X0409212Y0155056D01*
X0409155Y0155023D01*
X0409097Y0154993D01*
X0409038Y0154966D01*
X0408976Y0154942D01*
X0408914Y0154923D01*
X0408851Y0154906D01*
X0408786Y0154893D01*
X0408722Y0154884D01*
X0408656Y0154879D01*
X0408591Y0154877D01*
X0408591Y0154878D02*
X0406646Y0154878D01*
X0406646Y0161878D01*
X0412335Y0157989D02*
X0412335Y0156433D01*
X0412334Y0156433D02*
X0412336Y0156355D01*
X0412342Y0156278D01*
X0412351Y0156201D01*
X0412365Y0156125D01*
X0412382Y0156049D01*
X0412403Y0155974D01*
X0412428Y0155901D01*
X0412456Y0155829D01*
X0412488Y0155758D01*
X0412523Y0155689D01*
X0412562Y0155622D01*
X0412604Y0155556D01*
X0412650Y0155493D01*
X0412698Y0155433D01*
X0412749Y0155375D01*
X0412804Y0155319D01*
X0412860Y0155266D01*
X0412920Y0155216D01*
X0412982Y0155170D01*
X0413046Y0155126D01*
X0413112Y0155085D01*
X0413180Y0155048D01*
X0413250Y0155015D01*
X0413322Y0154985D01*
X0413394Y0154958D01*
X0413469Y0154935D01*
X0413544Y0154916D01*
X0413620Y0154901D01*
X0413697Y0154889D01*
X0413774Y0154881D01*
X0413851Y0154877D01*
X0413929Y0154877D01*
X0414006Y0154881D01*
X0414083Y0154889D01*
X0414160Y0154901D01*
X0414236Y0154916D01*
X0414311Y0154935D01*
X0414386Y0154958D01*
X0414458Y0154985D01*
X0414530Y0155015D01*
X0414600Y0155048D01*
X0414668Y0155085D01*
X0414734Y0155126D01*
X0414798Y0155170D01*
X0414860Y0155216D01*
X0414920Y0155266D01*
X0414976Y0155319D01*
X0415031Y0155375D01*
X0415082Y0155433D01*
X0415130Y0155493D01*
X0415176Y0155556D01*
X0415218Y0155622D01*
X0415257Y0155689D01*
X0415292Y0155758D01*
X0415324Y0155829D01*
X0415352Y0155901D01*
X0415377Y0155974D01*
X0415398Y0156049D01*
X0415415Y0156125D01*
X0415429Y0156201D01*
X0415438Y0156278D01*
X0415444Y0156355D01*
X0415446Y0156433D01*
X0415446Y0157989D01*
X0415444Y0158067D01*
X0415438Y0158144D01*
X0415429Y0158221D01*
X0415415Y0158297D01*
X0415398Y0158373D01*
X0415377Y0158448D01*
X0415352Y0158521D01*
X0415324Y0158593D01*
X0415292Y0158664D01*
X0415257Y0158733D01*
X0415218Y0158800D01*
X0415176Y0158866D01*
X0415130Y0158929D01*
X0415082Y0158989D01*
X0415031Y0159047D01*
X0414976Y0159103D01*
X0414920Y0159156D01*
X0414860Y0159206D01*
X0414798Y0159252D01*
X0414734Y0159296D01*
X0414668Y0159337D01*
X0414600Y0159374D01*
X0414530Y0159407D01*
X0414458Y0159437D01*
X0414386Y0159464D01*
X0414311Y0159487D01*
X0414236Y0159506D01*
X0414160Y0159521D01*
X0414083Y0159533D01*
X0414006Y0159541D01*
X0413929Y0159545D01*
X0413851Y0159545D01*
X0413774Y0159541D01*
X0413697Y0159533D01*
X0413620Y0159521D01*
X0413544Y0159506D01*
X0413469Y0159487D01*
X0413394Y0159464D01*
X0413322Y0159437D01*
X0413250Y0159407D01*
X0413180Y0159374D01*
X0413112Y0159337D01*
X0413046Y0159296D01*
X0412982Y0159252D01*
X0412920Y0159206D01*
X0412860Y0159156D01*
X0412804Y0159103D01*
X0412749Y0159047D01*
X0412698Y0158989D01*
X0412650Y0158929D01*
X0412604Y0158866D01*
X0412562Y0158800D01*
X0412523Y0158733D01*
X0412488Y0158664D01*
X0412456Y0158593D01*
X0412428Y0158521D01*
X0412403Y0158448D01*
X0412382Y0158373D01*
X0412365Y0158297D01*
X0412351Y0158221D01*
X0412342Y0158144D01*
X0412336Y0158067D01*
X0412334Y0157989D01*
X0418372Y0158378D02*
X0418372Y0154878D01*
X0420705Y0154878D02*
X0420705Y0159544D01*
X0419538Y0159544D02*
X0423038Y0159544D01*
X0423038Y0154878D01*
X0425964Y0154878D02*
X0427908Y0154878D01*
X0427908Y0154877D02*
X0427973Y0154879D01*
X0428039Y0154884D01*
X0428103Y0154893D01*
X0428168Y0154906D01*
X0428231Y0154923D01*
X0428293Y0154942D01*
X0428355Y0154966D01*
X0428414Y0154993D01*
X0428472Y0155023D01*
X0428529Y0155056D01*
X0428583Y0155092D01*
X0428636Y0155132D01*
X0428686Y0155174D01*
X0428733Y0155219D01*
X0428778Y0155266D01*
X0428820Y0155316D01*
X0428860Y0155369D01*
X0428896Y0155423D01*
X0428929Y0155480D01*
X0428959Y0155538D01*
X0428986Y0155597D01*
X0429010Y0155659D01*
X0429029Y0155721D01*
X0429046Y0155784D01*
X0429059Y0155849D01*
X0429068Y0155913D01*
X0429073Y0155979D01*
X0429075Y0156044D01*
X0429075Y0157989D01*
X0429075Y0157211D02*
X0425964Y0157211D01*
X0425964Y0157989D01*
X0425963Y0157989D02*
X0425965Y0158067D01*
X0425971Y0158144D01*
X0425980Y0158221D01*
X0425994Y0158297D01*
X0426011Y0158373D01*
X0426032Y0158448D01*
X0426057Y0158521D01*
X0426085Y0158593D01*
X0426117Y0158664D01*
X0426152Y0158733D01*
X0426191Y0158800D01*
X0426233Y0158866D01*
X0426279Y0158929D01*
X0426327Y0158989D01*
X0426378Y0159047D01*
X0426433Y0159103D01*
X0426489Y0159156D01*
X0426549Y0159206D01*
X0426611Y0159252D01*
X0426675Y0159296D01*
X0426741Y0159337D01*
X0426809Y0159374D01*
X0426879Y0159407D01*
X0426951Y0159437D01*
X0427023Y0159464D01*
X0427098Y0159487D01*
X0427173Y0159506D01*
X0427249Y0159521D01*
X0427326Y0159533D01*
X0427403Y0159541D01*
X0427480Y0159545D01*
X0427558Y0159545D01*
X0427635Y0159541D01*
X0427712Y0159533D01*
X0427789Y0159521D01*
X0427865Y0159506D01*
X0427940Y0159487D01*
X0428015Y0159464D01*
X0428087Y0159437D01*
X0428159Y0159407D01*
X0428229Y0159374D01*
X0428297Y0159337D01*
X0428363Y0159296D01*
X0428427Y0159252D01*
X0428489Y0159206D01*
X0428549Y0159156D01*
X0428605Y0159103D01*
X0428660Y0159047D01*
X0428711Y0158989D01*
X0428759Y0158929D01*
X0428805Y0158866D01*
X0428847Y0158800D01*
X0428886Y0158733D01*
X0428921Y0158664D01*
X0428953Y0158593D01*
X0428981Y0158521D01*
X0429006Y0158448D01*
X0429027Y0158373D01*
X0429044Y0158297D01*
X0429058Y0158221D01*
X0429067Y0158144D01*
X0429073Y0158067D01*
X0429075Y0157989D01*
X0431899Y0158378D02*
X0431899Y0154878D01*
X0435010Y0154878D02*
X0435010Y0161878D01*
X0435010Y0159544D02*
X0433066Y0159544D01*
X0433066Y0159545D02*
X0432998Y0159543D01*
X0432931Y0159537D01*
X0432863Y0159527D01*
X0432797Y0159514D01*
X0432731Y0159496D01*
X0432667Y0159475D01*
X0432604Y0159450D01*
X0432542Y0159421D01*
X0432483Y0159389D01*
X0432425Y0159353D01*
X0432369Y0159314D01*
X0432316Y0159272D01*
X0432265Y0159227D01*
X0432217Y0159179D01*
X0432172Y0159128D01*
X0432130Y0159075D01*
X0432091Y0159019D01*
X0432055Y0158962D01*
X0432023Y0158902D01*
X0431994Y0158840D01*
X0431969Y0158777D01*
X0431948Y0158713D01*
X0431930Y0158647D01*
X0431917Y0158581D01*
X0431907Y0158514D01*
X0431901Y0158446D01*
X0431899Y0158378D01*
X0437607Y0159544D02*
X0439940Y0159544D01*
X0439162Y0161878D02*
X0439162Y0156044D01*
X0439163Y0156044D02*
X0439161Y0155979D01*
X0439156Y0155913D01*
X0439147Y0155849D01*
X0439134Y0155784D01*
X0439117Y0155721D01*
X0439098Y0155659D01*
X0439074Y0155597D01*
X0439047Y0155538D01*
X0439017Y0155480D01*
X0438984Y0155423D01*
X0438948Y0155369D01*
X0438908Y0155316D01*
X0438866Y0155266D01*
X0438821Y0155219D01*
X0438774Y0155174D01*
X0438724Y0155132D01*
X0438671Y0155092D01*
X0438617Y0155056D01*
X0438560Y0155023D01*
X0438502Y0154993D01*
X0438443Y0154966D01*
X0438381Y0154942D01*
X0438319Y0154923D01*
X0438256Y0154906D01*
X0438191Y0154893D01*
X0438127Y0154884D01*
X0438061Y0154879D01*
X0437996Y0154877D01*
X0437996Y0154878D02*
X0437607Y0154878D01*
X0441833Y0154878D02*
X0442222Y0154878D01*
X0442222Y0155266D01*
X0441833Y0155266D01*
X0441833Y0154878D01*
X0445697Y0154878D02*
X0446864Y0157989D01*
X0448030Y0154878D01*
X0449197Y0159544D01*
X0451565Y0159544D02*
X0452731Y0154878D01*
X0453898Y0157989D01*
X0455065Y0154878D01*
X0456231Y0159544D01*
X0458599Y0159544D02*
X0459766Y0154878D01*
X0460932Y0157989D01*
X0462099Y0154878D01*
X0463266Y0159544D01*
X0445697Y0154878D02*
X0444530Y0159544D01*
X0419538Y0159545D02*
X0419473Y0159543D01*
X0419407Y0159538D01*
X0419343Y0159529D01*
X0419278Y0159516D01*
X0419215Y0159499D01*
X0419153Y0159480D01*
X0419091Y0159456D01*
X0419032Y0159429D01*
X0418974Y0159399D01*
X0418917Y0159366D01*
X0418863Y0159330D01*
X0418810Y0159290D01*
X0418760Y0159248D01*
X0418713Y0159203D01*
X0418668Y0159156D01*
X0418626Y0159106D01*
X0418586Y0159053D01*
X0418550Y0158999D01*
X0418517Y0158942D01*
X0418487Y0158884D01*
X0418460Y0158825D01*
X0418436Y0158763D01*
X0418417Y0158701D01*
X0418400Y0158638D01*
X0418387Y0158573D01*
X0418378Y0158509D01*
X0418373Y0158443D01*
X0418371Y0158378D01*
D11*
X0137797Y0095609D02*
X0137799Y0095722D01*
X0137805Y0095836D01*
X0137815Y0095949D01*
X0137829Y0096061D01*
X0137846Y0096173D01*
X0137868Y0096285D01*
X0137894Y0096395D01*
X0137923Y0096505D01*
X0137956Y0096613D01*
X0137993Y0096721D01*
X0138034Y0096826D01*
X0138078Y0096931D01*
X0138126Y0097034D01*
X0138177Y0097135D01*
X0138232Y0097234D01*
X0138291Y0097331D01*
X0138353Y0097426D01*
X0138418Y0097519D01*
X0138486Y0097610D01*
X0138557Y0097698D01*
X0138632Y0097784D01*
X0138709Y0097867D01*
X0138789Y0097947D01*
X0138872Y0098024D01*
X0138958Y0098099D01*
X0139046Y0098170D01*
X0139137Y0098238D01*
X0139230Y0098303D01*
X0139325Y0098365D01*
X0139422Y0098424D01*
X0139521Y0098479D01*
X0139622Y0098530D01*
X0139725Y0098578D01*
X0139830Y0098622D01*
X0139935Y0098663D01*
X0140043Y0098700D01*
X0140151Y0098733D01*
X0140261Y0098762D01*
X0140371Y0098788D01*
X0140483Y0098810D01*
X0140595Y0098827D01*
X0140707Y0098841D01*
X0140820Y0098851D01*
X0140934Y0098857D01*
X0141047Y0098859D01*
X0141160Y0098857D01*
X0141274Y0098851D01*
X0141387Y0098841D01*
X0141499Y0098827D01*
X0141611Y0098810D01*
X0141723Y0098788D01*
X0141833Y0098762D01*
X0141943Y0098733D01*
X0142051Y0098700D01*
X0142159Y0098663D01*
X0142264Y0098622D01*
X0142369Y0098578D01*
X0142472Y0098530D01*
X0142573Y0098479D01*
X0142672Y0098424D01*
X0142769Y0098365D01*
X0142864Y0098303D01*
X0142957Y0098238D01*
X0143048Y0098170D01*
X0143136Y0098099D01*
X0143222Y0098024D01*
X0143305Y0097947D01*
X0143385Y0097867D01*
X0143462Y0097784D01*
X0143537Y0097698D01*
X0143608Y0097610D01*
X0143676Y0097519D01*
X0143741Y0097426D01*
X0143803Y0097331D01*
X0143862Y0097234D01*
X0143917Y0097135D01*
X0143968Y0097034D01*
X0144016Y0096931D01*
X0144060Y0096826D01*
X0144101Y0096721D01*
X0144138Y0096613D01*
X0144171Y0096505D01*
X0144200Y0096395D01*
X0144226Y0096285D01*
X0144248Y0096173D01*
X0144265Y0096061D01*
X0144279Y0095949D01*
X0144289Y0095836D01*
X0144295Y0095722D01*
X0144297Y0095609D01*
X0144295Y0095496D01*
X0144289Y0095382D01*
X0144279Y0095269D01*
X0144265Y0095157D01*
X0144248Y0095045D01*
X0144226Y0094933D01*
X0144200Y0094823D01*
X0144171Y0094713D01*
X0144138Y0094605D01*
X0144101Y0094497D01*
X0144060Y0094392D01*
X0144016Y0094287D01*
X0143968Y0094184D01*
X0143917Y0094083D01*
X0143862Y0093984D01*
X0143803Y0093887D01*
X0143741Y0093792D01*
X0143676Y0093699D01*
X0143608Y0093608D01*
X0143537Y0093520D01*
X0143462Y0093434D01*
X0143385Y0093351D01*
X0143305Y0093271D01*
X0143222Y0093194D01*
X0143136Y0093119D01*
X0143048Y0093048D01*
X0142957Y0092980D01*
X0142864Y0092915D01*
X0142769Y0092853D01*
X0142672Y0092794D01*
X0142573Y0092739D01*
X0142472Y0092688D01*
X0142369Y0092640D01*
X0142264Y0092596D01*
X0142159Y0092555D01*
X0142051Y0092518D01*
X0141943Y0092485D01*
X0141833Y0092456D01*
X0141723Y0092430D01*
X0141611Y0092408D01*
X0141499Y0092391D01*
X0141387Y0092377D01*
X0141274Y0092367D01*
X0141160Y0092361D01*
X0141047Y0092359D01*
X0140934Y0092361D01*
X0140820Y0092367D01*
X0140707Y0092377D01*
X0140595Y0092391D01*
X0140483Y0092408D01*
X0140371Y0092430D01*
X0140261Y0092456D01*
X0140151Y0092485D01*
X0140043Y0092518D01*
X0139935Y0092555D01*
X0139830Y0092596D01*
X0139725Y0092640D01*
X0139622Y0092688D01*
X0139521Y0092739D01*
X0139422Y0092794D01*
X0139325Y0092853D01*
X0139230Y0092915D01*
X0139137Y0092980D01*
X0139046Y0093048D01*
X0138958Y0093119D01*
X0138872Y0093194D01*
X0138789Y0093271D01*
X0138709Y0093351D01*
X0138632Y0093434D01*
X0138557Y0093520D01*
X0138486Y0093608D01*
X0138418Y0093699D01*
X0138353Y0093792D01*
X0138291Y0093887D01*
X0138232Y0093984D01*
X0138177Y0094083D01*
X0138126Y0094184D01*
X0138078Y0094287D01*
X0138034Y0094392D01*
X0137993Y0094497D01*
X0137956Y0094605D01*
X0137923Y0094713D01*
X0137894Y0094823D01*
X0137868Y0094933D01*
X0137846Y0095045D01*
X0137829Y0095157D01*
X0137815Y0095269D01*
X0137805Y0095382D01*
X0137799Y0095496D01*
X0137797Y0095609D01*
X0077797Y0095609D02*
X0077799Y0095722D01*
X0077805Y0095836D01*
X0077815Y0095949D01*
X0077829Y0096061D01*
X0077846Y0096173D01*
X0077868Y0096285D01*
X0077894Y0096395D01*
X0077923Y0096505D01*
X0077956Y0096613D01*
X0077993Y0096721D01*
X0078034Y0096826D01*
X0078078Y0096931D01*
X0078126Y0097034D01*
X0078177Y0097135D01*
X0078232Y0097234D01*
X0078291Y0097331D01*
X0078353Y0097426D01*
X0078418Y0097519D01*
X0078486Y0097610D01*
X0078557Y0097698D01*
X0078632Y0097784D01*
X0078709Y0097867D01*
X0078789Y0097947D01*
X0078872Y0098024D01*
X0078958Y0098099D01*
X0079046Y0098170D01*
X0079137Y0098238D01*
X0079230Y0098303D01*
X0079325Y0098365D01*
X0079422Y0098424D01*
X0079521Y0098479D01*
X0079622Y0098530D01*
X0079725Y0098578D01*
X0079830Y0098622D01*
X0079935Y0098663D01*
X0080043Y0098700D01*
X0080151Y0098733D01*
X0080261Y0098762D01*
X0080371Y0098788D01*
X0080483Y0098810D01*
X0080595Y0098827D01*
X0080707Y0098841D01*
X0080820Y0098851D01*
X0080934Y0098857D01*
X0081047Y0098859D01*
X0081160Y0098857D01*
X0081274Y0098851D01*
X0081387Y0098841D01*
X0081499Y0098827D01*
X0081611Y0098810D01*
X0081723Y0098788D01*
X0081833Y0098762D01*
X0081943Y0098733D01*
X0082051Y0098700D01*
X0082159Y0098663D01*
X0082264Y0098622D01*
X0082369Y0098578D01*
X0082472Y0098530D01*
X0082573Y0098479D01*
X0082672Y0098424D01*
X0082769Y0098365D01*
X0082864Y0098303D01*
X0082957Y0098238D01*
X0083048Y0098170D01*
X0083136Y0098099D01*
X0083222Y0098024D01*
X0083305Y0097947D01*
X0083385Y0097867D01*
X0083462Y0097784D01*
X0083537Y0097698D01*
X0083608Y0097610D01*
X0083676Y0097519D01*
X0083741Y0097426D01*
X0083803Y0097331D01*
X0083862Y0097234D01*
X0083917Y0097135D01*
X0083968Y0097034D01*
X0084016Y0096931D01*
X0084060Y0096826D01*
X0084101Y0096721D01*
X0084138Y0096613D01*
X0084171Y0096505D01*
X0084200Y0096395D01*
X0084226Y0096285D01*
X0084248Y0096173D01*
X0084265Y0096061D01*
X0084279Y0095949D01*
X0084289Y0095836D01*
X0084295Y0095722D01*
X0084297Y0095609D01*
X0084295Y0095496D01*
X0084289Y0095382D01*
X0084279Y0095269D01*
X0084265Y0095157D01*
X0084248Y0095045D01*
X0084226Y0094933D01*
X0084200Y0094823D01*
X0084171Y0094713D01*
X0084138Y0094605D01*
X0084101Y0094497D01*
X0084060Y0094392D01*
X0084016Y0094287D01*
X0083968Y0094184D01*
X0083917Y0094083D01*
X0083862Y0093984D01*
X0083803Y0093887D01*
X0083741Y0093792D01*
X0083676Y0093699D01*
X0083608Y0093608D01*
X0083537Y0093520D01*
X0083462Y0093434D01*
X0083385Y0093351D01*
X0083305Y0093271D01*
X0083222Y0093194D01*
X0083136Y0093119D01*
X0083048Y0093048D01*
X0082957Y0092980D01*
X0082864Y0092915D01*
X0082769Y0092853D01*
X0082672Y0092794D01*
X0082573Y0092739D01*
X0082472Y0092688D01*
X0082369Y0092640D01*
X0082264Y0092596D01*
X0082159Y0092555D01*
X0082051Y0092518D01*
X0081943Y0092485D01*
X0081833Y0092456D01*
X0081723Y0092430D01*
X0081611Y0092408D01*
X0081499Y0092391D01*
X0081387Y0092377D01*
X0081274Y0092367D01*
X0081160Y0092361D01*
X0081047Y0092359D01*
X0080934Y0092361D01*
X0080820Y0092367D01*
X0080707Y0092377D01*
X0080595Y0092391D01*
X0080483Y0092408D01*
X0080371Y0092430D01*
X0080261Y0092456D01*
X0080151Y0092485D01*
X0080043Y0092518D01*
X0079935Y0092555D01*
X0079830Y0092596D01*
X0079725Y0092640D01*
X0079622Y0092688D01*
X0079521Y0092739D01*
X0079422Y0092794D01*
X0079325Y0092853D01*
X0079230Y0092915D01*
X0079137Y0092980D01*
X0079046Y0093048D01*
X0078958Y0093119D01*
X0078872Y0093194D01*
X0078789Y0093271D01*
X0078709Y0093351D01*
X0078632Y0093434D01*
X0078557Y0093520D01*
X0078486Y0093608D01*
X0078418Y0093699D01*
X0078353Y0093792D01*
X0078291Y0093887D01*
X0078232Y0093984D01*
X0078177Y0094083D01*
X0078126Y0094184D01*
X0078078Y0094287D01*
X0078034Y0094392D01*
X0077993Y0094497D01*
X0077956Y0094605D01*
X0077923Y0094713D01*
X0077894Y0094823D01*
X0077868Y0094933D01*
X0077846Y0095045D01*
X0077829Y0095157D01*
X0077815Y0095269D01*
X0077805Y0095382D01*
X0077799Y0095496D01*
X0077797Y0095609D01*
X0077797Y0255609D02*
X0077799Y0255722D01*
X0077805Y0255836D01*
X0077815Y0255949D01*
X0077829Y0256061D01*
X0077846Y0256173D01*
X0077868Y0256285D01*
X0077894Y0256395D01*
X0077923Y0256505D01*
X0077956Y0256613D01*
X0077993Y0256721D01*
X0078034Y0256826D01*
X0078078Y0256931D01*
X0078126Y0257034D01*
X0078177Y0257135D01*
X0078232Y0257234D01*
X0078291Y0257331D01*
X0078353Y0257426D01*
X0078418Y0257519D01*
X0078486Y0257610D01*
X0078557Y0257698D01*
X0078632Y0257784D01*
X0078709Y0257867D01*
X0078789Y0257947D01*
X0078872Y0258024D01*
X0078958Y0258099D01*
X0079046Y0258170D01*
X0079137Y0258238D01*
X0079230Y0258303D01*
X0079325Y0258365D01*
X0079422Y0258424D01*
X0079521Y0258479D01*
X0079622Y0258530D01*
X0079725Y0258578D01*
X0079830Y0258622D01*
X0079935Y0258663D01*
X0080043Y0258700D01*
X0080151Y0258733D01*
X0080261Y0258762D01*
X0080371Y0258788D01*
X0080483Y0258810D01*
X0080595Y0258827D01*
X0080707Y0258841D01*
X0080820Y0258851D01*
X0080934Y0258857D01*
X0081047Y0258859D01*
X0081160Y0258857D01*
X0081274Y0258851D01*
X0081387Y0258841D01*
X0081499Y0258827D01*
X0081611Y0258810D01*
X0081723Y0258788D01*
X0081833Y0258762D01*
X0081943Y0258733D01*
X0082051Y0258700D01*
X0082159Y0258663D01*
X0082264Y0258622D01*
X0082369Y0258578D01*
X0082472Y0258530D01*
X0082573Y0258479D01*
X0082672Y0258424D01*
X0082769Y0258365D01*
X0082864Y0258303D01*
X0082957Y0258238D01*
X0083048Y0258170D01*
X0083136Y0258099D01*
X0083222Y0258024D01*
X0083305Y0257947D01*
X0083385Y0257867D01*
X0083462Y0257784D01*
X0083537Y0257698D01*
X0083608Y0257610D01*
X0083676Y0257519D01*
X0083741Y0257426D01*
X0083803Y0257331D01*
X0083862Y0257234D01*
X0083917Y0257135D01*
X0083968Y0257034D01*
X0084016Y0256931D01*
X0084060Y0256826D01*
X0084101Y0256721D01*
X0084138Y0256613D01*
X0084171Y0256505D01*
X0084200Y0256395D01*
X0084226Y0256285D01*
X0084248Y0256173D01*
X0084265Y0256061D01*
X0084279Y0255949D01*
X0084289Y0255836D01*
X0084295Y0255722D01*
X0084297Y0255609D01*
X0084295Y0255496D01*
X0084289Y0255382D01*
X0084279Y0255269D01*
X0084265Y0255157D01*
X0084248Y0255045D01*
X0084226Y0254933D01*
X0084200Y0254823D01*
X0084171Y0254713D01*
X0084138Y0254605D01*
X0084101Y0254497D01*
X0084060Y0254392D01*
X0084016Y0254287D01*
X0083968Y0254184D01*
X0083917Y0254083D01*
X0083862Y0253984D01*
X0083803Y0253887D01*
X0083741Y0253792D01*
X0083676Y0253699D01*
X0083608Y0253608D01*
X0083537Y0253520D01*
X0083462Y0253434D01*
X0083385Y0253351D01*
X0083305Y0253271D01*
X0083222Y0253194D01*
X0083136Y0253119D01*
X0083048Y0253048D01*
X0082957Y0252980D01*
X0082864Y0252915D01*
X0082769Y0252853D01*
X0082672Y0252794D01*
X0082573Y0252739D01*
X0082472Y0252688D01*
X0082369Y0252640D01*
X0082264Y0252596D01*
X0082159Y0252555D01*
X0082051Y0252518D01*
X0081943Y0252485D01*
X0081833Y0252456D01*
X0081723Y0252430D01*
X0081611Y0252408D01*
X0081499Y0252391D01*
X0081387Y0252377D01*
X0081274Y0252367D01*
X0081160Y0252361D01*
X0081047Y0252359D01*
X0080934Y0252361D01*
X0080820Y0252367D01*
X0080707Y0252377D01*
X0080595Y0252391D01*
X0080483Y0252408D01*
X0080371Y0252430D01*
X0080261Y0252456D01*
X0080151Y0252485D01*
X0080043Y0252518D01*
X0079935Y0252555D01*
X0079830Y0252596D01*
X0079725Y0252640D01*
X0079622Y0252688D01*
X0079521Y0252739D01*
X0079422Y0252794D01*
X0079325Y0252853D01*
X0079230Y0252915D01*
X0079137Y0252980D01*
X0079046Y0253048D01*
X0078958Y0253119D01*
X0078872Y0253194D01*
X0078789Y0253271D01*
X0078709Y0253351D01*
X0078632Y0253434D01*
X0078557Y0253520D01*
X0078486Y0253608D01*
X0078418Y0253699D01*
X0078353Y0253792D01*
X0078291Y0253887D01*
X0078232Y0253984D01*
X0078177Y0254083D01*
X0078126Y0254184D01*
X0078078Y0254287D01*
X0078034Y0254392D01*
X0077993Y0254497D01*
X0077956Y0254605D01*
X0077923Y0254713D01*
X0077894Y0254823D01*
X0077868Y0254933D01*
X0077846Y0255045D01*
X0077829Y0255157D01*
X0077815Y0255269D01*
X0077805Y0255382D01*
X0077799Y0255496D01*
X0077797Y0255609D01*
X0137797Y0255609D02*
X0137799Y0255722D01*
X0137805Y0255836D01*
X0137815Y0255949D01*
X0137829Y0256061D01*
X0137846Y0256173D01*
X0137868Y0256285D01*
X0137894Y0256395D01*
X0137923Y0256505D01*
X0137956Y0256613D01*
X0137993Y0256721D01*
X0138034Y0256826D01*
X0138078Y0256931D01*
X0138126Y0257034D01*
X0138177Y0257135D01*
X0138232Y0257234D01*
X0138291Y0257331D01*
X0138353Y0257426D01*
X0138418Y0257519D01*
X0138486Y0257610D01*
X0138557Y0257698D01*
X0138632Y0257784D01*
X0138709Y0257867D01*
X0138789Y0257947D01*
X0138872Y0258024D01*
X0138958Y0258099D01*
X0139046Y0258170D01*
X0139137Y0258238D01*
X0139230Y0258303D01*
X0139325Y0258365D01*
X0139422Y0258424D01*
X0139521Y0258479D01*
X0139622Y0258530D01*
X0139725Y0258578D01*
X0139830Y0258622D01*
X0139935Y0258663D01*
X0140043Y0258700D01*
X0140151Y0258733D01*
X0140261Y0258762D01*
X0140371Y0258788D01*
X0140483Y0258810D01*
X0140595Y0258827D01*
X0140707Y0258841D01*
X0140820Y0258851D01*
X0140934Y0258857D01*
X0141047Y0258859D01*
X0141160Y0258857D01*
X0141274Y0258851D01*
X0141387Y0258841D01*
X0141499Y0258827D01*
X0141611Y0258810D01*
X0141723Y0258788D01*
X0141833Y0258762D01*
X0141943Y0258733D01*
X0142051Y0258700D01*
X0142159Y0258663D01*
X0142264Y0258622D01*
X0142369Y0258578D01*
X0142472Y0258530D01*
X0142573Y0258479D01*
X0142672Y0258424D01*
X0142769Y0258365D01*
X0142864Y0258303D01*
X0142957Y0258238D01*
X0143048Y0258170D01*
X0143136Y0258099D01*
X0143222Y0258024D01*
X0143305Y0257947D01*
X0143385Y0257867D01*
X0143462Y0257784D01*
X0143537Y0257698D01*
X0143608Y0257610D01*
X0143676Y0257519D01*
X0143741Y0257426D01*
X0143803Y0257331D01*
X0143862Y0257234D01*
X0143917Y0257135D01*
X0143968Y0257034D01*
X0144016Y0256931D01*
X0144060Y0256826D01*
X0144101Y0256721D01*
X0144138Y0256613D01*
X0144171Y0256505D01*
X0144200Y0256395D01*
X0144226Y0256285D01*
X0144248Y0256173D01*
X0144265Y0256061D01*
X0144279Y0255949D01*
X0144289Y0255836D01*
X0144295Y0255722D01*
X0144297Y0255609D01*
X0144295Y0255496D01*
X0144289Y0255382D01*
X0144279Y0255269D01*
X0144265Y0255157D01*
X0144248Y0255045D01*
X0144226Y0254933D01*
X0144200Y0254823D01*
X0144171Y0254713D01*
X0144138Y0254605D01*
X0144101Y0254497D01*
X0144060Y0254392D01*
X0144016Y0254287D01*
X0143968Y0254184D01*
X0143917Y0254083D01*
X0143862Y0253984D01*
X0143803Y0253887D01*
X0143741Y0253792D01*
X0143676Y0253699D01*
X0143608Y0253608D01*
X0143537Y0253520D01*
X0143462Y0253434D01*
X0143385Y0253351D01*
X0143305Y0253271D01*
X0143222Y0253194D01*
X0143136Y0253119D01*
X0143048Y0253048D01*
X0142957Y0252980D01*
X0142864Y0252915D01*
X0142769Y0252853D01*
X0142672Y0252794D01*
X0142573Y0252739D01*
X0142472Y0252688D01*
X0142369Y0252640D01*
X0142264Y0252596D01*
X0142159Y0252555D01*
X0142051Y0252518D01*
X0141943Y0252485D01*
X0141833Y0252456D01*
X0141723Y0252430D01*
X0141611Y0252408D01*
X0141499Y0252391D01*
X0141387Y0252377D01*
X0141274Y0252367D01*
X0141160Y0252361D01*
X0141047Y0252359D01*
X0140934Y0252361D01*
X0140820Y0252367D01*
X0140707Y0252377D01*
X0140595Y0252391D01*
X0140483Y0252408D01*
X0140371Y0252430D01*
X0140261Y0252456D01*
X0140151Y0252485D01*
X0140043Y0252518D01*
X0139935Y0252555D01*
X0139830Y0252596D01*
X0139725Y0252640D01*
X0139622Y0252688D01*
X0139521Y0252739D01*
X0139422Y0252794D01*
X0139325Y0252853D01*
X0139230Y0252915D01*
X0139137Y0252980D01*
X0139046Y0253048D01*
X0138958Y0253119D01*
X0138872Y0253194D01*
X0138789Y0253271D01*
X0138709Y0253351D01*
X0138632Y0253434D01*
X0138557Y0253520D01*
X0138486Y0253608D01*
X0138418Y0253699D01*
X0138353Y0253792D01*
X0138291Y0253887D01*
X0138232Y0253984D01*
X0138177Y0254083D01*
X0138126Y0254184D01*
X0138078Y0254287D01*
X0138034Y0254392D01*
X0137993Y0254497D01*
X0137956Y0254605D01*
X0137923Y0254713D01*
X0137894Y0254823D01*
X0137868Y0254933D01*
X0137846Y0255045D01*
X0137829Y0255157D01*
X0137815Y0255269D01*
X0137805Y0255382D01*
X0137799Y0255496D01*
X0137797Y0255609D01*
D12*
X0403435Y0199969D02*
X0407535Y0200669D01*
X0407935Y0201769D01*
X0408135Y0202369D01*
X0408535Y0203069D01*
X0409035Y0203869D01*
X0406535Y0207069D01*
X0407135Y0207769D01*
X0407835Y0208469D01*
X0408635Y0209169D01*
X0409435Y0209869D01*
X0412835Y0207469D01*
X0413735Y0207869D01*
X0414535Y0208269D01*
X0415235Y0208469D01*
X0415935Y0208669D01*
X0416535Y0212769D01*
X0420335Y0212769D01*
X0421135Y0208669D01*
X0422235Y0208369D01*
X0423035Y0207969D01*
X0424235Y0207369D01*
X0427635Y0209769D01*
X0428335Y0209169D01*
X0429035Y0208469D01*
X0429735Y0207769D01*
X0430335Y0207069D01*
X0428035Y0203669D01*
X0428535Y0202769D01*
X0428935Y0201869D01*
X0429235Y0201069D01*
X0429535Y0200269D01*
X0433535Y0199669D01*
X0433635Y0198469D01*
X0433635Y0195869D01*
X0429435Y0195169D01*
X0429235Y0194169D01*
X0428835Y0193169D01*
X0428435Y0192269D01*
X0428035Y0191469D01*
X0430435Y0188269D01*
X0429835Y0187569D01*
X0429135Y0186869D01*
X0428435Y0186169D01*
X0427835Y0185669D01*
X0424435Y0187969D01*
X0423735Y0187569D01*
X0423035Y0187269D01*
X0422435Y0186969D01*
X0420035Y0193769D01*
X0420739Y0194105D01*
X0421368Y0194566D01*
X0421900Y0195136D01*
X0422317Y0195795D01*
X0422605Y0196520D01*
X0422752Y0197286D01*
X0422755Y0198065D01*
X0422613Y0198832D01*
X0422331Y0199559D01*
X0421919Y0200221D01*
X0421391Y0200795D01*
X0420766Y0201261D01*
X0420065Y0201602D01*
X0419313Y0201807D01*
X0418535Y0201869D01*
X0417745Y0201844D01*
X0416973Y0201671D01*
X0416247Y0201356D01*
X0415594Y0200911D01*
X0415035Y0200351D01*
X0414591Y0199697D01*
X0414278Y0198971D01*
X0414106Y0198198D01*
X0414082Y0197408D01*
X0414207Y0196627D01*
X0414476Y0195883D01*
X0414880Y0195203D01*
X0415404Y0194611D01*
X0416030Y0194127D01*
X0416735Y0193769D01*
X0414135Y0187069D01*
X0413435Y0187469D01*
X0412735Y0187869D01*
X0412035Y0188269D01*
X0408735Y0185869D01*
X0408035Y0186569D01*
X0407435Y0187169D01*
X0406835Y0187869D01*
X0406235Y0188569D01*
X0408635Y0192169D01*
X0408135Y0192969D01*
X0407835Y0193869D01*
X0407535Y0194769D01*
X0407335Y0195469D01*
X0403335Y0196169D01*
X0403235Y0197269D01*
X0403235Y0198169D01*
X0403335Y0198969D01*
X0403435Y0199969D01*
X0403425Y0199869D02*
X0414708Y0199869D01*
X0414580Y0199671D02*
X0403406Y0199671D01*
X0403386Y0199472D02*
X0414494Y0199472D01*
X0414409Y0199274D02*
X0403366Y0199274D01*
X0403346Y0199075D02*
X0414323Y0199075D01*
X0414257Y0198877D02*
X0403324Y0198877D01*
X0403299Y0198678D02*
X0414213Y0198678D01*
X0414169Y0198480D02*
X0403274Y0198480D01*
X0403249Y0198281D02*
X0414125Y0198281D01*
X0414103Y0198083D02*
X0403235Y0198083D01*
X0403235Y0197884D02*
X0414097Y0197884D01*
X0414091Y0197686D02*
X0403235Y0197686D01*
X0403235Y0197487D02*
X0414085Y0197487D01*
X0414101Y0197289D02*
X0403235Y0197289D01*
X0403252Y0197090D02*
X0414133Y0197090D01*
X0414165Y0196892D02*
X0403270Y0196892D01*
X0403288Y0196693D02*
X0414197Y0196693D01*
X0414255Y0196495D02*
X0403306Y0196495D01*
X0403324Y0196296D02*
X0414327Y0196296D01*
X0414399Y0196098D02*
X0403745Y0196098D01*
X0404880Y0195899D02*
X0414471Y0195899D01*
X0414585Y0195701D02*
X0406014Y0195701D01*
X0407148Y0195502D02*
X0414702Y0195502D01*
X0414820Y0195304D02*
X0407383Y0195304D01*
X0407440Y0195105D02*
X0414967Y0195105D01*
X0415142Y0194906D02*
X0407496Y0194906D01*
X0407556Y0194708D02*
X0415318Y0194708D01*
X0415535Y0194509D02*
X0407622Y0194509D01*
X0407688Y0194311D02*
X0415792Y0194311D01*
X0416059Y0194112D02*
X0407754Y0194112D01*
X0407821Y0193914D02*
X0416450Y0193914D01*
X0416715Y0193715D02*
X0407887Y0193715D01*
X0407953Y0193517D02*
X0416637Y0193517D01*
X0416560Y0193318D02*
X0408019Y0193318D01*
X0408085Y0193120D02*
X0416483Y0193120D01*
X0416406Y0192921D02*
X0408165Y0192921D01*
X0408289Y0192723D02*
X0416329Y0192723D01*
X0416252Y0192524D02*
X0408414Y0192524D01*
X0408538Y0192326D02*
X0416175Y0192326D01*
X0416098Y0192127D02*
X0408607Y0192127D01*
X0408475Y0191929D02*
X0416021Y0191929D01*
X0415944Y0191730D02*
X0408343Y0191730D01*
X0408210Y0191532D02*
X0415867Y0191532D01*
X0415790Y0191333D02*
X0408078Y0191333D01*
X0407946Y0191135D02*
X0415713Y0191135D01*
X0415636Y0190936D02*
X0407813Y0190936D01*
X0407681Y0190738D02*
X0415559Y0190738D01*
X0415482Y0190539D02*
X0407549Y0190539D01*
X0407416Y0190341D02*
X0415405Y0190341D01*
X0415328Y0190142D02*
X0407284Y0190142D01*
X0407152Y0189944D02*
X0415251Y0189944D01*
X0415174Y0189745D02*
X0407019Y0189745D01*
X0406887Y0189547D02*
X0415097Y0189547D01*
X0415020Y0189348D02*
X0406755Y0189348D01*
X0406622Y0189150D02*
X0414943Y0189150D01*
X0414866Y0188951D02*
X0406490Y0188951D01*
X0406358Y0188753D02*
X0414789Y0188753D01*
X0414712Y0188554D02*
X0406248Y0188554D01*
X0406419Y0188356D02*
X0414635Y0188356D01*
X0414558Y0188157D02*
X0412232Y0188157D01*
X0411881Y0188157D02*
X0406589Y0188157D01*
X0406759Y0187959D02*
X0411608Y0187959D01*
X0411335Y0187760D02*
X0406929Y0187760D01*
X0407099Y0187562D02*
X0411062Y0187562D01*
X0410789Y0187363D02*
X0407269Y0187363D01*
X0407440Y0187165D02*
X0410516Y0187165D01*
X0410243Y0186966D02*
X0407639Y0186966D01*
X0407837Y0186768D02*
X0409971Y0186768D01*
X0409698Y0186569D02*
X0408036Y0186569D01*
X0408234Y0186371D02*
X0409425Y0186371D01*
X0409152Y0186172D02*
X0408433Y0186172D01*
X0408631Y0185973D02*
X0408879Y0185973D01*
X0412579Y0187959D02*
X0414481Y0187959D01*
X0414404Y0187760D02*
X0412927Y0187760D01*
X0413274Y0187562D02*
X0414326Y0187562D01*
X0414249Y0187363D02*
X0413621Y0187363D01*
X0413969Y0187165D02*
X0414172Y0187165D01*
X0421456Y0189745D02*
X0429328Y0189745D01*
X0429180Y0189944D02*
X0421386Y0189944D01*
X0421316Y0190142D02*
X0429031Y0190142D01*
X0428882Y0190341D02*
X0421246Y0190341D01*
X0421175Y0190539D02*
X0428733Y0190539D01*
X0428584Y0190738D02*
X0421105Y0190738D01*
X0421035Y0190936D02*
X0428435Y0190936D01*
X0428286Y0191135D02*
X0420965Y0191135D01*
X0420895Y0191333D02*
X0428137Y0191333D01*
X0428067Y0191532D02*
X0420825Y0191532D01*
X0420755Y0191730D02*
X0428166Y0191730D01*
X0428265Y0191929D02*
X0420685Y0191929D01*
X0420615Y0192127D02*
X0428364Y0192127D01*
X0428461Y0192326D02*
X0420545Y0192326D01*
X0420475Y0192524D02*
X0428549Y0192524D01*
X0428637Y0192723D02*
X0420405Y0192723D01*
X0420335Y0192921D02*
X0428725Y0192921D01*
X0428813Y0193120D02*
X0420265Y0193120D01*
X0420195Y0193318D02*
X0428895Y0193318D01*
X0428974Y0193517D02*
X0420125Y0193517D01*
X0420054Y0193715D02*
X0429054Y0193715D01*
X0429133Y0193914D02*
X0420338Y0193914D01*
X0420749Y0194112D02*
X0429213Y0194112D01*
X0429264Y0194311D02*
X0421019Y0194311D01*
X0421290Y0194509D02*
X0429303Y0194509D01*
X0429343Y0194708D02*
X0421500Y0194708D01*
X0421685Y0194906D02*
X0429383Y0194906D01*
X0429423Y0195105D02*
X0421871Y0195105D01*
X0422006Y0195304D02*
X0430241Y0195304D01*
X0431432Y0195502D02*
X0422132Y0195502D01*
X0422257Y0195701D02*
X0432623Y0195701D01*
X0433635Y0195899D02*
X0422358Y0195899D01*
X0422437Y0196098D02*
X0433635Y0196098D01*
X0433635Y0196296D02*
X0422516Y0196296D01*
X0422595Y0196495D02*
X0433635Y0196495D01*
X0433635Y0196693D02*
X0422638Y0196693D01*
X0422676Y0196892D02*
X0433635Y0196892D01*
X0433635Y0197090D02*
X0422715Y0197090D01*
X0422752Y0197289D02*
X0433635Y0197289D01*
X0433635Y0197487D02*
X0422753Y0197487D01*
X0422754Y0197686D02*
X0433635Y0197686D01*
X0433635Y0197884D02*
X0422755Y0197884D01*
X0422752Y0198083D02*
X0433635Y0198083D01*
X0433635Y0198281D02*
X0422715Y0198281D01*
X0422679Y0198480D02*
X0433635Y0198480D01*
X0433618Y0198678D02*
X0422642Y0198678D01*
X0422596Y0198877D02*
X0433601Y0198877D01*
X0433585Y0199075D02*
X0422519Y0199075D01*
X0422442Y0199274D02*
X0433568Y0199274D01*
X0433552Y0199472D02*
X0422365Y0199472D01*
X0422262Y0199671D02*
X0433526Y0199671D01*
X0432202Y0199869D02*
X0422138Y0199869D01*
X0422015Y0200068D02*
X0430879Y0200068D01*
X0429555Y0200266D02*
X0421878Y0200266D01*
X0421695Y0200465D02*
X0429462Y0200465D01*
X0429388Y0200663D02*
X0421512Y0200663D01*
X0421301Y0200862D02*
X0429313Y0200862D01*
X0429239Y0201060D02*
X0421035Y0201060D01*
X0420768Y0201259D02*
X0429164Y0201259D01*
X0429090Y0201457D02*
X0420362Y0201457D01*
X0419868Y0201656D02*
X0429015Y0201656D01*
X0428941Y0201854D02*
X0418722Y0201854D01*
X0418069Y0201854D02*
X0407964Y0201854D01*
X0408030Y0202053D02*
X0428854Y0202053D01*
X0428766Y0202251D02*
X0408096Y0202251D01*
X0408182Y0202450D02*
X0428677Y0202450D01*
X0428589Y0202648D02*
X0408295Y0202648D01*
X0408408Y0202847D02*
X0428492Y0202847D01*
X0428382Y0203045D02*
X0408522Y0203045D01*
X0408645Y0203244D02*
X0428272Y0203244D01*
X0428161Y0203442D02*
X0408769Y0203442D01*
X0408893Y0203641D02*
X0428051Y0203641D01*
X0428151Y0203840D02*
X0409017Y0203840D01*
X0408904Y0204038D02*
X0428285Y0204038D01*
X0428419Y0204237D02*
X0408749Y0204237D01*
X0408593Y0204435D02*
X0428553Y0204435D01*
X0428688Y0204634D02*
X0408438Y0204634D01*
X0408283Y0204832D02*
X0428822Y0204832D01*
X0428956Y0205031D02*
X0408128Y0205031D01*
X0407973Y0205229D02*
X0429091Y0205229D01*
X0429225Y0205428D02*
X0407818Y0205428D01*
X0407663Y0205626D02*
X0429359Y0205626D01*
X0429493Y0205825D02*
X0407508Y0205825D01*
X0407353Y0206023D02*
X0429628Y0206023D01*
X0429762Y0206222D02*
X0407198Y0206222D01*
X0407043Y0206420D02*
X0429896Y0206420D01*
X0430031Y0206619D02*
X0406887Y0206619D01*
X0406732Y0206817D02*
X0430165Y0206817D01*
X0430299Y0207016D02*
X0406577Y0207016D01*
X0406660Y0207214D02*
X0430211Y0207214D01*
X0430041Y0207413D02*
X0424297Y0207413D01*
X0424149Y0207413D02*
X0406830Y0207413D01*
X0407000Y0207611D02*
X0412634Y0207611D01*
X0412353Y0207810D02*
X0407176Y0207810D01*
X0407374Y0208008D02*
X0412072Y0208008D01*
X0411791Y0208207D02*
X0407573Y0208207D01*
X0407771Y0208405D02*
X0411509Y0208405D01*
X0411228Y0208604D02*
X0407989Y0208604D01*
X0408216Y0208802D02*
X0410947Y0208802D01*
X0410666Y0209001D02*
X0408443Y0209001D01*
X0408670Y0209199D02*
X0410385Y0209199D01*
X0410103Y0209398D02*
X0408897Y0209398D01*
X0409123Y0209596D02*
X0409822Y0209596D01*
X0409541Y0209795D02*
X0409350Y0209795D01*
X0413155Y0207611D02*
X0423752Y0207611D01*
X0423355Y0207810D02*
X0413601Y0207810D01*
X0414013Y0208008D02*
X0422958Y0208008D01*
X0422561Y0208207D02*
X0414410Y0208207D01*
X0415011Y0208405D02*
X0422104Y0208405D01*
X0421376Y0208604D02*
X0415706Y0208604D01*
X0415955Y0208802D02*
X0421109Y0208802D01*
X0421071Y0209001D02*
X0415984Y0209001D01*
X0416013Y0209199D02*
X0421032Y0209199D01*
X0420993Y0209398D02*
X0416042Y0209398D01*
X0416071Y0209596D02*
X0420955Y0209596D01*
X0420916Y0209795D02*
X0416100Y0209795D01*
X0416129Y0209993D02*
X0420877Y0209993D01*
X0420838Y0210192D02*
X0416158Y0210192D01*
X0416187Y0210390D02*
X0420800Y0210390D01*
X0420761Y0210589D02*
X0416216Y0210589D01*
X0416245Y0210787D02*
X0420722Y0210787D01*
X0420683Y0210986D02*
X0416274Y0210986D01*
X0416303Y0211184D02*
X0420645Y0211184D01*
X0420606Y0211383D02*
X0416333Y0211383D01*
X0416362Y0211581D02*
X0420567Y0211581D01*
X0420528Y0211780D02*
X0416391Y0211780D01*
X0416420Y0211978D02*
X0420490Y0211978D01*
X0420451Y0212177D02*
X0416449Y0212177D01*
X0416478Y0212375D02*
X0420412Y0212375D01*
X0420374Y0212574D02*
X0416507Y0212574D01*
X0424578Y0207611D02*
X0429871Y0207611D01*
X0429695Y0207810D02*
X0424859Y0207810D01*
X0425141Y0208008D02*
X0429496Y0208008D01*
X0429298Y0208207D02*
X0425422Y0208207D01*
X0425703Y0208405D02*
X0429099Y0208405D01*
X0428901Y0208604D02*
X0425984Y0208604D01*
X0426266Y0208802D02*
X0428702Y0208802D01*
X0428504Y0209001D02*
X0426547Y0209001D01*
X0426828Y0209199D02*
X0428300Y0209199D01*
X0428069Y0209398D02*
X0427109Y0209398D01*
X0427390Y0209596D02*
X0427837Y0209596D01*
X0416938Y0201656D02*
X0407894Y0201656D01*
X0407822Y0201457D02*
X0416480Y0201457D01*
X0416104Y0201259D02*
X0407750Y0201259D01*
X0407678Y0201060D02*
X0415813Y0201060D01*
X0415544Y0200862D02*
X0407605Y0200862D01*
X0407500Y0200663D02*
X0415346Y0200663D01*
X0415148Y0200465D02*
X0406338Y0200465D01*
X0405175Y0200266D02*
X0414977Y0200266D01*
X0414843Y0200068D02*
X0404012Y0200068D01*
X0421526Y0189547D02*
X0429477Y0189547D01*
X0429626Y0189348D02*
X0421596Y0189348D01*
X0421666Y0189150D02*
X0429775Y0189150D01*
X0429924Y0188951D02*
X0421736Y0188951D01*
X0421806Y0188753D02*
X0430073Y0188753D01*
X0430222Y0188554D02*
X0421876Y0188554D01*
X0421946Y0188356D02*
X0430371Y0188356D01*
X0430339Y0188157D02*
X0422016Y0188157D01*
X0422086Y0187959D02*
X0424417Y0187959D01*
X0424451Y0187959D02*
X0430169Y0187959D01*
X0429999Y0187760D02*
X0424745Y0187760D01*
X0425038Y0187562D02*
X0429828Y0187562D01*
X0429629Y0187363D02*
X0425332Y0187363D01*
X0425625Y0187165D02*
X0429431Y0187165D01*
X0429232Y0186966D02*
X0425919Y0186966D01*
X0426212Y0186768D02*
X0429034Y0186768D01*
X0428835Y0186569D02*
X0426505Y0186569D01*
X0426799Y0186371D02*
X0428637Y0186371D01*
X0428438Y0186172D02*
X0427092Y0186172D01*
X0427386Y0185973D02*
X0428200Y0185973D01*
X0427962Y0185775D02*
X0427679Y0185775D01*
X0424069Y0187760D02*
X0422156Y0187760D01*
X0422226Y0187562D02*
X0423717Y0187562D01*
X0423254Y0187363D02*
X0422296Y0187363D01*
X0422367Y0187165D02*
X0422826Y0187165D01*
D13*
X0420479Y0178725D02*
X0420356Y0178683D01*
X0420231Y0178644D01*
X0420106Y0178609D01*
X0419979Y0178578D01*
X0419851Y0178551D01*
X0419723Y0178528D01*
X0419594Y0178508D01*
X0419464Y0178493D01*
X0419335Y0178481D01*
X0419204Y0178473D01*
X0419074Y0178469D01*
X0419023Y0178470D01*
X0418973Y0178475D01*
X0418922Y0178485D01*
X0418873Y0178497D01*
X0418825Y0178514D01*
X0418778Y0178535D01*
X0418732Y0178558D01*
X0418689Y0178586D01*
X0418648Y0178616D01*
X0418610Y0178650D01*
X0418574Y0178686D01*
X0418541Y0178726D01*
X0418511Y0178767D01*
X0418485Y0178811D01*
X0418462Y0178856D01*
X0418443Y0178904D01*
X0418427Y0178952D01*
X0418415Y0179002D01*
X0418407Y0179052D01*
X0418403Y0179103D01*
X0418402Y0179154D01*
X0418406Y0179205D01*
X0418414Y0179256D01*
X0418425Y0179306D01*
X0418440Y0179355D01*
X0418459Y0179402D01*
X0418482Y0179448D01*
X0418508Y0179492D01*
X0418537Y0179534D01*
X0418570Y0179573D01*
X0418605Y0179610D01*
X0418644Y0179644D01*
X0418684Y0179675D01*
X0418727Y0179702D01*
X0418772Y0179727D01*
X0418819Y0179748D01*
X0418819Y0179747D02*
X0420097Y0180258D01*
X0420096Y0180257D02*
X0420143Y0180278D01*
X0420188Y0180303D01*
X0420231Y0180330D01*
X0420271Y0180361D01*
X0420310Y0180395D01*
X0420345Y0180432D01*
X0420378Y0180471D01*
X0420407Y0180513D01*
X0420433Y0180557D01*
X0420456Y0180603D01*
X0420475Y0180650D01*
X0420490Y0180699D01*
X0420501Y0180749D01*
X0420509Y0180800D01*
X0420513Y0180851D01*
X0420512Y0180902D01*
X0420508Y0180953D01*
X0420500Y0181003D01*
X0420488Y0181053D01*
X0420472Y0181101D01*
X0420453Y0181149D01*
X0420430Y0181194D01*
X0420404Y0181238D01*
X0420374Y0181279D01*
X0420341Y0181319D01*
X0420305Y0181355D01*
X0420267Y0181389D01*
X0420226Y0181419D01*
X0420183Y0181447D01*
X0420137Y0181470D01*
X0420090Y0181491D01*
X0420042Y0181508D01*
X0419993Y0181520D01*
X0419942Y0181530D01*
X0419892Y0181535D01*
X0419841Y0181536D01*
X0419742Y0181533D01*
X0419643Y0181526D01*
X0419545Y0181516D01*
X0419447Y0181503D01*
X0419349Y0181487D01*
X0419252Y0181467D01*
X0419156Y0181444D01*
X0419061Y0181417D01*
X0418967Y0181388D01*
X0418874Y0181355D01*
X0418781Y0181319D01*
X0418691Y0181280D01*
X0416580Y0180514D02*
X0416580Y0179492D01*
X0416578Y0179429D01*
X0416572Y0179366D01*
X0416563Y0179304D01*
X0416549Y0179243D01*
X0416532Y0179182D01*
X0416511Y0179123D01*
X0416486Y0179065D01*
X0416458Y0179008D01*
X0416427Y0178954D01*
X0416392Y0178902D01*
X0416354Y0178851D01*
X0416313Y0178803D01*
X0416269Y0178758D01*
X0416223Y0178716D01*
X0416174Y0178676D01*
X0416123Y0178640D01*
X0416069Y0178607D01*
X0416014Y0178577D01*
X0415956Y0178551D01*
X0415898Y0178528D01*
X0415838Y0178509D01*
X0415777Y0178494D01*
X0415715Y0178482D01*
X0415652Y0178474D01*
X0415589Y0178470D01*
X0415527Y0178470D01*
X0415464Y0178474D01*
X0415401Y0178482D01*
X0415339Y0178494D01*
X0415278Y0178509D01*
X0415218Y0178528D01*
X0415160Y0178551D01*
X0415102Y0178577D01*
X0415047Y0178607D01*
X0414993Y0178640D01*
X0414942Y0178676D01*
X0414893Y0178716D01*
X0414847Y0178758D01*
X0414803Y0178803D01*
X0414762Y0178851D01*
X0414724Y0178902D01*
X0414689Y0178954D01*
X0414658Y0179008D01*
X0414630Y0179065D01*
X0414605Y0179123D01*
X0414584Y0179182D01*
X0414567Y0179243D01*
X0414553Y0179304D01*
X0414544Y0179366D01*
X0414538Y0179429D01*
X0414536Y0179492D01*
X0414535Y0179492D02*
X0414535Y0180514D01*
X0414536Y0180514D02*
X0414538Y0180577D01*
X0414544Y0180640D01*
X0414553Y0180702D01*
X0414567Y0180763D01*
X0414584Y0180824D01*
X0414605Y0180883D01*
X0414630Y0180941D01*
X0414658Y0180998D01*
X0414689Y0181052D01*
X0414724Y0181104D01*
X0414762Y0181155D01*
X0414803Y0181203D01*
X0414847Y0181248D01*
X0414893Y0181290D01*
X0414942Y0181330D01*
X0414993Y0181366D01*
X0415047Y0181399D01*
X0415102Y0181429D01*
X0415160Y0181455D01*
X0415218Y0181478D01*
X0415278Y0181497D01*
X0415339Y0181512D01*
X0415401Y0181524D01*
X0415464Y0181532D01*
X0415527Y0181536D01*
X0415589Y0181536D01*
X0415652Y0181532D01*
X0415715Y0181524D01*
X0415777Y0181512D01*
X0415838Y0181497D01*
X0415898Y0181478D01*
X0415956Y0181455D01*
X0416014Y0181429D01*
X0416069Y0181399D01*
X0416123Y0181366D01*
X0416174Y0181330D01*
X0416223Y0181290D01*
X0416269Y0181248D01*
X0416313Y0181203D01*
X0416354Y0181155D01*
X0416392Y0181104D01*
X0416427Y0181052D01*
X0416458Y0180998D01*
X0416486Y0180941D01*
X0416511Y0180883D01*
X0416532Y0180824D01*
X0416549Y0180763D01*
X0416563Y0180702D01*
X0416572Y0180640D01*
X0416578Y0180577D01*
X0416580Y0180514D01*
X0412530Y0181536D02*
X0412530Y0179236D01*
X0412528Y0179181D01*
X0412522Y0179127D01*
X0412512Y0179073D01*
X0412499Y0179020D01*
X0412482Y0178968D01*
X0412461Y0178917D01*
X0412436Y0178868D01*
X0412408Y0178821D01*
X0412377Y0178776D01*
X0412343Y0178734D01*
X0412305Y0178694D01*
X0412265Y0178656D01*
X0412223Y0178622D01*
X0412178Y0178591D01*
X0412131Y0178563D01*
X0412082Y0178538D01*
X0412031Y0178517D01*
X0411979Y0178500D01*
X0411926Y0178487D01*
X0411872Y0178477D01*
X0411818Y0178471D01*
X0411763Y0178469D01*
X0410485Y0178469D01*
X0410485Y0181536D01*
X0408304Y0181536D02*
X0408304Y0178469D01*
X0406770Y0181025D02*
X0406770Y0181536D01*
X0408304Y0181536D01*
X0405325Y0180769D02*
X0405325Y0179236D01*
X0405323Y0179181D01*
X0405317Y0179127D01*
X0405307Y0179073D01*
X0405294Y0179020D01*
X0405277Y0178968D01*
X0405256Y0178917D01*
X0405231Y0178868D01*
X0405203Y0178821D01*
X0405172Y0178776D01*
X0405138Y0178734D01*
X0405100Y0178694D01*
X0405060Y0178656D01*
X0405018Y0178622D01*
X0404973Y0178591D01*
X0404926Y0178563D01*
X0404877Y0178538D01*
X0404826Y0178517D01*
X0404774Y0178500D01*
X0404721Y0178487D01*
X0404667Y0178477D01*
X0404613Y0178471D01*
X0404558Y0178469D01*
X0403536Y0178469D01*
X0401880Y0179236D02*
X0401880Y0180514D01*
X0401880Y0180003D02*
X0399835Y0180003D01*
X0399835Y0180514D01*
X0399836Y0180514D02*
X0399838Y0180577D01*
X0399844Y0180640D01*
X0399853Y0180702D01*
X0399867Y0180763D01*
X0399884Y0180824D01*
X0399905Y0180883D01*
X0399930Y0180941D01*
X0399958Y0180998D01*
X0399989Y0181052D01*
X0400024Y0181104D01*
X0400062Y0181155D01*
X0400103Y0181203D01*
X0400147Y0181248D01*
X0400193Y0181290D01*
X0400242Y0181330D01*
X0400293Y0181366D01*
X0400347Y0181399D01*
X0400402Y0181429D01*
X0400460Y0181455D01*
X0400518Y0181478D01*
X0400578Y0181497D01*
X0400639Y0181512D01*
X0400701Y0181524D01*
X0400764Y0181532D01*
X0400827Y0181536D01*
X0400889Y0181536D01*
X0400952Y0181532D01*
X0401015Y0181524D01*
X0401077Y0181512D01*
X0401138Y0181497D01*
X0401198Y0181478D01*
X0401256Y0181455D01*
X0401314Y0181429D01*
X0401369Y0181399D01*
X0401423Y0181366D01*
X0401474Y0181330D01*
X0401523Y0181290D01*
X0401569Y0181248D01*
X0401613Y0181203D01*
X0401654Y0181155D01*
X0401692Y0181104D01*
X0401727Y0181052D01*
X0401758Y0180998D01*
X0401786Y0180941D01*
X0401811Y0180883D01*
X0401832Y0180824D01*
X0401849Y0180763D01*
X0401863Y0180702D01*
X0401872Y0180640D01*
X0401878Y0180577D01*
X0401880Y0180514D01*
X0401880Y0179236D02*
X0401878Y0179181D01*
X0401872Y0179127D01*
X0401862Y0179073D01*
X0401849Y0179020D01*
X0401832Y0178968D01*
X0401811Y0178917D01*
X0401786Y0178868D01*
X0401758Y0178821D01*
X0401727Y0178776D01*
X0401693Y0178734D01*
X0401655Y0178694D01*
X0401615Y0178656D01*
X0401573Y0178622D01*
X0401528Y0178591D01*
X0401481Y0178563D01*
X0401432Y0178538D01*
X0401381Y0178517D01*
X0401329Y0178500D01*
X0401276Y0178487D01*
X0401222Y0178477D01*
X0401168Y0178471D01*
X0401113Y0178469D01*
X0399835Y0178469D01*
X0403536Y0181536D02*
X0404558Y0181536D01*
X0404613Y0181534D01*
X0404667Y0181528D01*
X0404721Y0181518D01*
X0404774Y0181505D01*
X0404826Y0181488D01*
X0404877Y0181467D01*
X0404926Y0181442D01*
X0404973Y0181414D01*
X0405018Y0181383D01*
X0405060Y0181349D01*
X0405100Y0181311D01*
X0405138Y0181271D01*
X0405172Y0181229D01*
X0405203Y0181184D01*
X0405231Y0181137D01*
X0405256Y0181088D01*
X0405277Y0181037D01*
X0405294Y0180985D01*
X0405307Y0180932D01*
X0405317Y0180878D01*
X0405323Y0180824D01*
X0405325Y0180769D01*
X0407370Y0174036D02*
X0407370Y0173525D01*
X0407370Y0174036D02*
X0408904Y0174036D01*
X0408904Y0170969D01*
X0411109Y0170969D02*
X0411109Y0173269D01*
X0411109Y0172758D02*
X0412259Y0172758D01*
X0411108Y0173269D02*
X0411110Y0173321D01*
X0411115Y0173373D01*
X0411124Y0173425D01*
X0411136Y0173476D01*
X0411152Y0173526D01*
X0411172Y0173575D01*
X0411194Y0173622D01*
X0411220Y0173668D01*
X0411248Y0173711D01*
X0411280Y0173753D01*
X0411314Y0173793D01*
X0411351Y0173830D01*
X0411391Y0173864D01*
X0411433Y0173896D01*
X0411476Y0173924D01*
X0411522Y0173950D01*
X0411569Y0173973D01*
X0411618Y0173992D01*
X0411668Y0174008D01*
X0411719Y0174020D01*
X0411771Y0174029D01*
X0411823Y0174034D01*
X0411875Y0174036D01*
X0412898Y0174036D01*
X0414924Y0174036D02*
X0415691Y0170969D01*
X0416458Y0173014D01*
X0417224Y0170969D01*
X0417991Y0174036D01*
X0419959Y0174036D02*
X0421236Y0174036D01*
X0421291Y0174034D01*
X0421345Y0174028D01*
X0421399Y0174018D01*
X0421452Y0174005D01*
X0421504Y0173988D01*
X0421555Y0173967D01*
X0421604Y0173942D01*
X0421651Y0173914D01*
X0421696Y0173883D01*
X0421738Y0173849D01*
X0421778Y0173811D01*
X0421816Y0173771D01*
X0421850Y0173729D01*
X0421881Y0173684D01*
X0421909Y0173637D01*
X0421934Y0173588D01*
X0421955Y0173537D01*
X0421972Y0173485D01*
X0421985Y0173432D01*
X0421995Y0173378D01*
X0422001Y0173324D01*
X0422003Y0173269D01*
X0422003Y0171736D01*
X0422001Y0171681D01*
X0421995Y0171627D01*
X0421985Y0171573D01*
X0421972Y0171520D01*
X0421955Y0171468D01*
X0421934Y0171417D01*
X0421909Y0171368D01*
X0421881Y0171321D01*
X0421850Y0171276D01*
X0421816Y0171234D01*
X0421778Y0171194D01*
X0421738Y0171156D01*
X0421696Y0171122D01*
X0421651Y0171091D01*
X0421604Y0171063D01*
X0421555Y0171038D01*
X0421504Y0171017D01*
X0421452Y0171000D01*
X0421399Y0170987D01*
X0421345Y0170977D01*
X0421291Y0170971D01*
X0421236Y0170969D01*
X0419959Y0170969D01*
X0419959Y0175569D01*
X0423420Y0174036D02*
X0423420Y0173525D01*
X0423420Y0174036D02*
X0424954Y0174036D01*
X0424954Y0170969D01*
X0427159Y0170969D02*
X0427159Y0173269D01*
X0427159Y0172758D02*
X0428309Y0172758D01*
X0427158Y0173269D02*
X0427160Y0173321D01*
X0427165Y0173373D01*
X0427174Y0173425D01*
X0427186Y0173476D01*
X0427202Y0173526D01*
X0427222Y0173575D01*
X0427244Y0173622D01*
X0427270Y0173668D01*
X0427298Y0173711D01*
X0427330Y0173753D01*
X0427364Y0173793D01*
X0427401Y0173830D01*
X0427441Y0173864D01*
X0427483Y0173896D01*
X0427526Y0173924D01*
X0427572Y0173950D01*
X0427619Y0173973D01*
X0427668Y0173992D01*
X0427718Y0174008D01*
X0427769Y0174020D01*
X0427821Y0174029D01*
X0427873Y0174034D01*
X0427925Y0174036D01*
X0428947Y0174036D01*
X0428309Y0172758D02*
X0428367Y0172756D01*
X0428426Y0172750D01*
X0428483Y0172741D01*
X0428540Y0172728D01*
X0428596Y0172711D01*
X0428651Y0172690D01*
X0428704Y0172666D01*
X0428756Y0172638D01*
X0428806Y0172607D01*
X0428853Y0172573D01*
X0428898Y0172536D01*
X0428941Y0172496D01*
X0428981Y0172453D01*
X0429018Y0172408D01*
X0429052Y0172361D01*
X0429083Y0172311D01*
X0429111Y0172259D01*
X0429135Y0172206D01*
X0429156Y0172151D01*
X0429173Y0172095D01*
X0429186Y0172038D01*
X0429195Y0171981D01*
X0429201Y0171922D01*
X0429203Y0171864D01*
X0429201Y0171806D01*
X0429195Y0171747D01*
X0429186Y0171690D01*
X0429173Y0171633D01*
X0429156Y0171577D01*
X0429135Y0171522D01*
X0429111Y0171469D01*
X0429083Y0171417D01*
X0429052Y0171367D01*
X0429018Y0171320D01*
X0428981Y0171275D01*
X0428941Y0171232D01*
X0428898Y0171192D01*
X0428853Y0171155D01*
X0428806Y0171121D01*
X0428756Y0171090D01*
X0428704Y0171062D01*
X0428651Y0171038D01*
X0428596Y0171017D01*
X0428540Y0171000D01*
X0428483Y0170987D01*
X0428426Y0170978D01*
X0428367Y0170972D01*
X0428309Y0170970D01*
X0428309Y0170969D02*
X0427159Y0170969D01*
X0431185Y0170969D02*
X0431185Y0173269D01*
X0431187Y0173324D01*
X0431193Y0173378D01*
X0431203Y0173432D01*
X0431216Y0173485D01*
X0431233Y0173537D01*
X0431254Y0173588D01*
X0431279Y0173637D01*
X0431307Y0173684D01*
X0431338Y0173729D01*
X0431372Y0173771D01*
X0431410Y0173811D01*
X0431450Y0173849D01*
X0431492Y0173883D01*
X0431537Y0173914D01*
X0431584Y0173942D01*
X0431633Y0173967D01*
X0431684Y0173988D01*
X0431736Y0174005D01*
X0431789Y0174018D01*
X0431843Y0174028D01*
X0431897Y0174034D01*
X0431952Y0174036D01*
X0433230Y0174036D01*
X0433230Y0175569D02*
X0433230Y0170969D01*
X0434857Y0176936D02*
X0434857Y0181536D01*
X0433579Y0181536D01*
X0433524Y0181534D01*
X0433470Y0181528D01*
X0433416Y0181518D01*
X0433363Y0181505D01*
X0433311Y0181488D01*
X0433260Y0181467D01*
X0433211Y0181442D01*
X0433164Y0181414D01*
X0433119Y0181383D01*
X0433077Y0181349D01*
X0433037Y0181311D01*
X0432999Y0181271D01*
X0432965Y0181229D01*
X0432934Y0181184D01*
X0432906Y0181137D01*
X0432881Y0181088D01*
X0432860Y0181037D01*
X0432843Y0180985D01*
X0432830Y0180932D01*
X0432820Y0180878D01*
X0432814Y0180824D01*
X0432812Y0180769D01*
X0432812Y0179236D01*
X0432814Y0179184D01*
X0432819Y0179132D01*
X0432828Y0179080D01*
X0432840Y0179029D01*
X0432856Y0178979D01*
X0432876Y0178930D01*
X0432898Y0178883D01*
X0432924Y0178837D01*
X0432952Y0178794D01*
X0432984Y0178752D01*
X0433018Y0178712D01*
X0433055Y0178675D01*
X0433095Y0178641D01*
X0433137Y0178609D01*
X0433180Y0178581D01*
X0433226Y0178555D01*
X0433273Y0178532D01*
X0433322Y0178513D01*
X0433372Y0178497D01*
X0433423Y0178485D01*
X0433475Y0178476D01*
X0433527Y0178471D01*
X0433579Y0178469D01*
X0434857Y0178469D01*
X0436885Y0179492D02*
X0436885Y0180514D01*
X0436886Y0180514D02*
X0436888Y0180577D01*
X0436894Y0180640D01*
X0436903Y0180702D01*
X0436917Y0180763D01*
X0436934Y0180824D01*
X0436955Y0180883D01*
X0436980Y0180941D01*
X0437008Y0180998D01*
X0437039Y0181052D01*
X0437074Y0181104D01*
X0437112Y0181155D01*
X0437153Y0181203D01*
X0437197Y0181248D01*
X0437243Y0181290D01*
X0437292Y0181330D01*
X0437343Y0181366D01*
X0437397Y0181399D01*
X0437452Y0181429D01*
X0437510Y0181455D01*
X0437568Y0181478D01*
X0437628Y0181497D01*
X0437689Y0181512D01*
X0437751Y0181524D01*
X0437814Y0181532D01*
X0437877Y0181536D01*
X0437939Y0181536D01*
X0438002Y0181532D01*
X0438065Y0181524D01*
X0438127Y0181512D01*
X0438188Y0181497D01*
X0438248Y0181478D01*
X0438306Y0181455D01*
X0438364Y0181429D01*
X0438419Y0181399D01*
X0438473Y0181366D01*
X0438524Y0181330D01*
X0438573Y0181290D01*
X0438619Y0181248D01*
X0438663Y0181203D01*
X0438704Y0181155D01*
X0438742Y0181104D01*
X0438777Y0181052D01*
X0438808Y0180998D01*
X0438836Y0180941D01*
X0438861Y0180883D01*
X0438882Y0180824D01*
X0438899Y0180763D01*
X0438913Y0180702D01*
X0438922Y0180640D01*
X0438928Y0180577D01*
X0438930Y0180514D01*
X0438930Y0179492D01*
X0438928Y0179429D01*
X0438922Y0179366D01*
X0438913Y0179304D01*
X0438899Y0179243D01*
X0438882Y0179182D01*
X0438861Y0179123D01*
X0438836Y0179065D01*
X0438808Y0179008D01*
X0438777Y0178954D01*
X0438742Y0178902D01*
X0438704Y0178851D01*
X0438663Y0178803D01*
X0438619Y0178758D01*
X0438573Y0178716D01*
X0438524Y0178676D01*
X0438473Y0178640D01*
X0438419Y0178607D01*
X0438364Y0178577D01*
X0438306Y0178551D01*
X0438248Y0178528D01*
X0438188Y0178509D01*
X0438127Y0178494D01*
X0438065Y0178482D01*
X0438002Y0178474D01*
X0437939Y0178470D01*
X0437877Y0178470D01*
X0437814Y0178474D01*
X0437751Y0178482D01*
X0437689Y0178494D01*
X0437628Y0178509D01*
X0437568Y0178528D01*
X0437510Y0178551D01*
X0437452Y0178577D01*
X0437397Y0178607D01*
X0437343Y0178640D01*
X0437292Y0178676D01*
X0437243Y0178716D01*
X0437197Y0178758D01*
X0437153Y0178803D01*
X0437112Y0178851D01*
X0437074Y0178902D01*
X0437039Y0178954D01*
X0437008Y0179008D01*
X0436980Y0179065D01*
X0436955Y0179123D01*
X0436934Y0179182D01*
X0436917Y0179243D01*
X0436903Y0179304D01*
X0436894Y0179366D01*
X0436888Y0179429D01*
X0436886Y0179492D01*
X0430980Y0179236D02*
X0430980Y0180514D01*
X0430980Y0180003D02*
X0428935Y0180003D01*
X0428935Y0180514D01*
X0428936Y0180514D02*
X0428938Y0180577D01*
X0428944Y0180640D01*
X0428953Y0180702D01*
X0428967Y0180763D01*
X0428984Y0180824D01*
X0429005Y0180883D01*
X0429030Y0180941D01*
X0429058Y0180998D01*
X0429089Y0181052D01*
X0429124Y0181104D01*
X0429162Y0181155D01*
X0429203Y0181203D01*
X0429247Y0181248D01*
X0429293Y0181290D01*
X0429342Y0181330D01*
X0429393Y0181366D01*
X0429447Y0181399D01*
X0429502Y0181429D01*
X0429560Y0181455D01*
X0429618Y0181478D01*
X0429678Y0181497D01*
X0429739Y0181512D01*
X0429801Y0181524D01*
X0429864Y0181532D01*
X0429927Y0181536D01*
X0429989Y0181536D01*
X0430052Y0181532D01*
X0430115Y0181524D01*
X0430177Y0181512D01*
X0430238Y0181497D01*
X0430298Y0181478D01*
X0430356Y0181455D01*
X0430414Y0181429D01*
X0430469Y0181399D01*
X0430523Y0181366D01*
X0430574Y0181330D01*
X0430623Y0181290D01*
X0430669Y0181248D01*
X0430713Y0181203D01*
X0430754Y0181155D01*
X0430792Y0181104D01*
X0430827Y0181052D01*
X0430858Y0180998D01*
X0430886Y0180941D01*
X0430911Y0180883D01*
X0430932Y0180824D01*
X0430949Y0180763D01*
X0430963Y0180702D01*
X0430972Y0180640D01*
X0430978Y0180577D01*
X0430980Y0180514D01*
X0430980Y0179236D02*
X0430978Y0179181D01*
X0430972Y0179127D01*
X0430962Y0179073D01*
X0430949Y0179020D01*
X0430932Y0178968D01*
X0430911Y0178917D01*
X0430886Y0178868D01*
X0430858Y0178821D01*
X0430827Y0178776D01*
X0430793Y0178734D01*
X0430755Y0178694D01*
X0430715Y0178656D01*
X0430673Y0178622D01*
X0430628Y0178591D01*
X0430581Y0178563D01*
X0430532Y0178538D01*
X0430481Y0178517D01*
X0430429Y0178500D01*
X0430376Y0178487D01*
X0430322Y0178477D01*
X0430268Y0178471D01*
X0430213Y0178469D01*
X0428935Y0178469D01*
X0426930Y0178469D02*
X0426930Y0181536D01*
X0425652Y0181536D01*
X0425597Y0181534D01*
X0425543Y0181528D01*
X0425489Y0181518D01*
X0425436Y0181505D01*
X0425384Y0181488D01*
X0425333Y0181467D01*
X0425284Y0181442D01*
X0425237Y0181414D01*
X0425192Y0181383D01*
X0425150Y0181349D01*
X0425110Y0181311D01*
X0425072Y0181271D01*
X0425038Y0181229D01*
X0425007Y0181184D01*
X0424979Y0181137D01*
X0424954Y0181088D01*
X0424933Y0181037D01*
X0424916Y0180985D01*
X0424903Y0180932D01*
X0424893Y0180878D01*
X0424887Y0180824D01*
X0424885Y0180769D01*
X0424885Y0178469D01*
X0412259Y0172758D02*
X0412317Y0172756D01*
X0412376Y0172750D01*
X0412433Y0172741D01*
X0412490Y0172728D01*
X0412546Y0172711D01*
X0412601Y0172690D01*
X0412654Y0172666D01*
X0412706Y0172638D01*
X0412756Y0172607D01*
X0412803Y0172573D01*
X0412848Y0172536D01*
X0412891Y0172496D01*
X0412931Y0172453D01*
X0412968Y0172408D01*
X0413002Y0172361D01*
X0413033Y0172311D01*
X0413061Y0172259D01*
X0413085Y0172206D01*
X0413106Y0172151D01*
X0413123Y0172095D01*
X0413136Y0172038D01*
X0413145Y0171981D01*
X0413151Y0171922D01*
X0413153Y0171864D01*
X0413151Y0171806D01*
X0413145Y0171747D01*
X0413136Y0171690D01*
X0413123Y0171633D01*
X0413106Y0171577D01*
X0413085Y0171522D01*
X0413061Y0171469D01*
X0413033Y0171417D01*
X0413002Y0171367D01*
X0412968Y0171320D01*
X0412931Y0171275D01*
X0412891Y0171232D01*
X0412848Y0171192D01*
X0412803Y0171155D01*
X0412756Y0171121D01*
X0412706Y0171090D01*
X0412654Y0171062D01*
X0412601Y0171038D01*
X0412546Y0171017D01*
X0412490Y0171000D01*
X0412433Y0170987D01*
X0412376Y0170978D01*
X0412317Y0170972D01*
X0412259Y0170970D01*
X0412259Y0170969D02*
X0411109Y0170969D01*
X0405930Y0171736D02*
X0405930Y0173014D01*
X0405930Y0172503D02*
X0403885Y0172503D01*
X0403885Y0173014D01*
X0403886Y0173014D02*
X0403888Y0173077D01*
X0403894Y0173140D01*
X0403903Y0173202D01*
X0403917Y0173263D01*
X0403934Y0173324D01*
X0403955Y0173383D01*
X0403980Y0173441D01*
X0404008Y0173498D01*
X0404039Y0173552D01*
X0404074Y0173604D01*
X0404112Y0173655D01*
X0404153Y0173703D01*
X0404197Y0173748D01*
X0404243Y0173790D01*
X0404292Y0173830D01*
X0404343Y0173866D01*
X0404397Y0173899D01*
X0404452Y0173929D01*
X0404510Y0173955D01*
X0404568Y0173978D01*
X0404628Y0173997D01*
X0404689Y0174012D01*
X0404751Y0174024D01*
X0404814Y0174032D01*
X0404877Y0174036D01*
X0404939Y0174036D01*
X0405002Y0174032D01*
X0405065Y0174024D01*
X0405127Y0174012D01*
X0405188Y0173997D01*
X0405248Y0173978D01*
X0405306Y0173955D01*
X0405364Y0173929D01*
X0405419Y0173899D01*
X0405473Y0173866D01*
X0405524Y0173830D01*
X0405573Y0173790D01*
X0405619Y0173748D01*
X0405663Y0173703D01*
X0405704Y0173655D01*
X0405742Y0173604D01*
X0405777Y0173552D01*
X0405808Y0173498D01*
X0405836Y0173441D01*
X0405861Y0173383D01*
X0405882Y0173324D01*
X0405899Y0173263D01*
X0405913Y0173202D01*
X0405922Y0173140D01*
X0405928Y0173077D01*
X0405930Y0173014D01*
X0405930Y0171736D02*
X0405928Y0171681D01*
X0405922Y0171627D01*
X0405912Y0171573D01*
X0405899Y0171520D01*
X0405882Y0171468D01*
X0405861Y0171417D01*
X0405836Y0171368D01*
X0405808Y0171321D01*
X0405777Y0171276D01*
X0405743Y0171234D01*
X0405705Y0171194D01*
X0405665Y0171156D01*
X0405623Y0171122D01*
X0405578Y0171091D01*
X0405531Y0171063D01*
X0405482Y0171038D01*
X0405431Y0171017D01*
X0405379Y0171000D01*
X0405326Y0170987D01*
X0405272Y0170977D01*
X0405218Y0170971D01*
X0405163Y0170969D01*
X0403885Y0170969D01*
M02*
